G04*
G04 #@! TF.GenerationSoftware,Altium Limited,Altium Designer,21.3.2 (30)*
G04*
G04 Layer_Color=2752767*
%FSTAX25Y25*%
%MOIN*%
G70*
G04*
G04 #@! TF.SameCoordinates,BF941F2B-45D7-4960-A8E1-59923975AC68*
G04*
G04*
G04 #@! TF.FilePolarity,Positive*
G04*
G01*
G75*
%ADD118C,0.00200*%
%ADD119C,0.00267*%
%ADD120C,0.00133*%
D118*
X0492608Y0318762D02*
Y0320362D01*
X0494208D01*
Y0318762D01*
X0492608D01*
X03303Y01781D02*
X03295Y01797D01*
X03311D01*
X03303Y01781D01*
X03403D02*
X03395Y01797D01*
X03411D01*
X03403Y01781D01*
X0353653Y0178D02*
X0352853Y01796D01*
X0354453D01*
X0353653Y0178D01*
X0363653D02*
X0362853Y01796D01*
X0364453D01*
X0363653Y0178D01*
X0363653Y0167D02*
X0362853Y01686D01*
X0364453D01*
X0363653Y0167D01*
X0353653D02*
X0352853Y01686D01*
X0354453D01*
X0353653Y0167D01*
X02559Y01317D02*
X02551Y01333D01*
X02567D01*
X02559Y01317D01*
X02659D02*
X02651Y01333D01*
X02667D01*
X02659Y01317D01*
X02659Y01207D02*
X02651Y01223D01*
X02667D01*
X02659Y01207D01*
X02559D02*
X02551Y01223D01*
X02567D01*
X02559Y01207D01*
X02794Y01317D02*
X02786Y01333D01*
X02802D01*
X02794Y01317D01*
X02894D02*
X02886Y01333D01*
X02902D01*
X02894Y01317D01*
X02894Y01207D02*
X02886Y01223D01*
X02902D01*
X02894Y01207D01*
X02794D02*
X02786Y01223D01*
X02802D01*
X02794Y01207D01*
X03403Y01671D02*
X03395Y01687D01*
X03411D01*
X03403Y01671D01*
X03303D02*
X03295Y01687D01*
X03311D01*
X03303Y01671D01*
X0140687Y0291074D02*
X0141087Y0291474D01*
X0141487D01*
X0141087Y0291874D01*
X0141487Y0292274D01*
X0141087D01*
X0140687Y0292674D01*
X0140287Y0292274D01*
X0139887D01*
X0140287Y0291874D01*
X0139887Y0291474D01*
X0140287D01*
X0140687Y0291074D01*
Y0281074D02*
X0141087Y0281474D01*
X0141487D01*
X0141087Y0281874D01*
X0141487Y0282274D01*
X0141087D01*
X0140687Y0282674D01*
X0140287Y0282274D01*
X0139887D01*
X0140287Y0281874D01*
X0139887Y0281474D01*
X0140287D01*
X0140687Y0281074D01*
Y0271074D02*
X0141087Y0271474D01*
X0141487D01*
X0141087Y0271874D01*
X0141487Y0272274D01*
X0141087D01*
X0140687Y0272674D01*
X0140287Y0272274D01*
X0139887D01*
X0140287Y0271874D01*
X0139887Y0271474D01*
X0140287D01*
X0140687Y0271074D01*
Y0261074D02*
X0141087Y0261474D01*
X0141487D01*
X0141087Y0261874D01*
X0141487Y0262274D01*
X0141087D01*
X0140687Y0262674D01*
X0140287Y0262274D01*
X0139887D01*
X0140287Y0261874D01*
X0139887Y0261474D01*
X0140287D01*
X0140687Y0261074D01*
Y0251074D02*
X0141087Y0251474D01*
X0141487D01*
X0141087Y0251874D01*
X0141487Y0252274D01*
X0141087D01*
X0140687Y0252674D01*
X0140287Y0252274D01*
X0139887D01*
X0140287Y0251874D01*
X0139887Y0251474D01*
X0140287D01*
X0140687Y0251074D01*
Y0241074D02*
X0141087Y0241474D01*
X0141487D01*
X0141087Y0241874D01*
X0141487Y0242274D01*
X0141087D01*
X0140687Y0242674D01*
X0140287Y0242274D01*
X0139887D01*
X0140287Y0241874D01*
X0139887Y0241474D01*
X0140287D01*
X0140687Y0241074D01*
Y0231074D02*
X0141087Y0231474D01*
X0141487D01*
X0141087Y0231874D01*
X0141487Y0232274D01*
X0141087D01*
X0140687Y0232674D01*
X0140287Y0232274D01*
X0139887D01*
X0140287Y0231874D01*
X0139887Y0231474D01*
X0140287D01*
X0140687Y0231074D01*
Y0221074D02*
X0141087Y0221474D01*
X0141487D01*
X0141087Y0221874D01*
X0141487Y0222274D01*
X0141087D01*
X0140687Y0222674D01*
X0140287Y0222274D01*
X0139887D01*
X0140287Y0221874D01*
X0139887Y0221474D01*
X0140287D01*
X0140687Y0221074D01*
Y0211074D02*
X0141087Y0211474D01*
X0141487D01*
X0141087Y0211874D01*
X0141487Y0212274D01*
X0141087D01*
X0140687Y0212674D01*
X0140287Y0212274D01*
X0139887D01*
X0140287Y0211874D01*
X0139887Y0211474D01*
X0140287D01*
X0140687Y0211074D01*
X0150687D02*
X0151087Y0211474D01*
X0151487D01*
X0151087Y0211874D01*
X0151487Y0212274D01*
X0151087D01*
X0150687Y0212674D01*
X0150287Y0212274D01*
X0149887D01*
X0150287Y0211874D01*
X0149887Y0211474D01*
X0150287D01*
X0150687Y0211074D01*
X0160687D02*
X0161087Y0211474D01*
X0161487D01*
X0161087Y0211874D01*
X0161487Y0212274D01*
X0161087D01*
X0160687Y0212674D01*
X0160287Y0212274D01*
X0159887D01*
X0160287Y0211874D01*
X0159887Y0211474D01*
X0160287D01*
X0160687Y0211074D01*
X0170687D02*
X0171087Y0211474D01*
X0171487D01*
X0171087Y0211874D01*
X0171487Y0212274D01*
X0171087D01*
X0170687Y0212674D01*
X0170287Y0212274D01*
X0169887D01*
X0170287Y0211874D01*
X0169887Y0211474D01*
X0170287D01*
X0170687Y0211074D01*
X0180687D02*
X0181087Y0211474D01*
X0181487D01*
X0181087Y0211874D01*
X0181487Y0212274D01*
X0181087D01*
X0180687Y0212674D01*
X0180287Y0212274D01*
X0179887D01*
X0180287Y0211874D01*
X0179887Y0211474D01*
X0180287D01*
X0180687Y0211074D01*
X0190687D02*
X0191087Y0211474D01*
X0191487D01*
X0191087Y0211874D01*
X0191487Y0212274D01*
X0191087D01*
X0190687Y0212674D01*
X0190287Y0212274D01*
X0189887D01*
X0190287Y0211874D01*
X0189887Y0211474D01*
X0190287D01*
X0190687Y0211074D01*
X0200687D02*
X0201087Y0211474D01*
X0201487D01*
X0201087Y0211874D01*
X0201487Y0212274D01*
X0201087D01*
X0200687Y0212674D01*
X0200287Y0212274D01*
X0199887D01*
X0200287Y0211874D01*
X0199887Y0211474D01*
X0200287D01*
X0200687Y0211074D01*
Y0221074D02*
X0201087Y0221474D01*
X0201487D01*
X0201087Y0221874D01*
X0201487Y0222274D01*
X0201087D01*
X0200687Y0222674D01*
X0200287Y0222274D01*
X0199887D01*
X0200287Y0221874D01*
X0199887Y0221474D01*
X0200287D01*
X0200687Y0221074D01*
Y0231074D02*
X0201087Y0231474D01*
X0201487D01*
X0201087Y0231874D01*
X0201487Y0232274D01*
X0201087D01*
X0200687Y0232674D01*
X0200287Y0232274D01*
X0199887D01*
X0200287Y0231874D01*
X0199887Y0231474D01*
X0200287D01*
X0200687Y0231074D01*
Y0241074D02*
X0201087Y0241474D01*
X0201487D01*
X0201087Y0241874D01*
X0201487Y0242274D01*
X0201087D01*
X0200687Y0242674D01*
X0200287Y0242274D01*
X0199887D01*
X0200287Y0241874D01*
X0199887Y0241474D01*
X0200287D01*
X0200687Y0241074D01*
Y0251074D02*
X0201087Y0251474D01*
X0201487D01*
X0201087Y0251874D01*
X0201487Y0252274D01*
X0201087D01*
X0200687Y0252674D01*
X0200287Y0252274D01*
X0199887D01*
X0200287Y0251874D01*
X0199887Y0251474D01*
X0200287D01*
X0200687Y0251074D01*
Y0261074D02*
X0201087Y0261474D01*
X0201487D01*
X0201087Y0261874D01*
X0201487Y0262274D01*
X0201087D01*
X0200687Y0262674D01*
X0200287Y0262274D01*
X0199887D01*
X0200287Y0261874D01*
X0199887Y0261474D01*
X0200287D01*
X0200687Y0261074D01*
Y0271074D02*
X0201087Y0271474D01*
X0201487D01*
X0201087Y0271874D01*
X0201487Y0272274D01*
X0201087D01*
X0200687Y0272674D01*
X0200287Y0272274D01*
X0199887D01*
X0200287Y0271874D01*
X0199887Y0271474D01*
X0200287D01*
X0200687Y0271074D01*
Y0281074D02*
X0201087Y0281474D01*
X0201487D01*
X0201087Y0281874D01*
X0201487Y0282274D01*
X0201087D01*
X0200687Y0282674D01*
X0200287Y0282274D01*
X0199887D01*
X0200287Y0281874D01*
X0199887Y0281474D01*
X0200287D01*
X0200687Y0281074D01*
Y0291074D02*
X0201087Y0291474D01*
X0201487D01*
X0201087Y0291874D01*
X0201487Y0292274D01*
X0201087D01*
X0200687Y0292674D01*
X0200287Y0292274D01*
X0199887D01*
X0200287Y0291874D01*
X0199887Y0291474D01*
X0200287D01*
X0200687Y0291074D01*
X0448413Y0210582D02*
X0448813Y0211382D01*
X0448413Y0212182D01*
X0449213Y0211782D01*
X0450013Y0212182D01*
X0449613Y0211382D01*
X0450013Y0210582D01*
X0449213Y0210982D01*
X0448413Y0210582D01*
Y0195582D02*
X0448813Y0196382D01*
X0448413Y0197182D01*
X0449213Y0196782D01*
X0450013Y0197182D01*
X0449613Y0196382D01*
X0450013Y0195582D01*
X0449213Y0195982D01*
X0448413Y0195582D01*
Y0251188D02*
X0448813Y0251988D01*
X0448413Y0252788D01*
X0449213Y0252388D01*
X0450013Y0252788D01*
X0449613Y0251988D01*
X0450013Y0251188D01*
X0449213Y0251588D01*
X0448413Y0251188D01*
Y0236188D02*
X0448813Y0236988D01*
X0448413Y0237788D01*
X0449213Y0237388D01*
X0450013Y0237788D01*
X0449613Y0236988D01*
X0450013Y0236188D01*
X0449213Y0236588D01*
X0448413Y0236188D01*
X0037989Y0332D02*
Y03316D01*
X0038789D01*
Y0332D01*
X0039189D01*
Y03328D01*
X0038789D01*
Y03332D01*
X0037989D01*
Y03328D01*
X0037589D01*
Y0332D01*
X0037989D01*
Y0152D02*
Y01516D01*
X0038789D01*
Y0152D01*
X0039189D01*
Y01528D01*
X0038789D01*
Y01532D01*
X0037989D01*
Y01528D01*
X0037589D01*
Y0152D01*
X0037989D01*
X0047989Y0332D02*
Y03316D01*
X0048789D01*
Y0332D01*
X0049189D01*
Y03328D01*
X0048789D01*
Y03332D01*
X0047989D01*
Y03328D01*
X0047589D01*
Y0332D01*
X0047989D01*
X0037989Y0322D02*
Y03216D01*
X0038789D01*
Y0322D01*
X0039189D01*
Y03228D01*
X0038789D01*
Y03232D01*
X0037989D01*
Y03228D01*
X0037589D01*
Y0322D01*
X0037989D01*
X0047989D02*
Y03216D01*
X0048789D01*
Y0322D01*
X0049189D01*
Y03228D01*
X0048789D01*
Y03232D01*
X0047989D01*
Y03228D01*
X0047589D01*
Y0322D01*
X0047989D01*
X0037989Y0312D02*
Y03116D01*
X0038789D01*
Y0312D01*
X0039189D01*
Y03128D01*
X0038789D01*
Y03132D01*
X0037989D01*
Y03128D01*
X0037589D01*
Y0312D01*
X0037989D01*
X0047989D02*
Y03116D01*
X0048789D01*
Y0312D01*
X0049189D01*
Y03128D01*
X0048789D01*
Y03132D01*
X0047989D01*
Y03128D01*
X0047589D01*
Y0312D01*
X0047989D01*
X0037989Y0302D02*
Y03016D01*
X0038789D01*
Y0302D01*
X0039189D01*
Y03028D01*
X0038789D01*
Y03032D01*
X0037989D01*
Y03028D01*
X0037589D01*
Y0302D01*
X0037989D01*
X0047989D02*
Y03016D01*
X0048789D01*
Y0302D01*
X0049189D01*
Y03028D01*
X0048789D01*
Y03032D01*
X0047989D01*
Y03028D01*
X0047589D01*
Y0302D01*
X0047989D01*
X0037989Y0292D02*
Y02916D01*
X0038789D01*
Y0292D01*
X0039189D01*
Y02928D01*
X0038789D01*
Y02932D01*
X0037989D01*
Y02928D01*
X0037589D01*
Y0292D01*
X0037989D01*
X0047989D02*
Y02916D01*
X0048789D01*
Y0292D01*
X0049189D01*
Y02928D01*
X0048789D01*
Y02932D01*
X0047989D01*
Y02928D01*
X0047589D01*
Y0292D01*
X0047989D01*
X0037989Y0282D02*
Y02816D01*
X0038789D01*
Y0282D01*
X0039189D01*
Y02828D01*
X0038789D01*
Y02832D01*
X0037989D01*
Y02828D01*
X0037589D01*
Y0282D01*
X0037989D01*
X0047989D02*
Y02816D01*
X0048789D01*
Y0282D01*
X0049189D01*
Y02828D01*
X0048789D01*
Y02832D01*
X0047989D01*
Y02828D01*
X0047589D01*
Y0282D01*
X0047989D01*
X0037989Y0272D02*
Y02716D01*
X0038789D01*
Y0272D01*
X0039189D01*
Y02728D01*
X0038789D01*
Y02732D01*
X0037989D01*
Y02728D01*
X0037589D01*
Y0272D01*
X0037989D01*
X0047989D02*
Y02716D01*
X0048789D01*
Y0272D01*
X0049189D01*
Y02728D01*
X0048789D01*
Y02732D01*
X0047989D01*
Y02728D01*
X0047589D01*
Y0272D01*
X0047989D01*
X0037989Y0262D02*
Y02616D01*
X0038789D01*
Y0262D01*
X0039189D01*
Y02628D01*
X0038789D01*
Y02632D01*
X0037989D01*
Y02628D01*
X0037589D01*
Y0262D01*
X0037989D01*
X0047989D02*
Y02616D01*
X0048789D01*
Y0262D01*
X0049189D01*
Y02628D01*
X0048789D01*
Y02632D01*
X0047989D01*
Y02628D01*
X0047589D01*
Y0262D01*
X0047989D01*
X0037989Y0252D02*
Y02516D01*
X0038789D01*
Y0252D01*
X0039189D01*
Y02528D01*
X0038789D01*
Y02532D01*
X0037989D01*
Y02528D01*
X0037589D01*
Y0252D01*
X0037989D01*
X0047989D02*
Y02516D01*
X0048789D01*
Y0252D01*
X0049189D01*
Y02528D01*
X0048789D01*
Y02532D01*
X0047989D01*
Y02528D01*
X0047589D01*
Y0252D01*
X0047989D01*
X0037989Y0242D02*
Y02416D01*
X0038789D01*
Y0242D01*
X0039189D01*
Y02428D01*
X0038789D01*
Y02432D01*
X0037989D01*
Y02428D01*
X0037589D01*
Y0242D01*
X0037989D01*
X0047989D02*
Y02416D01*
X0048789D01*
Y0242D01*
X0049189D01*
Y02428D01*
X0048789D01*
Y02432D01*
X0047989D01*
Y02428D01*
X0047589D01*
Y0242D01*
X0047989D01*
X0037989Y0232D02*
Y02316D01*
X0038789D01*
Y0232D01*
X0039189D01*
Y02328D01*
X0038789D01*
Y02332D01*
X0037989D01*
Y02328D01*
X0037589D01*
Y0232D01*
X0037989D01*
X0047989D02*
Y02316D01*
X0048789D01*
Y0232D01*
X0049189D01*
Y02328D01*
X0048789D01*
Y02332D01*
X0047989D01*
Y02328D01*
X0047589D01*
Y0232D01*
X0047989D01*
X0037989Y0222D02*
Y02216D01*
X0038789D01*
Y0222D01*
X0039189D01*
Y02228D01*
X0038789D01*
Y02232D01*
X0037989D01*
Y02228D01*
X0037589D01*
Y0222D01*
X0037989D01*
X0047989D02*
Y02216D01*
X0048789D01*
Y0222D01*
X0049189D01*
Y02228D01*
X0048789D01*
Y02232D01*
X0047989D01*
Y02228D01*
X0047589D01*
Y0222D01*
X0047989D01*
X0037989Y0212D02*
Y02116D01*
X0038789D01*
Y0212D01*
X0039189D01*
Y02128D01*
X0038789D01*
Y02132D01*
X0037989D01*
Y02128D01*
X0037589D01*
Y0212D01*
X0037989D01*
X0047989D02*
Y02116D01*
X0048789D01*
Y0212D01*
X0049189D01*
Y02128D01*
X0048789D01*
Y02132D01*
X0047989D01*
Y02128D01*
X0047589D01*
Y0212D01*
X0047989D01*
X0037989Y0202D02*
Y02016D01*
X0038789D01*
Y0202D01*
X0039189D01*
Y02028D01*
X0038789D01*
Y02032D01*
X0037989D01*
Y02028D01*
X0037589D01*
Y0202D01*
X0037989D01*
X0047989D02*
Y02016D01*
X0048789D01*
Y0202D01*
X0049189D01*
Y02028D01*
X0048789D01*
Y02032D01*
X0047989D01*
Y02028D01*
X0047589D01*
Y0202D01*
X0047989D01*
X0037989Y0192D02*
Y01916D01*
X0038789D01*
Y0192D01*
X0039189D01*
Y01928D01*
X0038789D01*
Y01932D01*
X0037989D01*
Y01928D01*
X0037589D01*
Y0192D01*
X0037989D01*
X0047989D02*
Y01916D01*
X0048789D01*
Y0192D01*
X0049189D01*
Y01928D01*
X0048789D01*
Y01932D01*
X0047989D01*
Y01928D01*
X0047589D01*
Y0192D01*
X0047989D01*
X0037989Y0182D02*
Y01816D01*
X0038789D01*
Y0182D01*
X0039189D01*
Y01828D01*
X0038789D01*
Y01832D01*
X0037989D01*
Y01828D01*
X0037589D01*
Y0182D01*
X0037989D01*
X0047989D02*
Y01816D01*
X0048789D01*
Y0182D01*
X0049189D01*
Y01828D01*
X0048789D01*
Y01832D01*
X0047989D01*
Y01828D01*
X0047589D01*
Y0182D01*
X0047989D01*
X0037989Y0172D02*
Y01716D01*
X0038789D01*
Y0172D01*
X0039189D01*
Y01728D01*
X0038789D01*
Y01732D01*
X0037989D01*
Y01728D01*
X0037589D01*
Y0172D01*
X0037989D01*
X0047989D02*
Y01716D01*
X0048789D01*
Y0172D01*
X0049189D01*
Y01728D01*
X0048789D01*
Y01732D01*
X0047989D01*
Y01728D01*
X0047589D01*
Y0172D01*
X0047989D01*
X0037989Y0162D02*
Y01616D01*
X0038789D01*
Y0162D01*
X0039189D01*
Y01628D01*
X0038789D01*
Y01632D01*
X0037989D01*
Y01628D01*
X0037589D01*
Y0162D01*
X0037989D01*
X0047989D02*
Y01616D01*
X0048789D01*
Y0162D01*
X0049189D01*
Y01628D01*
X0048789D01*
Y01632D01*
X0047989D01*
Y01628D01*
X0047589D01*
Y0162D01*
X0047989D01*
Y0152D02*
Y01516D01*
X0048789D01*
Y0152D01*
X0049189D01*
Y01528D01*
X0048789D01*
Y01532D01*
X0047989D01*
Y01528D01*
X0047589D01*
Y0152D01*
X0047989D01*
X0277989Y0332D02*
Y03316D01*
X0278789D01*
Y0332D01*
X0279189D01*
Y03328D01*
X0278789D01*
Y03332D01*
X0277989D01*
Y03328D01*
X0277589D01*
Y0332D01*
X0277989D01*
Y0152D02*
Y01516D01*
X0278789D01*
Y0152D01*
X0279189D01*
Y01528D01*
X0278789D01*
Y01532D01*
X0277989D01*
Y01528D01*
X0277589D01*
Y0152D01*
X0277989D01*
X0287989Y0332D02*
Y03316D01*
X0288789D01*
Y0332D01*
X0289189D01*
Y03328D01*
X0288789D01*
Y03332D01*
X0287989D01*
Y03328D01*
X0287589D01*
Y0332D01*
X0287989D01*
X0277989Y0322D02*
Y03216D01*
X0278789D01*
Y0322D01*
X0279189D01*
Y03228D01*
X0278789D01*
Y03232D01*
X0277989D01*
Y03228D01*
X0277589D01*
Y0322D01*
X0277989D01*
X0287989D02*
Y03216D01*
X0288789D01*
Y0322D01*
X0289189D01*
Y03228D01*
X0288789D01*
Y03232D01*
X0287989D01*
Y03228D01*
X0287589D01*
Y0322D01*
X0287989D01*
X0277989Y0312D02*
Y03116D01*
X0278789D01*
Y0312D01*
X0279189D01*
Y03128D01*
X0278789D01*
Y03132D01*
X0277989D01*
Y03128D01*
X0277589D01*
Y0312D01*
X0277989D01*
X0287989D02*
Y03116D01*
X0288789D01*
Y0312D01*
X0289189D01*
Y03128D01*
X0288789D01*
Y03132D01*
X0287989D01*
Y03128D01*
X0287589D01*
Y0312D01*
X0287989D01*
X0277989Y0302D02*
Y03016D01*
X0278789D01*
Y0302D01*
X0279189D01*
Y03028D01*
X0278789D01*
Y03032D01*
X0277989D01*
Y03028D01*
X0277589D01*
Y0302D01*
X0277989D01*
X0287989D02*
Y03016D01*
X0288789D01*
Y0302D01*
X0289189D01*
Y03028D01*
X0288789D01*
Y03032D01*
X0287989D01*
Y03028D01*
X0287589D01*
Y0302D01*
X0287989D01*
X0277989Y0292D02*
Y02916D01*
X0278789D01*
Y0292D01*
X0279189D01*
Y02928D01*
X0278789D01*
Y02932D01*
X0277989D01*
Y02928D01*
X0277589D01*
Y0292D01*
X0277989D01*
X0287989D02*
Y02916D01*
X0288789D01*
Y0292D01*
X0289189D01*
Y02928D01*
X0288789D01*
Y02932D01*
X0287989D01*
Y02928D01*
X0287589D01*
Y0292D01*
X0287989D01*
X0277989Y0282D02*
Y02816D01*
X0278789D01*
Y0282D01*
X0279189D01*
Y02828D01*
X0278789D01*
Y02832D01*
X0277989D01*
Y02828D01*
X0277589D01*
Y0282D01*
X0277989D01*
X0287989D02*
Y02816D01*
X0288789D01*
Y0282D01*
X0289189D01*
Y02828D01*
X0288789D01*
Y02832D01*
X0287989D01*
Y02828D01*
X0287589D01*
Y0282D01*
X0287989D01*
X0277989Y0272D02*
Y02716D01*
X0278789D01*
Y0272D01*
X0279189D01*
Y02728D01*
X0278789D01*
Y02732D01*
X0277989D01*
Y02728D01*
X0277589D01*
Y0272D01*
X0277989D01*
X0287989D02*
Y02716D01*
X0288789D01*
Y0272D01*
X0289189D01*
Y02728D01*
X0288789D01*
Y02732D01*
X0287989D01*
Y02728D01*
X0287589D01*
Y0272D01*
X0287989D01*
X0277989Y0262D02*
Y02616D01*
X0278789D01*
Y0262D01*
X0279189D01*
Y02628D01*
X0278789D01*
Y02632D01*
X0277989D01*
Y02628D01*
X0277589D01*
Y0262D01*
X0277989D01*
X0287989D02*
Y02616D01*
X0288789D01*
Y0262D01*
X0289189D01*
Y02628D01*
X0288789D01*
Y02632D01*
X0287989D01*
Y02628D01*
X0287589D01*
Y0262D01*
X0287989D01*
X0277989Y0252D02*
Y02516D01*
X0278789D01*
Y0252D01*
X0279189D01*
Y02528D01*
X0278789D01*
Y02532D01*
X0277989D01*
Y02528D01*
X0277589D01*
Y0252D01*
X0277989D01*
X0287989D02*
Y02516D01*
X0288789D01*
Y0252D01*
X0289189D01*
Y02528D01*
X0288789D01*
Y02532D01*
X0287989D01*
Y02528D01*
X0287589D01*
Y0252D01*
X0287989D01*
X0277989Y0242D02*
Y02416D01*
X0278789D01*
Y0242D01*
X0279189D01*
Y02428D01*
X0278789D01*
Y02432D01*
X0277989D01*
Y02428D01*
X0277589D01*
Y0242D01*
X0277989D01*
X0287989D02*
Y02416D01*
X0288789D01*
Y0242D01*
X0289189D01*
Y02428D01*
X0288789D01*
Y02432D01*
X0287989D01*
Y02428D01*
X0287589D01*
Y0242D01*
X0287989D01*
X0277989Y0232D02*
Y02316D01*
X0278789D01*
Y0232D01*
X0279189D01*
Y02328D01*
X0278789D01*
Y02332D01*
X0277989D01*
Y02328D01*
X0277589D01*
Y0232D01*
X0277989D01*
X0287989D02*
Y02316D01*
X0288789D01*
Y0232D01*
X0289189D01*
Y02328D01*
X0288789D01*
Y02332D01*
X0287989D01*
Y02328D01*
X0287589D01*
Y0232D01*
X0287989D01*
X0277989Y0222D02*
Y02216D01*
X0278789D01*
Y0222D01*
X0279189D01*
Y02228D01*
X0278789D01*
Y02232D01*
X0277989D01*
Y02228D01*
X0277589D01*
Y0222D01*
X0277989D01*
X0287989D02*
Y02216D01*
X0288789D01*
Y0222D01*
X0289189D01*
Y02228D01*
X0288789D01*
Y02232D01*
X0287989D01*
Y02228D01*
X0287589D01*
Y0222D01*
X0287989D01*
X0277989Y0212D02*
Y02116D01*
X0278789D01*
Y0212D01*
X0279189D01*
Y02128D01*
X0278789D01*
Y02132D01*
X0277989D01*
Y02128D01*
X0277589D01*
Y0212D01*
X0277989D01*
X0287989D02*
Y02116D01*
X0288789D01*
Y0212D01*
X0289189D01*
Y02128D01*
X0288789D01*
Y02132D01*
X0287989D01*
Y02128D01*
X0287589D01*
Y0212D01*
X0287989D01*
X0277989Y0202D02*
Y02016D01*
X0278789D01*
Y0202D01*
X0279189D01*
Y02028D01*
X0278789D01*
Y02032D01*
X0277989D01*
Y02028D01*
X0277589D01*
Y0202D01*
X0277989D01*
X0287989D02*
Y02016D01*
X0288789D01*
Y0202D01*
X0289189D01*
Y02028D01*
X0288789D01*
Y02032D01*
X0287989D01*
Y02028D01*
X0287589D01*
Y0202D01*
X0287989D01*
X0277989Y0192D02*
Y01916D01*
X0278789D01*
Y0192D01*
X0279189D01*
Y01928D01*
X0278789D01*
Y01932D01*
X0277989D01*
Y01928D01*
X0277589D01*
Y0192D01*
X0277989D01*
X0287989D02*
Y01916D01*
X0288789D01*
Y0192D01*
X0289189D01*
Y01928D01*
X0288789D01*
Y01932D01*
X0287989D01*
Y01928D01*
X0287589D01*
Y0192D01*
X0287989D01*
X0277989Y0182D02*
Y01816D01*
X0278789D01*
Y0182D01*
X0279189D01*
Y01828D01*
X0278789D01*
Y01832D01*
X0277989D01*
Y01828D01*
X0277589D01*
Y0182D01*
X0277989D01*
Y0172D02*
Y01716D01*
X0278789D01*
Y0172D01*
X0279189D01*
Y01728D01*
X0278789D01*
Y01732D01*
X0277989D01*
Y01728D01*
X0277589D01*
Y0172D01*
X0277989D01*
X0287989D02*
Y01716D01*
X0288789D01*
Y0172D01*
X0289189D01*
Y01728D01*
X0288789D01*
Y01732D01*
X0287989D01*
Y01728D01*
X0287589D01*
Y0172D01*
X0287989D01*
X0277989Y0162D02*
Y01616D01*
X0278789D01*
Y0162D01*
X0279189D01*
Y01628D01*
X0278789D01*
Y01632D01*
X0277989D01*
Y01628D01*
X0277589D01*
Y0162D01*
X0277989D01*
X0287989D02*
Y01616D01*
X0288789D01*
Y0162D01*
X0289189D01*
Y01628D01*
X0288789D01*
Y01632D01*
X0287989D01*
Y01628D01*
X0287589D01*
Y0162D01*
X0287989D01*
Y0152D02*
Y01516D01*
X0288789D01*
Y0152D01*
X0289189D01*
Y01528D01*
X0288789D01*
Y01532D01*
X0287989D01*
Y01528D01*
X0287589D01*
Y0152D01*
X0287989D01*
Y0182D02*
Y01816D01*
X0288789D01*
Y0182D01*
X0289189D01*
Y01828D01*
X0288789D01*
Y01832D01*
X0287989D01*
Y01828D01*
X0287589D01*
Y0182D01*
X0287989D01*
X0353869Y0425208D02*
X0354269D01*
X0354669Y0425608D01*
X0355069Y0425208D01*
X0355469D01*
Y0425608D01*
X0355069Y0426008D01*
X0355469Y0426408D01*
Y0426808D01*
X0355069D01*
X0354669Y0426408D01*
X0354269Y0426808D01*
X0353869D01*
Y0426408D01*
X0354269Y0426008D01*
X0353869Y0425608D01*
Y0425208D01*
X0196444Y0143688D02*
X0196844D01*
X0197244Y0144088D01*
X0197644Y0143688D01*
X0198044D01*
Y0144088D01*
X0197644Y0144488D01*
X0198044Y0144888D01*
Y0145288D01*
X0197644D01*
X0197244Y0144888D01*
X0196844Y0145288D01*
X0196444D01*
Y0144888D01*
X0196844Y0144488D01*
X0196444Y0144088D01*
Y0143688D01*
X0353869Y0143712D02*
X0354269D01*
X0354669Y0144112D01*
X0355069Y0143712D01*
X0355469D01*
Y0144112D01*
X0355069Y0144512D01*
X0355469Y0144912D01*
Y0145312D01*
X0355069D01*
X0354669Y0144912D01*
X0354269Y0145312D01*
X0353869D01*
Y0144912D01*
X0354269Y0144512D01*
X0353869Y0144112D01*
Y0143712D01*
X0671109Y0336515D02*
X067191Y0337315D01*
X067271Y0336515D01*
X067191Y0335715D01*
X0671109Y0336515D01*
X0160184Y0474968D02*
Y0476568D01*
X0161784D01*
Y0474968D01*
X0160184D01*
X0160584Y0475368D02*
Y0476168D01*
X0161384D01*
Y0475368D01*
X0160584D01*
X0160184Y01172D02*
Y01188D01*
X0161784D01*
Y01172D01*
X0160184D01*
X0160584Y01176D02*
Y01184D01*
X0161384D01*
Y01176D01*
X0160584D01*
X03348Y03286D02*
X0334Y03302D01*
X03356D01*
X03348Y03286D01*
Y0329D02*
X03344Y03298D01*
X03352D01*
X03348Y0329D01*
X03301Y03151D02*
X03293Y03167D01*
X03309D01*
X03301Y03151D01*
Y03155D02*
X03297Y03163D01*
X03305D01*
X03301Y03155D01*
X03298Y03491D02*
X0329Y03507D01*
X03306D01*
X03298Y03491D01*
Y03495D02*
X03294Y03503D01*
X03302D01*
X03298Y03495D01*
X0287Y04027D02*
X02862Y04043D01*
X02878D01*
X0287Y04027D01*
Y04031D02*
X02866Y04039D01*
X02874D01*
X0287Y04031D01*
X03329Y01473D02*
X03321Y01489D01*
X03337D01*
X03329Y01473D01*
Y01477D02*
X03325Y01485D01*
X03333D01*
X03329Y01477D01*
X03746Y0158D02*
X03738Y01596D01*
X03754D01*
X03746Y0158D01*
Y01584D02*
X03742Y01592D01*
X0375D01*
X03746Y01584D01*
X02599Y0163D02*
X02591Y01646D01*
X02607D01*
X02599Y0163D01*
Y01634D02*
X02595Y01642D01*
X02603D01*
X02599Y01634D01*
X02777Y01419D02*
X02769Y01435D01*
X02785D01*
X02777Y01419D01*
Y01423D02*
X02773Y01431D01*
X02781D01*
X02777Y01423D01*
X02821Y0142D02*
X02813Y01436D01*
X02829D01*
X02821Y0142D01*
Y01424D02*
X02817Y01432D01*
X02825D01*
X02821Y01424D01*
X02145Y01671D02*
X02137Y01687D01*
X02153D01*
X02145Y01671D01*
Y01675D02*
X02141Y01683D01*
X02149D01*
X02145Y01675D01*
X02106Y01709D02*
X02098Y01725D01*
X02114D01*
X02106Y01709D01*
Y01713D02*
X02102Y01721D01*
X0211D01*
X02106Y01713D01*
X03027Y01475D02*
X03019Y01491D01*
X03035D01*
X03027Y01475D01*
Y01479D02*
X03023Y01487D01*
X03031D01*
X03027Y01479D01*
X06593Y03572D02*
X06585Y03588D01*
X06601D01*
X06593Y03572D01*
Y03576D02*
X06589Y03584D01*
X06597D01*
X06593Y03576D01*
X06925Y03507D02*
X06917Y03523D01*
X06933D01*
X06925Y03507D01*
Y03511D02*
X06921Y03519D01*
X06929D01*
X06925Y03511D01*
X07154Y03576D02*
X07146Y03592D01*
X07162D01*
X07154Y03576D01*
Y0358D02*
X0715Y03588D01*
X07158D01*
X07154Y0358D01*
X06326Y03493D02*
X06318Y03509D01*
X06334D01*
X06326Y03493D01*
Y03497D02*
X06322Y03505D01*
X0633D01*
X06326Y03497D01*
X07026Y03627D02*
X07018Y03643D01*
X07034D01*
X07026Y03627D01*
Y03631D02*
X07022Y03639D01*
X0703D01*
X07026Y03631D01*
X03752Y0403D02*
X03744Y04046D01*
X0376D01*
X03752Y0403D01*
Y04034D02*
X03748Y04042D01*
X03756D01*
X03752Y04034D01*
X03078Y04122D02*
X0307Y04138D01*
X03086D01*
X03078Y04122D01*
Y04126D02*
X03074Y04134D01*
X03082D01*
X03078Y04126D01*
X03352Y02814D02*
X03344Y0283D01*
X0336D01*
X03352Y02814D01*
Y02818D02*
X03348Y02826D01*
X03356D01*
X03352Y02818D01*
X03077Y03779D02*
X03069Y03795D01*
X03085D01*
X03077Y03779D01*
Y03783D02*
X03073Y03791D01*
X03081D01*
X03077Y03783D01*
X03725Y03753D02*
X03717Y03769D01*
X03733D01*
X03725Y03753D01*
Y03757D02*
X03721Y03765D01*
X03729D01*
X03725Y03757D01*
X05381Y03339D02*
X05373Y03355D01*
X05389D01*
X05381Y03339D01*
Y03343D02*
X05377Y03351D01*
X05385D01*
X05381Y03343D01*
X0368Y02824D02*
X03672Y0284D01*
X03688D01*
X0368Y02824D01*
Y02828D02*
X03676Y02836D01*
X03684D01*
X0368Y02828D01*
X02178Y02517D02*
X0217Y02533D01*
X02186D01*
X02178Y02517D01*
Y02521D02*
X02174Y02529D01*
X02182D01*
X02178Y02521D01*
X0329642Y0286057D02*
X0328842Y0287657D01*
X0330442D01*
X0329642Y0286057D01*
Y0286457D02*
X0329242Y0287257D01*
X0330042D01*
X0329642Y0286457D01*
X0325Y02142D02*
X03242Y02158D01*
X03258D01*
X0325Y02142D01*
Y02146D02*
X03246Y02154D01*
X03254D01*
X0325Y02146D01*
Y02192D02*
X03242Y02208D01*
X03258D01*
X0325Y02192D01*
Y02196D02*
X03246Y02204D01*
X03254D01*
X0325Y02196D01*
X032Y02192D02*
X03192Y02208D01*
X03208D01*
X032Y02192D01*
Y02196D02*
X03196Y02204D01*
X03204D01*
X032Y02196D01*
X03754Y03778D02*
X03746Y03794D01*
X03762D01*
X03754Y03778D01*
Y03782D02*
X0375Y0379D01*
X03758D01*
X03754Y03782D01*
X03016Y03726D02*
X03008Y03742D01*
X03024D01*
X03016Y03726D01*
Y0373D02*
X03012Y03738D01*
X0302D01*
X03016Y0373D01*
X01829Y02324D02*
X01821Y0234D01*
X01837D01*
X01829Y02324D01*
Y02328D02*
X01825Y02336D01*
X01833D01*
X01829Y02328D01*
X01788Y02231D02*
X0178Y02247D01*
X01796D01*
X01788Y02231D01*
Y02235D02*
X01784Y02243D01*
X01792D01*
X01788Y02235D01*
X046Y01692D02*
X04592Y01708D01*
X04608D01*
X046Y01692D01*
Y01696D02*
X04596Y01704D01*
X04604D01*
X046Y01696D01*
X0455Y01692D02*
X04542Y01708D01*
X04558D01*
X0455Y01692D01*
Y01696D02*
X04546Y01704D01*
X04554D01*
X0455Y01696D01*
Y01742D02*
X04542Y01758D01*
X04558D01*
X0455Y01742D01*
Y01746D02*
X04546Y01754D01*
X04554D01*
X0455Y01746D01*
X046Y01742D02*
X04592Y01758D01*
X04608D01*
X046Y01742D01*
Y01746D02*
X04596Y01754D01*
X04604D01*
X046Y01746D01*
X0335Y02192D02*
X03342Y02208D01*
X03358D01*
X0335Y02192D01*
Y02196D02*
X03346Y02204D01*
X03354D01*
X0335Y02196D01*
Y02142D02*
X03342Y02158D01*
X03358D01*
X0335Y02142D01*
Y02146D02*
X03346Y02154D01*
X03354D01*
X0335Y02146D01*
Y02092D02*
X03342Y02108D01*
X03358D01*
X0335Y02092D01*
Y02096D02*
X03346Y02104D01*
X03354D01*
X0335Y02096D01*
Y02042D02*
X03342Y02058D01*
X03358D01*
X0335Y02042D01*
Y02046D02*
X03346Y02054D01*
X03354D01*
X0335Y02046D01*
X033Y02042D02*
X03292Y02058D01*
X03308D01*
X033Y02042D01*
Y02046D02*
X03296Y02054D01*
X03304D01*
X033Y02046D01*
Y02092D02*
X03292Y02108D01*
X03308D01*
X033Y02092D01*
Y02096D02*
X03296Y02104D01*
X03304D01*
X033Y02096D01*
Y02142D02*
X03292Y02158D01*
X03308D01*
X033Y02142D01*
Y02146D02*
X03296Y02154D01*
X03304D01*
X033Y02146D01*
Y02192D02*
X03292Y02208D01*
X03308D01*
X033Y02192D01*
Y02196D02*
X03296Y02204D01*
X03304D01*
X033Y02196D01*
X0325Y02092D02*
X03242Y02108D01*
X03258D01*
X0325Y02092D01*
Y02096D02*
X03246Y02104D01*
X03254D01*
X0325Y02096D01*
Y02042D02*
X03242Y02058D01*
X03258D01*
X0325Y02042D01*
Y02046D02*
X03246Y02054D01*
X03254D01*
X0325Y02046D01*
X032Y02042D02*
X03192Y02058D01*
X03208D01*
X032Y02042D01*
Y02046D02*
X03196Y02054D01*
X03204D01*
X032Y02046D01*
Y02092D02*
X03192Y02108D01*
X03208D01*
X032Y02092D01*
Y02096D02*
X03196Y02104D01*
X03204D01*
X032Y02096D01*
Y02142D02*
X03192Y02158D01*
X03208D01*
X032Y02142D01*
Y02146D02*
X03196Y02154D01*
X03204D01*
X032Y02146D01*
X0359Y0414775D02*
X03594Y0415175D01*
X03598D01*
X03594Y0415575D01*
X03598Y0415975D01*
X03594D01*
X0359Y0416375D01*
X03586Y0415975D01*
X03582D01*
X03586Y0415575D01*
X03582Y0415175D01*
X03586D01*
X0359Y0414775D01*
Y0415175D02*
X03592Y0415375D01*
X03594D01*
X03592Y0415575D01*
X03594Y0415775D01*
X03592D01*
X0359Y0415975D01*
X03588Y0415775D01*
X03586D01*
X03588Y0415575D01*
X03586Y0415375D01*
X03588D01*
X0359Y0415175D01*
X0344236Y0420877D02*
X0344636Y0421277D01*
X0345036D01*
X0344636Y0421677D01*
X0345036Y0422077D01*
X0344636D01*
X0344236Y0422477D01*
X0343836Y0422077D01*
X0343436D01*
X0343836Y0421677D01*
X0343436Y0421277D01*
X0343836D01*
X0344236Y0420877D01*
Y0421277D02*
X0344436Y0421477D01*
X0344636D01*
X0344436Y0421677D01*
X0344636Y0421877D01*
X0344436D01*
X0344236Y0422077D01*
X0344036Y0421877D01*
X0343836D01*
X0344036Y0421677D01*
X0343836Y0421477D01*
X0344036D01*
X0344236Y0421277D01*
X0350339Y0435641D02*
X0350739Y0436041D01*
X0351139D01*
X0350739Y0436441D01*
X0351139Y0436841D01*
X0350739D01*
X0350339Y0437241D01*
X0349939Y0436841D01*
X0349539D01*
X0349939Y0436441D01*
X0349539Y0436041D01*
X0349939D01*
X0350339Y0435641D01*
Y0436041D02*
X0350539Y0436241D01*
X0350739D01*
X0350539Y0436441D01*
X0350739Y0436641D01*
X0350539D01*
X0350339Y0436841D01*
X0350139Y0436641D01*
X0349939D01*
X0350139Y0436441D01*
X0349939Y0436241D01*
X0350139D01*
X0350339Y0436041D01*
X0365102Y0429539D02*
X0365502Y0429939D01*
X0365902D01*
X0365502Y0430339D01*
X0365902Y0430739D01*
X0365502D01*
X0365102Y0431139D01*
X0364702Y0430739D01*
X0364302D01*
X0364702Y0430339D01*
X0364302Y0429939D01*
X0364702D01*
X0365102Y0429539D01*
Y0429939D02*
X0365302Y0430139D01*
X0365502D01*
X0365302Y0430339D01*
X0365502Y0430539D01*
X0365302D01*
X0365102Y0430739D01*
X0364902Y0430539D01*
X0364702D01*
X0364902Y0430339D01*
X0364702Y0430139D01*
X0364902D01*
X0365102Y0429939D01*
X0344236Y0429539D02*
X0344636Y0429939D01*
X0345036D01*
X0344636Y0430339D01*
X0345036Y0430739D01*
X0344636D01*
X0344236Y0431139D01*
X0343836Y0430739D01*
X0343436D01*
X0343836Y0430339D01*
X0343436Y0429939D01*
X0343836D01*
X0344236Y0429539D01*
Y0429939D02*
X0344436Y0430139D01*
X0344636D01*
X0344436Y0430339D01*
X0344636Y0430539D01*
X0344436D01*
X0344236Y0430739D01*
X0344036Y0430539D01*
X0343836D01*
X0344036Y0430339D01*
X0343836Y0430139D01*
X0344036D01*
X0344236Y0429939D01*
X0359Y0435641D02*
X03594Y0436041D01*
X03598D01*
X03594Y0436441D01*
X03598Y0436841D01*
X03594D01*
X0359Y0437241D01*
X03586Y0436841D01*
X03582D01*
X03586Y0436441D01*
X03582Y0436041D01*
X03586D01*
X0359Y0435641D01*
Y0436041D02*
X03592Y0436241D01*
X03594D01*
X03592Y0436441D01*
X03594Y0436641D01*
X03592D01*
X0359Y0436841D01*
X03588Y0436641D01*
X03586D01*
X03588Y0436441D01*
X03586Y0436241D01*
X03588D01*
X0359Y0436041D01*
X0365102Y0420877D02*
X0365502Y0421277D01*
X0365902D01*
X0365502Y0421677D01*
X0365902Y0422077D01*
X0365502D01*
X0365102Y0422477D01*
X0364702Y0422077D01*
X0364302D01*
X0364702Y0421677D01*
X0364302Y0421277D01*
X0364702D01*
X0365102Y0420877D01*
Y0421277D02*
X0365302Y0421477D01*
X0365502D01*
X0365302Y0421677D01*
X0365502Y0421877D01*
X0365302D01*
X0365102Y0422077D01*
X0364902Y0421877D01*
X0364702D01*
X0364902Y0421677D01*
X0364702Y0421477D01*
X0364902D01*
X0365102Y0421277D01*
X0350339Y0414775D02*
X0350739Y0415175D01*
X0351139D01*
X0350739Y0415575D01*
X0351139Y0415975D01*
X0350739D01*
X0350339Y0416375D01*
X0349939Y0415975D01*
X0349539D01*
X0349939Y0415575D01*
X0349539Y0415175D01*
X0349939D01*
X0350339Y0414775D01*
Y0415175D02*
X0350539Y0415375D01*
X0350739D01*
X0350539Y0415575D01*
X0350739Y0415775D01*
X0350539D01*
X0350339Y0415975D01*
X0350139Y0415775D01*
X0349939D01*
X0350139Y0415575D01*
X0349939Y0415375D01*
X0350139D01*
X0350339Y0415175D01*
X0359Y0133279D02*
X03594Y0133679D01*
X03598D01*
X03594Y0134079D01*
X03598Y0134479D01*
X03594D01*
X0359Y0134879D01*
X03586Y0134479D01*
X03582D01*
X03586Y0134079D01*
X03582Y0133679D01*
X03586D01*
X0359Y0133279D01*
Y0133679D02*
X03592Y0133879D01*
X03594D01*
X03592Y0134079D01*
X03594Y0134279D01*
X03592D01*
X0359Y0134479D01*
X03588Y0134279D01*
X03586D01*
X03588Y0134079D01*
X03586Y0133879D01*
X03588D01*
X0359Y0133679D01*
X0344236Y0139381D02*
X0344636Y0139781D01*
X0345036D01*
X0344636Y0140181D01*
X0345036Y0140581D01*
X0344636D01*
X0344236Y0140981D01*
X0343836Y0140581D01*
X0343436D01*
X0343836Y0140181D01*
X0343436Y0139781D01*
X0343836D01*
X0344236Y0139381D01*
Y0139781D02*
X0344436Y0139981D01*
X0344636D01*
X0344436Y0140181D01*
X0344636Y0140381D01*
X0344436D01*
X0344236Y0140581D01*
X0344036Y0140381D01*
X0343836D01*
X0344036Y0140181D01*
X0343836Y0139981D01*
X0344036D01*
X0344236Y0139781D01*
X0350339Y0154145D02*
X0350739Y0154545D01*
X0351139D01*
X0350739Y0154945D01*
X0351139Y0155345D01*
X0350739D01*
X0350339Y0155745D01*
X0349939Y0155345D01*
X0349539D01*
X0349939Y0154945D01*
X0349539Y0154545D01*
X0349939D01*
X0350339Y0154145D01*
Y0154545D02*
X0350539Y0154745D01*
X0350739D01*
X0350539Y0154945D01*
X0350739Y0155145D01*
X0350539D01*
X0350339Y0155345D01*
X0350139Y0155145D01*
X0349939D01*
X0350139Y0154945D01*
X0349939Y0154745D01*
X0350139D01*
X0350339Y0154545D01*
X0365102Y0148043D02*
X0365502Y0148442D01*
X0365902D01*
X0365502Y0148843D01*
X0365902Y0149242D01*
X0365502D01*
X0365102Y0149643D01*
X0364702Y0149242D01*
X0364302D01*
X0364702Y0148843D01*
X0364302Y0148442D01*
X0364702D01*
X0365102Y0148043D01*
Y0148442D02*
X0365302Y0148643D01*
X0365502D01*
X0365302Y0148843D01*
X0365502Y0149042D01*
X0365302D01*
X0365102Y0149242D01*
X0364902Y0149042D01*
X0364702D01*
X0364902Y0148843D01*
X0364702Y0148643D01*
X0364902D01*
X0365102Y0148442D01*
X0344236Y0148043D02*
X0344636Y0148442D01*
X0345036D01*
X0344636Y0148843D01*
X0345036Y0149242D01*
X0344636D01*
X0344236Y0149643D01*
X0343836Y0149242D01*
X0343436D01*
X0343836Y0148843D01*
X0343436Y0148442D01*
X0343836D01*
X0344236Y0148043D01*
Y0148442D02*
X0344436Y0148643D01*
X0344636D01*
X0344436Y0148843D01*
X0344636Y0149042D01*
X0344436D01*
X0344236Y0149242D01*
X0344036Y0149042D01*
X0343836D01*
X0344036Y0148843D01*
X0343836Y0148643D01*
X0344036D01*
X0344236Y0148442D01*
X0359Y0154145D02*
X03594Y0154545D01*
X03598D01*
X03594Y0154945D01*
X03598Y0155345D01*
X03594D01*
X0359Y0155745D01*
X03586Y0155345D01*
X03582D01*
X03586Y0154945D01*
X03582Y0154545D01*
X03586D01*
X0359Y0154145D01*
Y0154545D02*
X03592Y0154745D01*
X03594D01*
X03592Y0154945D01*
X03594Y0155145D01*
X03592D01*
X0359Y0155345D01*
X03588Y0155145D01*
X03586D01*
X03588Y0154945D01*
X03586Y0154745D01*
X03588D01*
X0359Y0154545D01*
X0365102Y0139381D02*
X0365502Y0139781D01*
X0365902D01*
X0365502Y0140181D01*
X0365902Y0140581D01*
X0365502D01*
X0365102Y0140981D01*
X0364702Y0140581D01*
X0364302D01*
X0364702Y0140181D01*
X0364302Y0139781D01*
X0364702D01*
X0365102Y0139381D01*
Y0139781D02*
X0365302Y0139981D01*
X0365502D01*
X0365302Y0140181D01*
X0365502Y0140381D01*
X0365302D01*
X0365102Y0140581D01*
X0364902Y0140381D01*
X0364702D01*
X0364902Y0140181D01*
X0364702Y0139981D01*
X0364902D01*
X0365102Y0139781D01*
X0350339Y0133279D02*
X0350739Y0133679D01*
X0351139D01*
X0350739Y0134079D01*
X0351139Y0134479D01*
X0350739D01*
X0350339Y0134879D01*
X0349939Y0134479D01*
X0349539D01*
X0349939Y0134079D01*
X0349539Y0133679D01*
X0349939D01*
X0350339Y0133279D01*
Y0133679D02*
X0350539Y0133879D01*
X0350739D01*
X0350539Y0134079D01*
X0350739Y0134279D01*
X0350539D01*
X0350339Y0134479D01*
X0350139Y0134279D01*
X0349939D01*
X0350139Y0134079D01*
X0349939Y0133879D01*
X0350139D01*
X0350339Y0133679D01*
D119*
X05807Y03653D02*
G03*
X05807Y03653I-00008J0D01*
G01*
X02958Y044D02*
G03*
X02958Y044I-00008J0D01*
G01*
X03058D02*
G03*
X03058Y044I-00008J0D01*
G01*
X03358Y042D02*
G03*
X03358Y042I-00008J0D01*
G01*
X03258Y043D02*
G03*
X03258Y043I-00008J0D01*
G01*
X03358D02*
G03*
X03358Y043I-00008J0D01*
G01*
Y044D02*
G03*
X03358Y044I-00008J0D01*
G01*
X03258D02*
G03*
X03258Y044I-00008J0D01*
G01*
X03158D02*
G03*
X03158Y044I-00008J0D01*
G01*
X03058Y019D02*
G03*
X03058Y019I-00008J0D01*
G01*
Y023D02*
G03*
X03058Y023I-00008J0D01*
G01*
Y022D02*
G03*
X03058Y022I-00008J0D01*
G01*
Y021D02*
G03*
X03058Y021I-00008J0D01*
G01*
Y02D02*
G03*
X03058Y02I-00008J0D01*
G01*
X03008Y0195D02*
G03*
X03008Y0195I-00008J0D01*
G01*
Y0205D02*
G03*
X03008Y0205I-00008J0D01*
G01*
Y0215D02*
G03*
X03008Y0215I-00008J0D01*
G01*
Y0225D02*
G03*
X03008Y0225I-00008J0D01*
G01*
X05958Y0325D02*
G03*
X05958Y0325I-00008J0D01*
G01*
Y0335D02*
G03*
X05958Y0335I-00008J0D01*
G01*
Y0345D02*
G03*
X05958Y0345I-00008J0D01*
G01*
X06058D02*
G03*
X06058Y0345I-00008J0D01*
G01*
Y0335D02*
G03*
X06058Y0335I-00008J0D01*
G01*
Y0325D02*
G03*
X06058Y0325I-00008J0D01*
G01*
X06158D02*
G03*
X06158Y0325I-00008J0D01*
G01*
Y0335D02*
G03*
X06158Y0335I-00008J0D01*
G01*
Y0345D02*
G03*
X06158Y0345I-00008J0D01*
G01*
X03461Y02671D02*
G03*
X03461Y02671I-00008J0D01*
G01*
X01786Y01796D02*
G03*
X01786Y01796I-00008J0D01*
G01*
X0096546Y0288518D02*
G03*
X0096546Y0288518I-00008J0D01*
G01*
X01021Y0319411D02*
G03*
X01021Y0319411I-00008J0D01*
G01*
X01158Y03366D02*
G03*
X01158Y03366I-00008J0D01*
G01*
X0369Y04035D02*
G03*
X0369Y04035I-00008J0D01*
G01*
X02556Y02792D02*
G03*
X02556Y02792I-00008J0D01*
G01*
X03088Y03689D02*
G03*
X03088Y03689I-00008J0D01*
G01*
X0376784Y0181684D02*
G03*
X0376784Y0181684I-00008J0D01*
G01*
X03428Y02008D02*
G03*
X03428Y02008I-00008J0D01*
G01*
X02998Y02355D02*
G03*
X02998Y02355I-00008J0D01*
G01*
X03079Y02565D02*
G03*
X03079Y02565I-00008J0D01*
G01*
X01098Y02623D02*
G03*
X01098Y02623I-00008J0D01*
G01*
X03085Y03259D02*
G03*
X03085Y03259I-00008J0D01*
G01*
X04374Y03729D02*
G03*
X04374Y03729I-00008J0D01*
G01*
X04375Y03571D02*
G03*
X04375Y03571I-00008J0D01*
G01*
X0309609Y0294291D02*
G03*
X0309609Y0294291I-00008J0D01*
G01*
X02393Y03143D02*
G03*
X02393Y03143I-00008J0D01*
G01*
X02457Y02717D02*
G03*
X02457Y02717I-00008J0D01*
G01*
Y03202D02*
G03*
X02457Y03202I-00008J0D01*
G01*
X03823Y02858D02*
G03*
X03823Y02858I-00008J0D01*
G01*
X03618Y03219D02*
G03*
X03618Y03219I-00008J0D01*
G01*
X04166Y03114D02*
G03*
X04166Y03114I-00008J0D01*
G01*
X03768Y0341D02*
G03*
X03768Y0341I-00008J0D01*
G01*
X05528Y035D02*
G03*
X05528Y035I-00008J0D01*
G01*
X02276Y04044D02*
G03*
X02276Y04044I-00008J0D01*
G01*
D120*
X02954Y044D02*
G03*
X02954Y044I-00004J0D01*
G01*
X03054D02*
G03*
X03054Y044I-00004J0D01*
G01*
X03354Y042D02*
G03*
X03354Y042I-00004J0D01*
G01*
X03254Y043D02*
G03*
X03254Y043I-00004J0D01*
G01*
X03354D02*
G03*
X03354Y043I-00004J0D01*
G01*
Y044D02*
G03*
X03354Y044I-00004J0D01*
G01*
X03254D02*
G03*
X03254Y044I-00004J0D01*
G01*
X03154D02*
G03*
X03154Y044I-00004J0D01*
G01*
X03054Y019D02*
G03*
X03054Y019I-00004J0D01*
G01*
Y023D02*
G03*
X03054Y023I-00004J0D01*
G01*
Y022D02*
G03*
X03054Y022I-00004J0D01*
G01*
Y021D02*
G03*
X03054Y021I-00004J0D01*
G01*
Y02D02*
G03*
X03054Y02I-00004J0D01*
G01*
X03004Y0195D02*
G03*
X03004Y0195I-00004J0D01*
G01*
Y0205D02*
G03*
X03004Y0205I-00004J0D01*
G01*
Y0215D02*
G03*
X03004Y0215I-00004J0D01*
G01*
Y0225D02*
G03*
X03004Y0225I-00004J0D01*
G01*
X05954Y0325D02*
G03*
X05954Y0325I-00004J0D01*
G01*
Y0335D02*
G03*
X05954Y0335I-00004J0D01*
G01*
Y0345D02*
G03*
X05954Y0345I-00004J0D01*
G01*
X06054D02*
G03*
X06054Y0345I-00004J0D01*
G01*
Y0335D02*
G03*
X06054Y0335I-00004J0D01*
G01*
Y0325D02*
G03*
X06054Y0325I-00004J0D01*
G01*
X06154D02*
G03*
X06154Y0325I-00004J0D01*
G01*
Y0335D02*
G03*
X06154Y0335I-00004J0D01*
G01*
Y0345D02*
G03*
X06154Y0345I-00004J0D01*
G01*
X03457Y02671D02*
G03*
X03457Y02671I-00004J0D01*
G01*
X01782Y01796D02*
G03*
X01782Y01796I-00004J0D01*
G01*
X0096146Y0288518D02*
G03*
X0096146Y0288518I-00004J0D01*
G01*
X01017Y0319411D02*
G03*
X01017Y0319411I-00004J0D01*
G01*
X01154Y03366D02*
G03*
X01154Y03366I-00004J0D01*
G01*
X03686Y04035D02*
G03*
X03686Y04035I-00004J0D01*
G01*
X02552Y02792D02*
G03*
X02552Y02792I-00004J0D01*
G01*
X03084Y03689D02*
G03*
X03084Y03689I-00004J0D01*
G01*
X0376384Y0181684D02*
G03*
X0376384Y0181684I-00004J0D01*
G01*
X03424Y02008D02*
G03*
X03424Y02008I-00004J0D01*
G01*
X02994Y02355D02*
G03*
X02994Y02355I-00004J0D01*
G01*
X03075Y02565D02*
G03*
X03075Y02565I-00004J0D01*
G01*
X01094Y02623D02*
G03*
X01094Y02623I-00004J0D01*
G01*
X03081Y03259D02*
G03*
X03081Y03259I-00004J0D01*
G01*
X0437Y03729D02*
G03*
X0437Y03729I-00004J0D01*
G01*
X04371Y03571D02*
G03*
X04371Y03571I-00004J0D01*
G01*
X0309209Y0294291D02*
G03*
X0309209Y0294291I-00004J0D01*
G01*
X02389Y03143D02*
G03*
X02389Y03143I-00004J0D01*
G01*
X02453Y02717D02*
G03*
X02453Y02717I-00004J0D01*
G01*
Y03202D02*
G03*
X02453Y03202I-00004J0D01*
G01*
X03819Y02858D02*
G03*
X03819Y02858I-00004J0D01*
G01*
X03614Y03219D02*
G03*
X03614Y03219I-00004J0D01*
G01*
X04162Y03114D02*
G03*
X04162Y03114I-00004J0D01*
G01*
X03764Y0341D02*
G03*
X03764Y0341I-00004J0D01*
G01*
X05524Y035D02*
G03*
X05524Y035I-00004J0D01*
G01*
X02272Y04044D02*
G03*
X02272Y04044I-00004J0D01*
G01*
M02*
