G04*
G04 #@! TF.GenerationSoftware,Altium Limited,Altium Designer,21.3.2 (30)*
G04*
G04 Layer_Color=16711935*
%FSTAX25Y25*%
%MOIN*%
G70*
G04*
G04 #@! TF.SameCoordinates,BF941F2B-45D7-4960-A8E1-59923975AC68*
G04*
G04*
G04 #@! TF.FilePolarity,Negative*
G04*
G01*
G75*
%ADD42R,0.06312X0.13005*%
%ADD43R,0.06706X0.14186*%
%ADD53R,0.05918X0.04343*%
%ADD54R,0.13005X0.06312*%
%ADD55R,0.14186X0.06706*%
%ADD59R,0.83477X0.83477*%
%ADD60R,0.09461X0.09461*%
%ADD61R,0.07099X0.07099*%
%ADD62C,0.07099*%
%ADD63R,0.06737X0.06737*%
%ADD64C,0.06737*%
%ADD65C,0.09068*%
G04:AMPARAMS|DCode=66|XSize=90.68mil|YSize=90.68mil|CornerRadius=24.67mil|HoleSize=0mil|Usage=FLASHONLY|Rotation=90.000|XOffset=0mil|YOffset=0mil|HoleType=Round|Shape=RoundedRectangle|*
%AMROUNDEDRECTD66*
21,1,0.09068,0.04134,0,0,90.0*
21,1,0.04134,0.09068,0,0,90.0*
1,1,0.04934,0.02067,0.02067*
1,1,0.04934,0.02067,-0.02067*
1,1,0.04934,-0.02067,-0.02067*
1,1,0.04934,-0.02067,0.02067*
%
%ADD66ROUNDEDRECTD66*%
%ADD67R,0.06824X0.06824*%
%ADD68C,0.06824*%
%ADD70C,0.13398*%
G04:AMPARAMS|DCode=71|XSize=893.83mil|YSize=212.72mil|CornerRadius=75.65mil|HoleSize=0mil|Usage=FLASHONLY|Rotation=180.000|XOffset=0mil|YOffset=0mil|HoleType=Round|Shape=RoundedRectangle|*
%AMROUNDEDRECTD71*
21,1,0.89383,0.06142,0,0,180.0*
21,1,0.74252,0.21272,0,0,180.0*
1,1,0.15131,-0.37126,0.03071*
1,1,0.15131,0.37126,0.03071*
1,1,0.15131,0.37126,-0.03071*
1,1,0.15131,-0.37126,-0.03071*
%
%ADD71ROUNDEDRECTD71*%
%ADD72C,0.38202*%
%ADD73C,0.03950*%
%ADD74C,0.03162*%
%ADD75C,0.02769*%
%ADD76C,0.03398*%
%ADD110R,0.04343X0.05918*%
%ADD111R,0.07296X0.04540*%
%ADD112R,0.07296X0.13792*%
%ADD113C,0.28359*%
D42*
X0327559Y0126181D02*
D03*
X0301575D02*
D03*
X0383858Y0123819D02*
D03*
X0425591D02*
D03*
X026811Y0426087D02*
D03*
X0226378D02*
D03*
D43*
X0318504Y0148425D02*
D03*
X031063D02*
D03*
X0408662Y0146063D02*
D03*
X0416536D02*
D03*
X0400787D02*
D03*
X0392913D02*
D03*
X0243307Y0403842D02*
D03*
X0235433D02*
D03*
X0251181D02*
D03*
X0259055D02*
D03*
D53*
X05799Y0335039D02*
D03*
Y034252D02*
D03*
X05699Y0335039D02*
D03*
Y034252D02*
D03*
X03569Y02117D02*
D03*
Y021918D02*
D03*
Y020078D02*
D03*
Y01933D02*
D03*
X0345821Y0297047D02*
D03*
Y0304527D02*
D03*
X0338766Y0297047D02*
D03*
Y0304527D02*
D03*
X02196Y0279354D02*
D03*
Y0271874D02*
D03*
X02126Y0279354D02*
D03*
Y0271874D02*
D03*
X02196Y029166D02*
D03*
Y029914D02*
D03*
X02126Y0291674D02*
D03*
Y0299154D02*
D03*
X02414Y029914D02*
D03*
Y029166D02*
D03*
X02484D02*
D03*
Y029914D02*
D03*
X0338766Y034941D02*
D03*
Y035689D02*
D03*
X0345821Y034941D02*
D03*
Y035689D02*
D03*
D54*
X0384307Y0332283D02*
D03*
Y0374016D02*
D03*
X0384307Y0279921D02*
D03*
Y0321654D02*
D03*
D55*
X0362063Y0357087D02*
D03*
Y0364961D02*
D03*
Y0349213D02*
D03*
Y0341339D02*
D03*
X0362063Y0304724D02*
D03*
Y0312598D02*
D03*
Y029685D02*
D03*
Y0288976D02*
D03*
D59*
X0493408Y0319562D02*
D03*
D60*
X05799Y03653D02*
D03*
D61*
X03303Y01789D02*
D03*
X0353653Y01788D02*
D03*
X0363653Y01678D02*
D03*
X02559Y01325D02*
D03*
X02659Y01215D02*
D03*
X02794Y01325D02*
D03*
X02894Y01215D02*
D03*
X03403Y01679D02*
D03*
D62*
X03403Y01789D02*
D03*
X0363653Y01788D02*
D03*
X0353653Y01678D02*
D03*
X02659Y01325D02*
D03*
X02559Y01215D02*
D03*
X02894Y01325D02*
D03*
X02794Y01215D02*
D03*
X03303Y01679D02*
D03*
D63*
X0140687Y0291874D02*
D03*
D64*
Y0281874D02*
D03*
Y0271874D02*
D03*
Y0261874D02*
D03*
Y0251874D02*
D03*
Y0241874D02*
D03*
Y0231874D02*
D03*
Y0221874D02*
D03*
Y0211874D02*
D03*
X0150687D02*
D03*
X0160687D02*
D03*
X0170687D02*
D03*
X0180687D02*
D03*
X0190687D02*
D03*
X0200687D02*
D03*
Y0221874D02*
D03*
Y0231874D02*
D03*
Y0241874D02*
D03*
Y0251874D02*
D03*
Y0261874D02*
D03*
Y0271874D02*
D03*
Y0281874D02*
D03*
Y0291874D02*
D03*
D65*
X0449213Y0211382D02*
D03*
Y0251988D02*
D03*
D66*
Y0196382D02*
D03*
Y0236988D02*
D03*
D67*
X0038389Y03324D02*
D03*
X0278389D02*
D03*
D68*
X0038389Y01524D02*
D03*
X0048389Y03324D02*
D03*
X0038389Y03224D02*
D03*
X0048389D02*
D03*
X0038389Y03124D02*
D03*
X0048389D02*
D03*
X0038389Y03024D02*
D03*
X0048389D02*
D03*
X0038389Y02924D02*
D03*
X0048389D02*
D03*
X0038389Y02824D02*
D03*
X0048389D02*
D03*
X0038389Y02724D02*
D03*
X0048389D02*
D03*
X0038389Y02624D02*
D03*
X0048389D02*
D03*
X0038389Y02524D02*
D03*
X0048389D02*
D03*
X0038389Y02424D02*
D03*
X0048389D02*
D03*
X0038389Y02324D02*
D03*
X0048389D02*
D03*
X0038389Y02224D02*
D03*
X0048389D02*
D03*
X0038389Y02124D02*
D03*
X0048389D02*
D03*
X0038389Y02024D02*
D03*
X0048389D02*
D03*
X0038389Y01924D02*
D03*
X0048389D02*
D03*
X0038389Y01824D02*
D03*
X0048389D02*
D03*
X0038389Y01724D02*
D03*
X0048389D02*
D03*
X0038389Y01624D02*
D03*
X0048389D02*
D03*
Y01524D02*
D03*
X0278389D02*
D03*
X0288389Y03324D02*
D03*
X0278389Y03224D02*
D03*
X0288389D02*
D03*
X0278389Y03124D02*
D03*
X0288389D02*
D03*
X0278389Y03024D02*
D03*
X0288389D02*
D03*
X0278389Y02924D02*
D03*
X0288389D02*
D03*
X0278389Y02824D02*
D03*
X0288389D02*
D03*
X0278389Y02724D02*
D03*
X0288389D02*
D03*
X0278389Y02624D02*
D03*
X0288389D02*
D03*
X0278389Y02524D02*
D03*
X0288389D02*
D03*
X0278389Y02424D02*
D03*
X0288389D02*
D03*
X0278389Y02324D02*
D03*
X0288389D02*
D03*
X0278389Y02224D02*
D03*
X0288389D02*
D03*
X0278389Y02124D02*
D03*
X0288389D02*
D03*
X0278389Y02024D02*
D03*
X0288389D02*
D03*
X0278389Y01924D02*
D03*
X0288389D02*
D03*
X0278389Y01824D02*
D03*
Y01724D02*
D03*
X0288389D02*
D03*
X0278389Y01624D02*
D03*
X0288389D02*
D03*
Y01524D02*
D03*
Y01824D02*
D03*
D70*
X0197244Y0144488D02*
D03*
D71*
X067191Y0336515D02*
D03*
D72*
X0160984Y0475768D02*
D03*
Y0118D02*
D03*
D73*
X0295Y044D02*
D03*
X0305D02*
D03*
X0335Y042D02*
D03*
X0325Y043D02*
D03*
X0335D02*
D03*
Y044D02*
D03*
X0325D02*
D03*
X0315D02*
D03*
X0305Y019D02*
D03*
Y023D02*
D03*
Y022D02*
D03*
Y021D02*
D03*
Y02D02*
D03*
X03Y0195D02*
D03*
Y0205D02*
D03*
Y0215D02*
D03*
Y0225D02*
D03*
X0595Y0325D02*
D03*
Y0335D02*
D03*
Y0345D02*
D03*
X0605D02*
D03*
Y0335D02*
D03*
Y0325D02*
D03*
X0615D02*
D03*
Y0335D02*
D03*
Y0345D02*
D03*
X03453Y02671D02*
D03*
X01778Y01796D02*
D03*
X0095746Y0288518D02*
D03*
X01013Y0319411D02*
D03*
X0115Y03366D02*
D03*
X03682Y04035D02*
D03*
X02548Y02792D02*
D03*
X0308Y03689D02*
D03*
X0375984Y0181684D02*
D03*
X0342Y02008D02*
D03*
X0299Y02355D02*
D03*
X03071Y02565D02*
D03*
X0109Y02623D02*
D03*
X03077Y03259D02*
D03*
X04366Y03729D02*
D03*
X04367Y03571D02*
D03*
X0308809Y0294291D02*
D03*
X02385Y03143D02*
D03*
X02449Y02717D02*
D03*
Y03202D02*
D03*
X03815Y02858D02*
D03*
X0361Y03219D02*
D03*
X04158Y03114D02*
D03*
X0376Y0341D02*
D03*
X0552Y035D02*
D03*
X02268Y04044D02*
D03*
D74*
X03348Y03294D02*
D03*
X0287Y04035D02*
D03*
X05381Y03347D02*
D03*
X0368Y02832D02*
D03*
D75*
X03301Y03159D02*
D03*
X03298Y03499D02*
D03*
X03329Y01481D02*
D03*
X03746Y01588D02*
D03*
X02599Y01638D02*
D03*
X02777Y01427D02*
D03*
X02821Y01428D02*
D03*
X02145Y01679D02*
D03*
X02106Y01717D02*
D03*
X03027Y01483D02*
D03*
X06593Y0358D02*
D03*
X06925Y03515D02*
D03*
X07154Y03584D02*
D03*
X06326Y03501D02*
D03*
X07026Y03635D02*
D03*
X03752Y04038D02*
D03*
X03078Y0413D02*
D03*
X03352Y02822D02*
D03*
X03077Y03787D02*
D03*
X03725Y03761D02*
D03*
X02178Y02525D02*
D03*
X0329642Y0286857D02*
D03*
X0325Y0215D02*
D03*
Y022D02*
D03*
X032D02*
D03*
X03754Y03786D02*
D03*
X03016Y03734D02*
D03*
X01829Y02332D02*
D03*
X01788Y02239D02*
D03*
X046Y017D02*
D03*
X0455D02*
D03*
Y0175D02*
D03*
X046D02*
D03*
X0335Y022D02*
D03*
Y0215D02*
D03*
Y021D02*
D03*
Y0205D02*
D03*
X033D02*
D03*
Y021D02*
D03*
Y0215D02*
D03*
Y022D02*
D03*
X0325Y021D02*
D03*
Y0205D02*
D03*
X032D02*
D03*
Y021D02*
D03*
Y0215D02*
D03*
D76*
X0359Y0415575D02*
D03*
X0344236Y0421677D02*
D03*
X0350339Y0436441D02*
D03*
X0365102Y0430339D02*
D03*
X0344236D02*
D03*
X0359Y0436441D02*
D03*
X0365102Y0421677D02*
D03*
X0350339Y0415575D02*
D03*
X0359Y0134079D02*
D03*
X0344236Y0140181D02*
D03*
X0350339Y0154945D02*
D03*
X0365102Y0148843D02*
D03*
X0344236D02*
D03*
X0359Y0154945D02*
D03*
X0365102Y0140181D02*
D03*
X0350339Y0134079D02*
D03*
D110*
X0400394Y0161417D02*
D03*
X0407874D02*
D03*
X0400691Y0170966D02*
D03*
X0408171D02*
D03*
X0250984Y03822D02*
D03*
X0243504D02*
D03*
X0250984Y0389D02*
D03*
X0243504D02*
D03*
D111*
X03662Y020109D02*
D03*
Y0210145D02*
D03*
Y02192D02*
D03*
D112*
X0391987Y0210145D02*
D03*
D113*
X0354669Y0426008D02*
D03*
Y0144512D02*
D03*
M02*
