G04*
G04 #@! TF.GenerationSoftware,Altium Limited,Altium Designer,21.3.2 (30)*
G04*
G04 Layer_Color=8388736*
%FSTAX25Y25*%
%MOIN*%
G70*
G04*
G04 #@! TF.SameCoordinates,BF941F2B-45D7-4960-A8E1-59923975AC68*
G04*
G04*
G04 #@! TF.FilePolarity,Positive*
G04*
G01*
G75*
%ADD12C,0.00394*%
%ADD13C,0.00787*%
%ADD14C,0.00500*%
D12*
X0577439Y0334843D02*
X0582361D01*
X0577439Y0342717D02*
X0582361D01*
Y0334843D02*
Y0342717D01*
X0577439Y0334843D02*
Y0342717D01*
X0567439Y0334843D02*
X0572361D01*
X0567439Y0342717D02*
X0572361D01*
Y0334843D02*
Y0342717D01*
X0567439Y0334843D02*
Y0342717D01*
X0298819Y0120866D02*
X0330315D01*
X0326378Y0150787D02*
X0330315D01*
X0326378Y0144488D02*
Y0150787D01*
X0330315Y0120866D02*
Y0150787D01*
X0302756Y0144488D02*
X0326378D01*
X0298819Y0120866D02*
Y0150787D01*
X0302756Y0144488D02*
Y0150787D01*
X0298819D02*
X0302756D01*
X0381102Y0148425D02*
X0385039D01*
Y0142126D02*
Y0148425D01*
X0381102Y0118504D02*
Y0148425D01*
X0385039Y0142126D02*
X0424409D01*
X0428346Y0118504D02*
Y0148425D01*
X0424409Y0142126D02*
Y0148425D01*
X0428346D01*
X0381102Y0118504D02*
X0428346D01*
X0400197Y0158957D02*
Y0163878D01*
X0408071Y0158957D02*
Y0163878D01*
X0400197Y0158957D02*
X0408071D01*
X0400197Y0163878D02*
X0408071D01*
X0400494Y0168506D02*
Y0173427D01*
X0408368Y0168506D02*
Y0173427D01*
X0400494Y0168506D02*
X0408368D01*
X0400494Y0173427D02*
X0408368D01*
X037181Y0196956D02*
Y0223334D01*
X0386377Y0196956D02*
Y0223334D01*
X037181Y0196956D02*
X0386377D01*
X037181Y0223334D02*
X0386377D01*
X0354439Y0211503D02*
X0359361D01*
X0354439Y0219377D02*
X0359361D01*
Y0211503D02*
Y0219377D01*
X0354439Y0211503D02*
Y0219377D01*
Y0200977D02*
X0359361D01*
X0354439Y0193103D02*
X0359361D01*
X0354439D02*
Y0200977D01*
X0359361Y0193103D02*
Y0200977D01*
X0359701Y0329528D02*
Y0333465D01*
X0366D01*
X0359701Y0329528D02*
X0389622D01*
X0366Y0333465D02*
Y0372835D01*
X0359701Y0376772D02*
X0389622D01*
X0359701Y0372835D02*
X0366D01*
X0359701D02*
Y0376772D01*
X0389622Y0329528D02*
Y0376772D01*
X0359701Y0277165D02*
Y0281102D01*
X0366D01*
X0359701Y0277165D02*
X0389622D01*
X0366Y0281102D02*
Y0320472D01*
X0359701Y0324409D02*
X0389622D01*
X0359701Y0320472D02*
X0366D01*
X0359701D02*
Y0324409D01*
X0389622Y0277165D02*
Y0324409D01*
X0343361Y029685D02*
X0348282D01*
X0343361Y0304724D02*
X0348282D01*
Y029685D02*
Y0304724D01*
X0343361Y029685D02*
Y0304724D01*
X0336305Y029685D02*
X0341227D01*
X0336305Y0304724D02*
X0341227D01*
Y029685D02*
Y0304724D01*
X0336305Y029685D02*
Y0304724D01*
X0251181Y0379739D02*
Y0384661D01*
X0243307Y0379739D02*
Y0384661D01*
X0251181D01*
X0243307Y0379739D02*
X0251181D01*
Y0386539D02*
Y0391461D01*
X0243307Y0386539D02*
Y0391461D01*
X0251181D01*
X0243307Y0386539D02*
X0251181D01*
X0217139Y0279551D02*
X0222061D01*
X0217139Y0271677D02*
X0222061D01*
X0217139D02*
Y0279551D01*
X0222061Y0271677D02*
Y0279551D01*
X0210139D02*
X0215061D01*
X0210139Y0271677D02*
X0215061D01*
X0210139D02*
Y0279551D01*
X0215061Y0271677D02*
Y0279551D01*
X0217139Y0291463D02*
X0222061D01*
X0217139Y0299337D02*
X0222061D01*
Y0291463D02*
Y0299337D01*
X0217139Y0291463D02*
Y0299337D01*
X0210139Y0291477D02*
X0215061D01*
X0210139Y0299351D02*
X0215061D01*
Y0291477D02*
Y0299351D01*
X0210139Y0291477D02*
Y0299351D01*
X0238939Y0291463D02*
Y0299337D01*
X0243861Y0291463D02*
Y0299337D01*
X0238939D02*
X0243861D01*
X0238939Y0291463D02*
X0243861D01*
X0245939D02*
X0250861D01*
X0245939Y0299337D02*
X0250861D01*
Y0291463D02*
Y0299337D01*
X0245939Y0291463D02*
Y0299337D01*
X0336305Y0349213D02*
X0341227D01*
X0336305Y0357087D02*
X0341227D01*
Y0349213D02*
Y0357087D01*
X0336305Y0349213D02*
Y0357087D01*
X0343361Y0349213D02*
X0348282D01*
X0343361Y0357087D02*
X0348282D01*
Y0349213D02*
Y0357087D01*
X0343361Y0349213D02*
Y0357087D01*
X0266929Y040148D02*
X0270866D01*
X0266929D02*
Y040778D01*
X0270866Y040148D02*
Y0431402D01*
X0227559Y040778D02*
X0266929D01*
X0223622Y040148D02*
Y0431402D01*
X0227559Y040148D02*
Y040778D01*
X0223622Y040148D02*
X0227559D01*
X0223622Y0431402D02*
X0270866D01*
D13*
X0132694Y0291874D02*
G03*
X0132694Y0291874I-0000394J0D01*
G01*
D14*
X0135254Y0209551D02*
G03*
X0139191Y0205614I0003937J0D01*
G01*
Y0298134D02*
G03*
X0135254Y0294197I0J-0003937D01*
G01*
X020612D02*
G03*
X0202183Y0298134I-0003937J0D01*
G01*
Y0205614D02*
G03*
X020612Y0209551I0J0003937D01*
G01*
X0139191Y0205614D02*
X0202183D01*
X0135254Y0209551D02*
Y0294197D01*
X0139191Y0298134D02*
X0153639D01*
X0188836D01*
X0202183D01*
X020612Y0209551D02*
Y0294197D01*
X0153639Y0302858D02*
X0188836D01*
X0153639Y0298134D02*
Y0302858D01*
X0188836Y0298134D02*
Y0302858D01*
M02*
