M48
;Layer_Color=9474304
;FILE_FORMAT=2:5
INCH,LZ
;TYPE=PLATED
T1F00S00C0.01181
T2F00S00C0.01299
T3F00S00C0.01575
T4F00S00C0.03937
T5F00S00C0.04016
T6F00S00C0.04331
T7F00S00C0.05512
T9F00S00C0.12598
T11F00S00C0.26772
%
T01
X02777Y01427
X02821Y01428
X03027Y01483
X03329Y01481
X03746Y01588
X0335Y0205
Y021
Y0215
Y022
X033
X0325
Y0215
X033
Y021
Y0205
X0325
Y021
X032
Y0205
Y0215
Y022
X0329642Y0286857
X03352Y02822
X0368Y02832
X0455Y0175
Y017
X046
Y0175
X02599Y01638
X02145Y01679
X02106Y01717
X01788Y02239
X01829Y02332
X02178Y02525
X03016Y03734
X03077Y03787
X03078Y0413
X0287Y04035
X03752Y04038
X03754Y03786
X03725Y03761
X03298Y03499
X03348Y03294
X03301Y03159
X05381Y03347
X06326Y03501
X06593Y0358
X06925Y03515
X07026Y03635
X07154Y03584
T02
X0344236Y0140181
Y0148843
X0350339Y0154945
X0359
X0365102Y0148843
Y0140181
X0359Y0134079
X0350339
Y0415575
X0359
X0365102Y0421677
Y0430339
X0359Y0436441
X0350339
X0344236Y0430339
Y0421677
T03
X0342Y02008
X0375984Y0181684
X03815Y02858
X03453Y02671
X04158Y03114
X0308809Y0294291
X03071Y02565
X0305Y023
Y022
Y021
Y02
Y019
X03Y0195
Y0205
Y0215
Y0225
X0299Y02355
X02548Y02792
X02449Y02717
X01778Y01796
X0109Y02623
X0095746Y0288518
X01013Y0319411
X0115Y03366
X02385Y03143
X02449Y03202
X03077Y03259
X0308Y03689
X0305Y044
X0295
X02268Y04044
X0335Y042
Y043
X0325
Y044
X0335
X0315
X03682Y04035
X0376Y0341
X0361Y03219
X04367Y03571
X04366Y03729
X0552Y035
X0595Y0345
Y0335
Y0325
X0605
Y0335
Y0345
X0615
Y0335
Y0325
T04
X0160687Y0211874
X0170687
X0180687
X0190687
X0200687
Y0221874
Y0231874
Y0241874
Y0251874
Y0261874
Y0271874
Y0281874
Y0291874
X0140687
Y0281874
Y0271874
Y0261874
Y0251874
Y0241874
Y0231874
Y0221874
Y0211874
X0150687
T05
X0038389Y01524
X0048389
X0278389
X0288389
Y01624
Y01724
X0278389
Y01824
Y01924
Y02024
Y02124
Y02224
Y02324
Y02424
Y02524
Y02624
Y02724
Y02824
Y02924
Y03024
Y03124
X0288389
Y03024
Y02924
Y02824
Y02724
Y02624
Y02524
Y02424
Y02324
Y02224
Y02124
Y02024
Y01924
Y01824
X0278389Y01624
X0048389
Y01724
Y01824
Y01924
Y02024
Y02124
Y02224
Y02324
Y02424
Y02524
Y02624
Y02724
Y02824
Y02924
Y03024
Y03124
X0038389
Y03024
Y02924
Y02824
Y02724
Y02624
Y02524
Y02424
Y02324
Y02224
Y02124
Y02024
Y01924
Y01824
Y01724
Y01624
Y03224
Y03324
X0048389
Y03224
X0278389
Y03324
X0288389
Y03224
T06
X02559Y01215
X02659
X02659Y01325
X02559
X02794
X02894
X02894Y01215
X02794
X03303Y01679
X03403
X03403Y01789
X03303
X0353653Y01788
X0363653
X0363653Y01678
X0353653
T07
X0449213Y0196382
Y0211382
Y0236988
Y0251988
T09
X0197244Y0144488
X0354669Y0144512
Y0426008
T11
X0160984Y0118
Y0475768
M30
