G04*
G04 #@! TF.GenerationSoftware,Altium Limited,Altium Designer,21.3.2 (30)*
G04*
G04 Layer_Color=16711935*
%FSTAX25Y25*%
%MOIN*%
G70*
G04*
G04 #@! TF.SameCoordinates,48149F28-A3BA-4D36-B73A-A2ABBD85C276*
G04*
G04*
G04 #@! TF.FilePolarity,Positive*
G04*
G01*
G75*
%ADD14C,0.00500*%
D14*
X0712217Y03072D02*
G03*
X07303Y0325283I0J0018083D01*
G01*
X05729Y02639D02*
G03*
X05908Y02818I0J00179D01*
G01*
X0475176Y0390824D02*
G03*
X0443366Y0404I-003181J-003181D01*
G01*
X0139464Y0094535D02*
G03*
X0148Y0091I0008535J0008535D01*
G01*
X01961Y047928D02*
G03*
X016938Y0506I-002672J0D01*
G01*
X0152711D02*
G03*
X0127Y0480289I0J-0025711D01*
G01*
X02065Y01145D02*
G03*
X0197965Y0110965I0J-0012071D01*
G01*
X0480928Y0385072D02*
G03*
X0512487Y0372I0031559J0031559D01*
G01*
X03753Y04116D02*
G03*
X03829Y0404I00076J0D01*
G01*
X01734Y0091D02*
G03*
X0181253Y0094253I0J0011105D01*
G01*
X0113525Y03504D02*
G03*
X0127Y0363875I0J0013475D01*
G01*
X048025Y02639D02*
G03*
X04736Y025725I0J-000665D01*
G01*
X00306Y03504D02*
G03*
X00257Y03455I0J-00049D01*
G01*
X03753Y0427038D02*
G03*
X03547Y0447638I-00206J0D01*
G01*
X00257Y01375D02*
G03*
X00307Y01325I0005J0D01*
G01*
X07303Y03528D02*
G03*
X07111Y0372I-00192J0D01*
G01*
X04686Y01145D02*
G03*
X04736Y01195I0J0005D01*
G01*
X01961Y046459D02*
G03*
X0213052Y0447638I0016952J0D01*
G01*
X0605158Y03072D02*
G03*
X05908Y0292842I0J-0014358D01*
G01*
X0105035Y0128964D02*
G03*
X00965Y01325I-0008535J-0008535D01*
G01*
X03829Y0404D02*
X0417922Y0404D01*
X0181253Y0094253D02*
X0182218Y0095218D01*
X0148Y0091D02*
X01734D01*
X04901Y02639D02*
X05729Y02639D01*
X0475176Y0390824D02*
X0480928Y0385072D01*
X0127Y0363875D02*
Y0480289D01*
X00257Y01424D02*
Y03455D01*
X07303Y0325283D02*
Y03528D01*
X05908Y02818D02*
Y0292842D01*
X048025Y02639D02*
X04901D01*
X0152711Y0506D02*
X016938D01*
X00306Y03504D02*
X0113525D01*
X04736Y01195D02*
Y025725D01*
X0605158Y03072D02*
X0712217D01*
X0461929Y01145D02*
X04686D01*
X00257Y01375D02*
Y01424D01*
X06831Y0372D02*
X07111D01*
X02065Y01145D02*
X0461929D01*
X00307Y01325D02*
X00965D01*
X0512487Y0372D02*
X06831D01*
X0213052Y0447638D02*
X0227165D01*
X0105035Y0128964D02*
X0139464Y0094535D01*
X0417922Y0404D02*
X0443366Y0404D01*
X03753Y04116D02*
Y0427038D01*
X0182218Y0095218D02*
X0197965Y0110965D01*
X0227165Y0447638D02*
X03547D01*
X01961Y046459D02*
Y047928D01*
M02*
