G04*
G04 #@! TF.GenerationSoftware,Altium Limited,Altium Designer,21.3.2 (30)*
G04*
G04 Layer_Physical_Order=1*
G04 Layer_Color=255*
%FSTAX25Y25*%
%MOIN*%
G70*
G04*
G04 #@! TF.SameCoordinates,48149F28-A3BA-4D36-B73A-A2ABBD85C276*
G04*
G04*
G04 #@! TF.FilePolarity,Positive*
G04*
G01*
G75*
%ADD16C,0.01000*%
%ADD18R,0.04724X0.04331*%
%ADD19R,0.05118X0.04331*%
%ADD20R,0.05512X0.12205*%
%ADD21R,0.05906X0.13386*%
%ADD22R,0.03150X0.03150*%
%ADD23R,0.03937X0.03937*%
%ADD24R,0.03937X0.03937*%
%ADD25R,0.07150X0.05350*%
%ADD26R,0.06299X0.10236*%
%ADD27R,0.06299X0.13780*%
%ADD28R,0.16693X0.15000*%
%ADD29R,0.09252X0.06102*%
%ADD30R,0.05512X0.03937*%
%ADD31R,0.11811X0.06299*%
%ADD32R,0.21654X0.03937*%
%ADD33R,0.05118X0.03543*%
%ADD34R,0.12205X0.05512*%
%ADD35R,0.13386X0.05906*%
%ADD36C,0.05906*%
%ADD37R,0.04331X0.04724*%
%ADD38R,0.04331X0.05118*%
%ADD39R,0.09843X0.09843*%
%ADD77C,0.02000*%
%ADD78C,0.01500*%
%ADD79C,0.03000*%
%ADD80C,0.01968*%
%ADD81C,0.05000*%
%ADD82C,0.04000*%
%ADD83C,0.08000*%
%ADD84C,0.06000*%
%ADD85C,0.07874*%
%ADD86C,0.11000*%
%ADD87R,0.82677X0.82677*%
%ADD88R,0.08661X0.08661*%
%ADD89R,0.06299X0.06299*%
%ADD90C,0.06299*%
%ADD91R,0.05937X0.05937*%
%ADD92C,0.05937*%
%ADD93C,0.08268*%
G04:AMPARAMS|DCode=94|XSize=82.68mil|YSize=82.68mil|CornerRadius=20.67mil|HoleSize=0mil|Usage=FLASHONLY|Rotation=90.000|XOffset=0mil|YOffset=0mil|HoleType=Round|Shape=RoundedRectangle|*
%AMROUNDEDRECTD94*
21,1,0.08268,0.04134,0,0,90.0*
21,1,0.04134,0.08268,0,0,90.0*
1,1,0.04134,0.02067,0.02067*
1,1,0.04134,0.02067,-0.02067*
1,1,0.04134,-0.02067,-0.02067*
1,1,0.04134,-0.02067,0.02067*
%
%ADD94ROUNDEDRECTD94*%
%ADD95R,0.06024X0.06024*%
%ADD96C,0.06024*%
%ADD97C,0.15748*%
%ADD98C,0.12598*%
G04:AMPARAMS|DCode=99|XSize=885.83mil|YSize=204.72mil|CornerRadius=71.65mil|HoleSize=0mil|Usage=FLASHONLY|Rotation=180.000|XOffset=0mil|YOffset=0mil|HoleType=Round|Shape=RoundedRectangle|*
%AMROUNDEDRECTD99*
21,1,0.88583,0.06142,0,0,180.0*
21,1,0.74252,0.20472,0,0,180.0*
1,1,0.14331,-0.37126,0.03071*
1,1,0.14331,0.37126,0.03071*
1,1,0.14331,0.37126,-0.03071*
1,1,0.14331,-0.37126,-0.03071*
%
%ADD99ROUNDEDRECTD99*%
%ADD100C,0.37402*%
%ADD101C,0.03150*%
%ADD102C,0.02362*%
%ADD103C,0.01968*%
%ADD104C,0.02598*%
G36*
X0172255Y0504792D02*
X0175093Y0504309D01*
X0177859Y0503512D01*
X0180519Y0502411D01*
X0183039Y0501018D01*
X0185387Y0499352D01*
X0187533Y0497434D01*
X0189452Y0495287D01*
X0191118Y0492939D01*
X0192511Y0490419D01*
X0193612Y0487759D01*
X0194409Y0484993D01*
X0194892Y0482155D01*
X0195051Y0479322D01*
X0195042Y047928D01*
Y046459D01*
X0195024D01*
X0195178Y0462237D01*
X0195638Y0459924D01*
X0196396Y0457691D01*
X0197439Y0455576D01*
X0198749Y0453615D01*
X0200304Y0451842D01*
X0202077Y0450287D01*
X020224Y0450178D01*
X0202095Y04497D01*
X01719D01*
Y0369398D01*
X0133834Y0331332D01*
X0117811D01*
Y03366D01*
X0117716Y0337328D01*
X0117435Y0338006D01*
X0116988Y0338588D01*
X0116406Y0339035D01*
X0115728Y0339316D01*
X0115Y0339411D01*
X0114272Y0339316D01*
X0113594Y0339035D01*
X0113012Y0338588D01*
X0112565Y0338006D01*
X0112284Y0337328D01*
X0112189Y03366D01*
Y0329D01*
Y0314732D01*
X0075344D01*
Y0314959D01*
X0068651D01*
Y0314222D01*
X0063927D01*
Y0314959D01*
X0057234D01*
Y0314222D01*
X0051724D01*
X0051429Y0314733D01*
X0050722Y031544D01*
X0049855Y031594D01*
X0048889Y0316199D01*
X0047889D01*
X0046922Y031594D01*
X0046056Y031544D01*
X0045349Y0314733D01*
X0044849Y0313866D01*
X004459Y03129D01*
Y03119D01*
X0044849Y0310934D01*
X0045349Y0310067D01*
X0046056Y030936D01*
X0046922Y030886D01*
X0047889Y0308601D01*
X0048889D01*
X0049855Y030886D01*
X0050722Y030936D01*
X0051429Y0310067D01*
X0051724Y0310578D01*
X0057234D01*
Y0309841D01*
X0063927D01*
Y0310578D01*
X0068651D01*
Y0309841D01*
X0075344D01*
Y0310068D01*
X0112189D01*
Y0254732D01*
X0095572D01*
Y0254959D01*
X008888D01*
Y0254222D01*
X0083368D01*
Y0254959D01*
X0076675D01*
Y0254222D01*
X0051724D01*
X0051429Y0254733D01*
X0050722Y025544D01*
X0049855Y025594D01*
X0048889Y0256199D01*
X0047889D01*
X0046922Y025594D01*
X0046056Y025544D01*
X0045349Y0254733D01*
X0044849Y0253866D01*
X004459Y02529D01*
Y02519D01*
X0044849Y0250934D01*
X0045349Y0250067D01*
X0046056Y024936D01*
X0046922Y024886D01*
X0047889Y0248601D01*
X0048889D01*
X0049855Y024886D01*
X0050722Y024936D01*
X0051429Y0250067D01*
X0051724Y0250578D01*
X0076675D01*
Y0249841D01*
X0083368D01*
Y0250578D01*
X008888D01*
Y0249841D01*
X0095572D01*
Y0250068D01*
X0112189D01*
Y02055D01*
X0112188Y02055D01*
X0112284Y0204772D01*
X0112565Y0204094D01*
X0113012Y0203512D01*
X0128512Y0188012D01*
X0129094Y0187565D01*
X0129772Y0187284D01*
X01305Y0187188D01*
X01305Y0187189D01*
X02202D01*
X02202Y0187188D01*
X0220928Y0187284D01*
X0221606Y0187565D01*
X0222188Y0188012D01*
X0240588Y0206412D01*
X0241035Y0206994D01*
X0241316Y0207672D01*
X0241411Y02084D01*
X0241411Y02084D01*
Y03142D01*
X0241411Y03142D01*
X0241316Y0314928D01*
X0241035Y0315606D01*
X0240588Y0316188D01*
X0240588Y0316188D01*
X0240488Y0316288D01*
X0239906Y0316735D01*
X0239228Y0317016D01*
X02385Y0317111D01*
X0237772Y0317016D01*
X0237094Y0316735D01*
X0236512Y0316288D01*
X0236065Y0315706D01*
X0235784Y0315028D01*
X0235688Y03143D01*
X0235784Y0313572D01*
X0235788Y0313562D01*
Y0209565D01*
X0219035Y0192811D01*
X0131665D01*
X0117811Y0206665D01*
Y02526D01*
Y03124D01*
Y0326668D01*
X01348D01*
X0135693Y0326845D01*
X0136449Y0327351D01*
X0171438Y036234D01*
X01719Y0362148D01*
Y0359317D01*
X0149392Y0336808D01*
X0149052Y03363D01*
X0148933Y03357D01*
Y0282337D01*
X0142005Y0275409D01*
X0141181Y027563D01*
X0140192D01*
X0139237Y0275374D01*
X0138381Y027488D01*
X0137681Y027418D01*
X0137187Y0273324D01*
X0136931Y0272369D01*
Y027138D01*
X0137187Y0270424D01*
X0137681Y0269568D01*
X0138381Y0268869D01*
X0139237Y0268374D01*
X0140192Y0268118D01*
X0141181D01*
X0142136Y0268374D01*
X0142993Y0268869D01*
X0143692Y0269568D01*
X0144187Y0270424D01*
X0144443Y027138D01*
Y0272369D01*
X0144222Y0273192D01*
X0151608Y0280579D01*
X0151948Y0281087D01*
X0152032Y0281511D01*
X0152532Y0281462D01*
Y0275937D01*
X0142005Y0265409D01*
X0141181Y026563D01*
X0140192D01*
X0139237Y0265374D01*
X0138381Y0264879D01*
X0137681Y026418D01*
X0137187Y0263324D01*
X0136931Y0262368D01*
Y026138D01*
X0137187Y0260424D01*
X0137681Y0259568D01*
X0138381Y0258869D01*
X0139237Y0258374D01*
X0140192Y0258118D01*
X0141181D01*
X0142136Y0258374D01*
X0142993Y0258869D01*
X0143692Y0259568D01*
X0144187Y0260424D01*
X0144443Y026138D01*
Y0262368D01*
X0144222Y0263192D01*
X0155208Y0274179D01*
X0155548Y0274688D01*
X0155667Y0275287D01*
Y0332551D01*
X0171438Y0348321D01*
X01719Y034813D01*
Y0343D01*
X017722D01*
Y0224716D01*
X0177028Y0224252D01*
Y0223548D01*
X0177298Y0222896D01*
X0177796Y0222398D01*
X0178448Y0222128D01*
X0179152D01*
X0179804Y0222398D01*
X0180302Y0222896D01*
X0180572Y0223548D01*
Y0224252D01*
X0180355Y0224775D01*
Y0343D01*
X0181333D01*
Y0264623D01*
X0181333Y0264623D01*
Y0234045D01*
X0181128Y0233552D01*
Y0232848D01*
X0181398Y0232196D01*
X0181896Y0231698D01*
X0182548Y0231428D01*
X0183252D01*
X0183904Y0231698D01*
X0184402Y0232196D01*
X0184672Y0232848D01*
Y0233552D01*
X0184467Y0234045D01*
Y0264623D01*
X0184467Y0264623D01*
Y0343D01*
X0185345D01*
Y0218749D01*
X0182005Y0215409D01*
X0181181Y021563D01*
X0180192D01*
X0179237Y0215374D01*
X0178381Y0214879D01*
X0177681Y021418D01*
X0177187Y0213324D01*
X0176931Y0212368D01*
Y021138D01*
X0177187Y0210424D01*
X0177681Y0209568D01*
X0178381Y0208869D01*
X0179237Y0208374D01*
X0180192Y0208118D01*
X0181181D01*
X0182136Y0208374D01*
X0182993Y0208869D01*
X0183692Y0209568D01*
X0184187Y0210424D01*
X0184443Y021138D01*
Y0212368D01*
X0184222Y0213192D01*
X0188021Y0216992D01*
X0188361Y02175D01*
X018848Y02181D01*
Y0343D01*
X0189119D01*
Y0215306D01*
X0188381Y0214879D01*
X0187681Y021418D01*
X0187187Y0213324D01*
X0186931Y0212368D01*
Y021138D01*
X0187187Y0210424D01*
X0187681Y0209568D01*
X0188381Y0208869D01*
X0189237Y0208374D01*
X0190192Y0208118D01*
X0191181D01*
X0192136Y0208374D01*
X0192993Y0208869D01*
X0193692Y0209568D01*
X0194187Y0210424D01*
X0194443Y021138D01*
Y0212368D01*
X0194187Y0213324D01*
X0193692Y021418D01*
X0192993Y0214879D01*
X0192254Y0215306D01*
Y0343D01*
X0205697D01*
Y0250233D01*
X0202968Y0247503D01*
X01947D01*
X0194393Y0247442D01*
X0194132Y0247268D01*
X0193958Y0247007D01*
X0193897Y02467D01*
Y02271D01*
X0193958Y0226793D01*
X0194132Y0226532D01*
X0194393Y0226358D01*
X01947Y0226297D01*
X02053D01*
X02053Y0226297D01*
X0205607Y0226358D01*
X0205868Y0226532D01*
X0205868Y0226532D01*
X0215268Y0235932D01*
X0215442Y0236193D01*
X0215503Y02365D01*
Y0343D01*
X0216232D01*
Y0253345D01*
X0216028Y0252852D01*
Y0252148D01*
X0216298Y0251496D01*
X0216796Y0250998D01*
X0217448Y0250728D01*
X0218152D01*
X0218804Y0250998D01*
X0219302Y0251496D01*
X0219572Y0252148D01*
Y0252852D01*
X0219368Y0253345D01*
Y0343D01*
X0220532D01*
Y0219749D01*
X0207751Y0206967D01*
X015781D01*
X0154222Y0210556D01*
X0154443Y021138D01*
Y0212368D01*
X0154187Y0213324D01*
X0153692Y021418D01*
X0152993Y0214879D01*
X0152136Y0215374D01*
X0151181Y021563D01*
X0150192D01*
X0149237Y0215374D01*
X014838Y0214879D01*
X0147681Y021418D01*
X0147187Y0213324D01*
X0146931Y0212368D01*
Y021138D01*
X0147187Y0210424D01*
X0147681Y0209568D01*
X014838Y0208869D01*
X0149237Y0208374D01*
X0150192Y0208118D01*
X0151181D01*
X0152005Y0208339D01*
X0155676Y0204667D01*
X0155469Y0204168D01*
X015061D01*
X0144222Y0210556D01*
X0144443Y021138D01*
Y0212368D01*
X0144187Y0213324D01*
X0143692Y021418D01*
X0142993Y0214879D01*
X0142136Y0215374D01*
X0141181Y021563D01*
X0140192D01*
X0139237Y0215374D01*
X0138381Y0214879D01*
X0137681Y021418D01*
X0137187Y0213324D01*
X0136931Y0212368D01*
Y021138D01*
X0137187Y0210424D01*
X0137681Y0209568D01*
X0138381Y0208869D01*
X0139237Y0208374D01*
X0140192Y0208118D01*
X0141181D01*
X0142005Y0208339D01*
X0148214Y020213D01*
X0148023Y0201667D01*
X0135649D01*
X0129268Y0208049D01*
Y0268238D01*
X0139368Y0278339D01*
X0140192Y0278118D01*
X0141181D01*
X0142136Y0278374D01*
X0142993Y0278869D01*
X0143692Y0279568D01*
X0144187Y0280424D01*
X0144443Y028138D01*
Y0282368D01*
X0144187Y0283324D01*
X0143692Y028418D01*
X0142993Y0284879D01*
X0142136Y0285374D01*
X0141181Y028563D01*
X0140192D01*
X0139237Y0285374D01*
X0138381Y0284879D01*
X0137681Y028418D01*
X0137187Y0283324D01*
X0136931Y0282368D01*
Y028138D01*
X0137152Y0280556D01*
X012733Y0270734D01*
X0126867Y0270925D01*
Y0275838D01*
X0139148Y0288118D01*
X0144443D01*
Y029563D01*
X0136931D01*
Y0290335D01*
X0124192Y0277596D01*
X0123852Y0277087D01*
X0123732Y0276487D01*
Y0206565D01*
X0123852Y0205965D01*
X0124192Y0205457D01*
X0133157Y0196492D01*
X0133665Y0196152D01*
X0134265Y0196033D01*
X0214D01*
X02146Y0196152D01*
X0215108Y0196492D01*
X0230383Y0211766D01*
X0230723Y0212275D01*
X0230842Y0212875D01*
Y0343D01*
X0289283D01*
X0291633Y0340651D01*
Y0335237D01*
X0291132Y0335029D01*
X0290722Y033544D01*
X0289855Y033594D01*
X0288889Y0336199D01*
X0287889D01*
X0286923Y033594D01*
X0286056Y033544D01*
X0285349Y0334733D01*
X0284849Y0333866D01*
X028459Y03329D01*
Y03319D01*
X0284849Y0330934D01*
X0285349Y0330067D01*
X0286056Y032936D01*
X0286923Y032886D01*
X0287889Y0328601D01*
X0288889D01*
X0289855Y032886D01*
X0290722Y032936D01*
X0291132Y0329771D01*
X0291633Y0329563D01*
Y0325237D01*
X0291132Y0325029D01*
X0290722Y032544D01*
X0289855Y032594D01*
X0288889Y0326199D01*
X0287889D01*
X0286923Y032594D01*
X0286056Y032544D01*
X0285349Y0324733D01*
X0284849Y0323866D01*
X028459Y03229D01*
Y03219D01*
X0284849Y0320934D01*
X0285349Y0320067D01*
X0286056Y031936D01*
X0286923Y031886D01*
X0287889Y0318601D01*
X0288889D01*
X0289855Y031886D01*
X0290722Y031936D01*
X0291132Y0319771D01*
X0291633Y0319564D01*
Y0315236D01*
X0291132Y0315029D01*
X0290722Y031544D01*
X0289855Y031594D01*
X0288889Y0316199D01*
X0287889D01*
X0286923Y031594D01*
X0286056Y031544D01*
X0285349Y0314733D01*
X0284849Y0313866D01*
X028459Y03129D01*
Y03119D01*
X0284849Y0310934D01*
X0285349Y0310067D01*
X0286056Y030936D01*
X0286923Y030886D01*
X0287889Y0308601D01*
X0288889D01*
X0289855Y030886D01*
X0290722Y030936D01*
X0291132Y0309771D01*
X0291633Y0309563D01*
Y0305237D01*
X0291132Y0305029D01*
X0290722Y030544D01*
X0289855Y030594D01*
X0288889Y0306199D01*
X0287889D01*
X0286923Y030594D01*
X0286056Y030544D01*
X0285349Y0304733D01*
X0284849Y0303866D01*
X028459Y03029D01*
Y03019D01*
X0284849Y0300934D01*
X0285349Y0300067D01*
X0286056Y029936D01*
X0286923Y029886D01*
X0287889Y0298601D01*
X0288889D01*
X0289855Y029886D01*
X0290722Y029936D01*
X0291132Y0299771D01*
X0291633Y0299564D01*
Y0295236D01*
X0291132Y0295029D01*
X0290722Y029544D01*
X0289855Y029594D01*
X0288889Y0296199D01*
X0287889D01*
X0286923Y029594D01*
X0286056Y029544D01*
X0285349Y0294733D01*
X0284849Y0293866D01*
X028459Y02929D01*
Y02919D01*
X0284849Y0290934D01*
X0285349Y0290067D01*
X0286056Y028936D01*
X0286923Y028886D01*
X0287889Y0288601D01*
X0288889D01*
X0289855Y028886D01*
X0290722Y028936D01*
X0291263Y0289901D01*
X029137Y0289923D01*
X0291791Y0289869D01*
X0291868Y0289827D01*
X0292092Y0289492D01*
X0304Y0277583D01*
Y02705D01*
X0297Y02635D01*
X02933D01*
Y02574D01*
Y0187D01*
X0298376D01*
X0298583Y01865D01*
X0294592Y0182508D01*
X0294252Y0182D01*
X0294132Y01814D01*
Y0170649D01*
X0292308Y0168825D01*
X0290796D01*
X0290662Y0169325D01*
X0290722Y016936D01*
X0291429Y0170067D01*
X0291929Y0170934D01*
X0292188Y01719D01*
Y01729D01*
X0291929Y0173866D01*
X0291429Y0174733D01*
X0290722Y017544D01*
X0289855Y017594D01*
X0288889Y0176199D01*
X0287889D01*
X0286923Y017594D01*
X0286056Y017544D01*
X0285349Y0174733D01*
X0284849Y0173866D01*
X028459Y01729D01*
Y01719D01*
X0284849Y0170934D01*
X0285349Y0170067D01*
X0286056Y016936D01*
X0286116Y0169325D01*
X0285982Y0168825D01*
X0283247D01*
X0282647Y0168706D01*
X0282138Y0168366D01*
X0279743Y0165971D01*
X0278889Y0166199D01*
X0277889D01*
X0276922Y016594D01*
X0276056Y016544D01*
X0275349Y0164733D01*
X0274849Y0163866D01*
X0274668Y016319D01*
X0274167Y0163256D01*
Y0165962D01*
X0277035Y016883D01*
X0277889Y0168601D01*
X0278889D01*
X0279855Y016886D01*
X0280722Y016936D01*
X0281429Y0170067D01*
X0281929Y0170934D01*
X0282188Y01719D01*
Y01729D01*
X0281929Y0173866D01*
X0281429Y0174733D01*
X0280722Y017544D01*
X0279855Y017594D01*
X0278889Y0176199D01*
X0277889D01*
X0276922Y017594D01*
X0276056Y017544D01*
X0275349Y0174733D01*
X0274849Y0173866D01*
X027459Y01729D01*
Y01719D01*
X0274818Y0171046D01*
X0271492Y0167719D01*
X0271152Y0167211D01*
X0271033Y0166611D01*
Y01393D01*
X0271152Y01387D01*
X0271492Y0138192D01*
X0275463Y013422D01*
Y0133311D01*
X0274968Y01333D01*
X0274848Y01339D01*
X0274508Y0134408D01*
X0270167Y0138749D01*
Y0171962D01*
X0277035Y017883D01*
X0277889Y0178601D01*
X0278889D01*
X0279855Y017886D01*
X0280722Y017936D01*
X0281429Y0180067D01*
X0281929Y0180934D01*
X0282188Y01819D01*
Y01829D01*
X0281929Y0183866D01*
X0281429Y0184733D01*
X0280722Y018544D01*
X028012Y0185787D01*
X0280254Y0186287D01*
X02814D01*
X0281902Y0186387D01*
X0282328Y0186672D01*
X0284528Y0188872D01*
X0284813Y0189298D01*
X0284913Y01898D01*
Y0189913D01*
X0285413Y0190004D01*
X0286056Y018936D01*
X0286923Y018886D01*
X0287889Y0188601D01*
X0288889D01*
X0289855Y018886D01*
X0290722Y018936D01*
X0291429Y0190067D01*
X0291929Y0190934D01*
X0292188Y01919D01*
Y01929D01*
X0291929Y0193866D01*
X0291429Y0194733D01*
X0290722Y019544D01*
X0289855Y019594D01*
X0288889Y0196199D01*
X0287889D01*
X0286923Y019594D01*
X0286056Y019544D01*
X0285413Y0194797D01*
X0284913Y0194887D01*
Y0196656D01*
X0287075Y0198819D01*
X0287889Y0198601D01*
X0288889D01*
X0289855Y019886D01*
X0290722Y019936D01*
X0291429Y0200067D01*
X0291929Y0200934D01*
X0292188Y02019D01*
Y02029D01*
X0291929Y0203866D01*
X0291429Y0204733D01*
X0290722Y020544D01*
X0289855Y020594D01*
X0288889Y0206199D01*
X0287889D01*
X0286923Y020594D01*
X0286056Y020544D01*
X0285349Y0204733D01*
X0284849Y0203866D01*
X028459Y02029D01*
Y02019D01*
X0284849Y0200934D01*
X0285079Y0200535D01*
X0282672Y0198128D01*
X0282387Y0197702D01*
X0282287Y01972D01*
Y0194246D01*
X0281787Y0194112D01*
X0281429Y0194733D01*
X0280722Y019544D01*
X0279855Y019594D01*
X0278889Y0196199D01*
X0277889D01*
X0276922Y019594D01*
X0276056Y019544D01*
X0275349Y0194733D01*
X0274907Y0193967D01*
X02651D01*
X02645Y0193848D01*
X0263992Y0193508D01*
X0254792Y0184308D01*
X0254452Y01838D01*
X0254332Y01832D01*
Y0136437D01*
X0251963D01*
Y0128563D01*
X0259837D01*
Y0136437D01*
X0257468D01*
Y0182551D01*
X0265749Y0190832D01*
X0274907D01*
X0275349Y0190067D01*
X0276004Y0189413D01*
X0275929Y0188913D01*
X02693D01*
X0268798Y0188813D01*
X0268372Y0188528D01*
X0258972Y0179128D01*
X0258687Y0178702D01*
X0258587Y01782D01*
Y0164993D01*
X0258398Y0164804D01*
X0258128Y0164152D01*
Y0163448D01*
X0258398Y0162796D01*
X0258896Y0162298D01*
X0259548Y0162028D01*
X0260252D01*
X0260904Y0162298D01*
X0261402Y0162796D01*
X0261672Y0163448D01*
Y0164152D01*
X0261402Y0164804D01*
X0261213Y0164993D01*
Y0177656D01*
X0269844Y0186287D01*
X0276524D01*
X0276658Y0185787D01*
X0276056Y018544D01*
X0275349Y0184733D01*
X0274849Y0183866D01*
X027459Y01829D01*
Y01819D01*
X0274818Y0181046D01*
X0267492Y0173719D01*
X0267152Y0173211D01*
X0267033Y0172611D01*
Y01381D01*
X0267152Y01375D01*
X0267492Y0136992D01*
X0268171Y0136312D01*
X0267864Y0135912D01*
X026742Y0136169D01*
X0266418Y0136437D01*
X0265382D01*
X026438Y0136169D01*
X0263483Y013565D01*
X026275Y0134917D01*
X0262231Y013402D01*
X0261963Y0133018D01*
Y0131982D01*
X0262231Y013098D01*
X026275Y0130083D01*
X0263483Y012935D01*
X0264333Y0128859D01*
Y0125437D01*
X0261963D01*
Y0117563D01*
X0269837D01*
Y0124493D01*
X0270299Y0124684D01*
X0270933Y0124051D01*
Y01195D01*
X0271052Y01189D01*
X0271392Y0118392D01*
X0273726Y0116058D01*
X0273518Y0115558D01*
X02065D01*
Y0115578D01*
X0204443Y0115416D01*
X0202437Y0114934D01*
X0200531Y0114145D01*
X0198771Y0113067D01*
X0197202Y0111727D01*
X0197217Y0111712D01*
X0181471Y0095966D01*
X0180505Y0095001D01*
X0180469Y0094947D01*
X0178993Y0093735D01*
X0177252Y0092805D01*
X0175364Y0092232D01*
X0173463Y0092045D01*
X01734Y0092058D01*
X0148D01*
X0147985Y0092055D01*
X0146276Y0092189D01*
X0144595Y0092593D01*
X0142998Y0093254D01*
X0141524Y0094158D01*
X0140221Y009527D01*
X0140212Y0095284D01*
X0105783Y0129712D01*
X0105798Y0129727D01*
X0104229Y0131067D01*
X010247Y0132145D01*
X0100563Y0132934D01*
X0098557Y0133416D01*
X00965Y0133578D01*
Y0133558D01*
X00307D01*
X0030688Y0133555D01*
X0029679Y0133688D01*
X0028727Y0134082D01*
X0027909Y013471D01*
X0027282Y0135527D01*
X0026888Y0136479D01*
X0026755Y0137488D01*
X0026758Y01375D01*
Y01424D01*
Y03455D01*
X0026756Y034551D01*
X0026886Y0346495D01*
X002727Y0347423D01*
X0027881Y0348219D01*
X0028677Y034883D01*
X0029605Y0349215D01*
X003059Y0349344D01*
X00306Y0349342D01*
X0113525D01*
Y0349318D01*
X0115802Y0349497D01*
X0118024Y035003D01*
X0120134Y0350904D01*
X0122082Y0352098D01*
X0123819Y0353581D01*
X0125302Y0355318D01*
X0126496Y0357266D01*
X012737Y0359377D01*
X0127903Y0361598D01*
X0128082Y0363875D01*
X0128058D01*
Y0480289D01*
X0128051Y0480325D01*
X0128204Y0483051D01*
X0128667Y0485777D01*
X0129432Y0488435D01*
X0130491Y049099D01*
X0131829Y049341D01*
X0133429Y0495666D01*
X0135272Y0497728D01*
X0137334Y0499571D01*
X013959Y0501171D01*
X014201Y0502509D01*
X0144565Y0503568D01*
X0147223Y0504333D01*
X0149949Y0504796D01*
X0152675Y0504949D01*
X0152711Y0504942D01*
X016938D01*
X0169422Y0504951D01*
X0172255Y0504792D01*
D02*
G37*
G36*
X0206153Y0447934D02*
X0208386Y0447176D01*
X0210699Y0446716D01*
X0213052Y0446562D01*
Y044658D01*
X03547D01*
X0354746Y0446589D01*
X0357252Y0446425D01*
X0359761Y0445926D01*
X0362183Y0445104D01*
X0364477Y0443972D01*
X0366604Y0442551D01*
X0368527Y0440865D01*
X0370214Y0438942D01*
X0371635Y0436815D01*
X0372766Y0434521D01*
X0373588Y0432099D01*
X0374087Y042959D01*
X0374252Y0427084D01*
X0374242Y0427038D01*
Y04116D01*
X0374221D01*
X0374388Y0409907D01*
X0374882Y0408279D01*
X0375683Y0406778D01*
X0376495Y040579D01*
X0376124Y0405454D01*
X0372489Y0409089D01*
X0371897Y0409484D01*
X03712Y0409622D01*
X03712Y0409622D01*
X0313755D01*
X0309089Y0414289D01*
X0308872Y0414433D01*
X0308804Y0414502D01*
X0308714Y0414539D01*
X0308497Y0414684D01*
X0308242Y0414735D01*
X0308152Y0414772D01*
X0308055D01*
X03078Y0414822D01*
X0307545Y0414772D01*
X0307448D01*
X0307358Y0414735D01*
X0307103Y0414684D01*
X0306886Y0414539D01*
X0306796Y0414502D01*
X0306728Y0414433D01*
X0306511Y0414289D01*
X0306367Y0414072D01*
X0306298Y0414004D01*
X0306261Y0413914D01*
X0306116Y0413697D01*
X0306066Y0413442D01*
X0306028Y0413352D01*
Y0413255D01*
X0305978Y0413D01*
X0306028Y0412745D01*
Y0412648D01*
X0306066Y0412558D01*
X0306116Y0412303D01*
X0306261Y0412086D01*
X0306298Y0411996D01*
X0306367Y0411928D01*
X0306511Y0411711D01*
X0311711Y0406511D01*
X0312303Y0406116D01*
X0313Y0405978D01*
X0313Y0405978D01*
X0370445D01*
X0373911Y0402511D01*
X0374128Y0402367D01*
X0374196Y0402298D01*
X0374286Y0402261D01*
X0374503Y0402116D01*
X0374758Y0402066D01*
X0374848Y0402028D01*
X0374945D01*
X03752Y0401978D01*
X0375455Y0402028D01*
X0375552D01*
X0375642Y0402066D01*
X0375897Y0402116D01*
X0376114Y0402261D01*
X0376204Y0402298D01*
X0376272Y0402367D01*
X0376489Y0402511D01*
X0376633Y0402728D01*
X0376702Y0402796D01*
X0376739Y0402886D01*
X0376884Y0403103D01*
X0376935Y0403358D01*
X0376972Y0403448D01*
Y0403545D01*
X0377022Y04038D01*
X0376972Y0404055D01*
Y0404152D01*
X0376935Y0404242D01*
X0376884Y0404497D01*
X0376739Y0404714D01*
X0376702Y0404804D01*
X037672Y0404851D01*
X0377313Y0405011D01*
X0378078Y0404384D01*
X0379579Y0403581D01*
X0381207Y0403088D01*
X03829Y0402921D01*
Y0402942D01*
X0417922Y0402942D01*
X0443366Y0402942D01*
X0443416Y0402952D01*
X0447196Y0402787D01*
X0450996Y0402287D01*
X0454739Y0401457D01*
X0458395Y0400305D01*
X0461936Y0398838D01*
X0465337Y0397068D01*
X0468569Y0395008D01*
X0471611Y0392674D01*
X04744Y0390119D01*
X0474428Y0390076D01*
X048018Y0384324D01*
X048018Y0384324D01*
X0480164Y0384308D01*
X0483104Y0381614D01*
X0486268Y0379186D01*
X0489631Y0377043D01*
X0493168Y0375202D01*
X0496852Y0373676D01*
X0500656Y0372477D01*
X0504549Y0371614D01*
X0508503Y0371093D01*
X0512487Y0370919D01*
Y0370942D01*
X0595197D01*
X0595246Y0370442D01*
X0595098Y0370413D01*
X0594672Y0370128D01*
X0588372Y0363828D01*
X0588087Y0363402D01*
X0587987Y03629D01*
Y03095D01*
X0588087Y0308998D01*
X0588372Y0308572D01*
X0589413Y030753D01*
X0584692Y0302808D01*
X0584352Y03023D01*
X0584233Y03017D01*
Y0281549D01*
X0572463Y026978D01*
X0548993D01*
X0548842Y027028D01*
X0549008Y0270392D01*
X0553408Y0274792D01*
X0553748Y02753D01*
X0553867Y02759D01*
Y0291535D01*
X0558961D01*
Y0299016D01*
X0558961D01*
Y029941D01*
X0558961D01*
Y0302711D01*
X0559048Y030315D01*
X0558961Y0303588D01*
X0558961Y0306659D01*
X0559173Y0307071D01*
X0559173Y0307302D01*
Y0310524D01*
X055148D01*
X0543787D01*
Y0307302D01*
X0543787Y0307071D01*
X0544Y0306659D01*
X0544Y0304717D01*
X054215D01*
X054155Y0304598D01*
X0541041Y0304258D01*
X0538192Y0301408D01*
X0537852Y03009D01*
X0537733Y03003D01*
Y0277749D01*
X0535951Y0275968D01*
X0451249D01*
X0437508Y0289708D01*
X0437Y0290048D01*
X04364Y0290167D01*
X04108D01*
X04102Y0290048D01*
X0409692Y0289708D01*
X0400951Y0280967D01*
X0337126D01*
X0336814Y0281468D01*
X0336972Y0281848D01*
Y0282552D01*
X0336702Y0283204D01*
X0336204Y0283702D01*
X0335552Y0283972D01*
X0334848D01*
X0334355Y0283768D01*
X0311749D01*
X0310727Y028479D01*
X0310934Y028529D01*
X0328797D01*
X032929Y0285086D01*
X0329995D01*
X0330646Y0285355D01*
X0331144Y0285854D01*
X0331414Y0286505D01*
Y028721D01*
X0331144Y0287861D01*
X0330646Y0288359D01*
X0329995Y0288629D01*
X032929D01*
X0328797Y0288425D01*
X0311092D01*
X0305Y0294517D01*
Y031893D01*
X0305462Y0319121D01*
X0307188Y0317395D01*
X0307696Y0317056D01*
X0308296Y0316936D01*
X0312638D01*
Y0315551D01*
X0319331D01*
Y0321457D01*
X0312638D01*
Y0320072D01*
X0308945D01*
X0306821Y0322196D01*
X0307055Y0322669D01*
X03077Y0322584D01*
X031925D01*
X0320677Y0321157D01*
Y0318366D01*
X0320706Y0318151D01*
Y0315354D01*
X032259D01*
X0322618Y0315343D01*
X0322685Y0314774D01*
X0322438Y0314567D01*
X0320706D01*
Y0308661D01*
X0320835D01*
X0320908Y0308105D01*
X0321239Y0307306D01*
X0321766Y0306619D01*
X032503Y0303355D01*
X0325717Y0302829D01*
X0326517Y0302497D01*
X0327375Y0302384D01*
X0344322D01*
X034518Y0302497D01*
X034598Y0302829D01*
X0346398Y030315D01*
X0356142D01*
Y0308661D01*
X0346336D01*
X0346185Y0308777D01*
X0345386Y0309108D01*
X0344528Y0309221D01*
X0343669Y0309108D01*
X0343446Y0309016D01*
X0328748D01*
X0327427Y0310337D01*
Y0311555D01*
X0327398Y0311771D01*
Y0314567D01*
X0325514D01*
X0325487Y0314578D01*
X0325419Y0315147D01*
X0325666Y0315354D01*
X0327398D01*
Y0317831D01*
X0333068D01*
Y0323768D01*
X0331906D01*
Y0326453D01*
X0332406Y0326474D01*
X0332501Y0326332D01*
X0332761Y0326158D01*
X0333068Y0326097D01*
X0334297D01*
Y03244D01*
X0334358Y0324093D01*
X0334532Y0323832D01*
X0334793Y0323658D01*
X03351Y0323597D01*
X0346459D01*
X0346562Y0323618D01*
X0346666Y0323624D01*
X0346714Y0323648D01*
X0346766Y0323658D01*
X0346853Y0323716D01*
X0346947Y0323762D01*
X0346982Y0323802D01*
X0347027Y0323832D01*
X0347085Y0323919D01*
X0347154Y0323997D01*
X0347388Y03244D01*
X0347405Y0324451D01*
X0347435Y0324496D01*
X0347455Y0324598D01*
X0347489Y0324697D01*
X0347974Y0324803D01*
X0360079D01*
Y0332677D01*
X0358801D01*
X0358594Y0333177D01*
X0361308Y0335892D01*
X0361648Y03364D01*
X0361768Y0337D01*
Y0343526D01*
X0361722Y0343754D01*
X0362107Y0344057D01*
X0362214Y0344129D01*
X0362326Y0344193D01*
X0362344Y0344215D01*
X0362368Y0344231D01*
X0362439Y0344338D01*
X0362518Y034444D01*
X0362526Y0344468D01*
X0362542Y0344492D01*
X0362567Y0344618D01*
X0362601Y0344742D01*
X0362597Y0344771D01*
X0362603Y0344799D01*
Y03666D01*
X0362542Y0366907D01*
X0362368Y0367168D01*
X0362107Y0367342D01*
X03618Y0367403D01*
X0360079D01*
Y0374533D01*
X0371655D01*
X0372148Y0374328D01*
X0372852D01*
X0373504Y0374598D01*
X0374002Y0375096D01*
X0374272Y0375748D01*
Y0376452D01*
X0374195Y0376638D01*
X0374365Y0376894D01*
X0374576Y0377024D01*
X0375048Y0376828D01*
X0375752D01*
X0376404Y0377098D01*
X0376902Y0377596D01*
X0377172Y0378248D01*
Y0378952D01*
X0376902Y0379604D01*
X0376404Y0380102D01*
X0375752Y0380372D01*
X0375048D01*
X0374607Y0380189D01*
X0308716D01*
X0308704Y0380202D01*
X0308147Y0380433D01*
X0308246Y0380932D01*
X0401351D01*
X0407045Y0375238D01*
Y0359662D01*
X040525Y0357867D01*
X0404732D01*
X0404732Y0359809D01*
X0404945Y0360221D01*
X0404945Y0360451D01*
Y0363673D01*
X0397252D01*
X0389559D01*
Y0360451D01*
X0389559Y0360221D01*
X0389772Y0359809D01*
X0389772Y035972D01*
Y0352559D01*
X0389772D01*
Y0352165D01*
X0389772D01*
Y0344791D01*
X0389772Y0344685D01*
Y0344291D01*
X0389772Y0344185D01*
Y0342883D01*
X0386415D01*
X0385114Y0344184D01*
Y0346063D01*
X0386128D01*
Y0351181D01*
X0379435D01*
Y0351181D01*
X0379286D01*
Y0351181D01*
X0372593D01*
Y0346063D01*
X0373639D01*
Y0341473D01*
X0373638Y034147D01*
Y034053D01*
X0373997Y0339662D01*
X0374662Y0338997D01*
X037553Y0338638D01*
X037647D01*
X0377338Y0338997D01*
X0378003Y0339662D01*
X0378362Y034053D01*
Y034147D01*
X0378304Y0341611D01*
Y0346063D01*
X0379286D01*
Y0346063D01*
X0379435D01*
Y0346063D01*
X038045D01*
Y0343218D01*
X0380627Y0342326D01*
X0381133Y0341569D01*
X03838Y0338902D01*
X0384556Y0338397D01*
X0385449Y0338219D01*
X0389772D01*
Y0336811D01*
X0404732D01*
Y0344185D01*
X0404732Y0344291D01*
Y0344685D01*
X0404732Y0344791D01*
Y0347449D01*
X0407016D01*
X0407616Y0347568D01*
X0408125Y0347908D01*
X0412008Y0351792D01*
X0412348Y03523D01*
X0412467Y03529D01*
Y0369243D01*
X0412606Y0369685D01*
X0412967Y0369685D01*
X0426386D01*
Y0376772D01*
X0412967D01*
X0412606Y0376772D01*
X0412467Y0377214D01*
Y03777D01*
X0412348Y03783D01*
X0412008Y0378808D01*
X0403808Y0387008D01*
X0403623Y0387133D01*
X0403774Y0387632D01*
X0429251D01*
X0441132Y0375751D01*
Y0312649D01*
X0435169Y0306686D01*
X0404732D01*
X0404732Y0308628D01*
X0404945Y0309039D01*
X0404945Y030927D01*
Y0312492D01*
X0397252D01*
X0389559D01*
Y030927D01*
X0389559Y0309039D01*
X0389772Y0308628D01*
X0389772Y0308539D01*
Y0301378D01*
X0389772D01*
Y0300984D01*
X0389772D01*
Y029361D01*
X0389772Y0293504D01*
Y029311D01*
X0389772Y0293004D01*
Y0291702D01*
X0386035D01*
X0385114Y0292623D01*
Y0294882D01*
X0386128D01*
Y03D01*
X0379435D01*
Y03D01*
X0379286D01*
Y03D01*
X0372593D01*
Y0294882D01*
X0373587D01*
Y029138D01*
X0373765Y0290488D01*
X0374271Y0289731D01*
X0379467Y0284534D01*
X0379497Y0284462D01*
X0380162Y0283797D01*
X038103Y0283438D01*
X038197D01*
X0382838Y0283797D01*
X0383503Y0284462D01*
X0383862Y028533D01*
Y028627D01*
X0383545Y0287036D01*
X0383847Y0287375D01*
X0383892Y0287406D01*
X0384177Y0287215D01*
X0385069Y0287038D01*
X0389772D01*
Y028563D01*
X0404732D01*
Y0293004D01*
X0404732Y029311D01*
Y0293504D01*
X0404732Y029361D01*
Y0295677D01*
X0435244D01*
X0435844Y0295796D01*
X0436352Y0296136D01*
X0448308Y0308092D01*
X0448648Y03086D01*
X0448768Y03092D01*
Y03793D01*
X0448648Y03799D01*
X0448308Y0380408D01*
X0435308Y0393408D01*
X0434823Y0393733D01*
X0434817Y039377D01*
X0434995Y0394233D01*
X0436651D01*
X0467292Y0363592D01*
X04678Y0363252D01*
X04684Y0363133D01*
X0555251D01*
X0560332Y0358051D01*
Y0328949D01*
X0559461Y0328078D01*
X0558961Y0328233D01*
X0558961Y0330281D01*
X0559173Y0330693D01*
X0559173Y0330924D01*
Y0334146D01*
X055148D01*
X0543787D01*
Y0330924D01*
X0543787Y0330693D01*
X0544Y0330281D01*
X0544Y0330193D01*
Y0323032D01*
X0544D01*
Y0322638D01*
X0544D01*
X0544Y0315388D01*
X0543787Y0314976D01*
X0543787Y0314746D01*
Y0311524D01*
X055148D01*
X0559173D01*
Y0314746D01*
X0559173Y0314976D01*
X0558961Y0315388D01*
X0558961Y031733D01*
X0560898D01*
X0561497Y0317449D01*
X0562006Y0317789D01*
X0566208Y0321992D01*
X0566548Y03225D01*
X0566668Y03231D01*
Y0347601D01*
X0566835Y0348032D01*
X0567168Y0348032D01*
X0580614D01*
Y0355118D01*
X0567168D01*
X0566835Y0355118D01*
X0566668Y0355549D01*
Y03599D01*
X0566548Y03605D01*
X0566208Y0361008D01*
X0558208Y0369008D01*
X05577Y0369348D01*
X05571Y0369467D01*
X0472749D01*
X0441608Y0400608D01*
X04411Y0400948D01*
X04405Y0401067D01*
X02143D01*
X02137Y0400948D01*
X0213192Y0400608D01*
X0173862Y0361279D01*
X01734Y036147D01*
Y0364302D01*
X0211166Y0402068D01*
X0226258D01*
X022633Y0402038D01*
X022727D01*
X0228138Y0402397D01*
X0228803Y0403062D01*
X0229162Y040393D01*
Y040487D01*
X0228803Y0405738D01*
X0228138Y0406403D01*
X022727Y0406762D01*
X022633D01*
X0226258Y0406732D01*
X02102D01*
X0209308Y0406555D01*
X0208551Y0406049D01*
X0173862Y037136D01*
X01734Y0371551D01*
Y0396579D01*
X0185221D01*
Y0408421D01*
X01734D01*
Y04484D01*
X0205208D01*
X0206153Y0447934D01*
D02*
G37*
G36*
X0713469Y0370796D02*
X0715798Y0370333D01*
X0718046Y036957D01*
X0720176Y036852D01*
X072215Y03672D01*
X0723935Y0365635D01*
X07255Y036385D01*
X072682Y0361876D01*
X072787Y0359746D01*
X0728633Y0357498D01*
X0729096Y0355169D01*
X0729249Y0352835D01*
X0729242Y03528D01*
Y0325283D01*
X0729247Y0325258D01*
X0729103Y032306D01*
X0728669Y0320875D01*
X0727953Y0318765D01*
X0726967Y0316767D01*
X0725729Y0314915D01*
X072426Y031324D01*
X0722585Y0311771D01*
X0720733Y0310533D01*
X0718735Y0309547D01*
X0716625Y0308831D01*
X071444Y0308397D01*
X0712242Y0308253D01*
X0712217Y0308258D01*
X0679474D01*
X0679322Y0308758D01*
X0679373Y0308792D01*
X068225Y0311669D01*
X0683064Y0311451D01*
X0684048D01*
X0685Y0311706D01*
X0685852Y0312198D01*
X0686549Y0312895D01*
X0687041Y0313748D01*
X0687296Y0314699D01*
Y0315684D01*
X0687041Y0316635D01*
X0686549Y0317488D01*
X0686104Y0317933D01*
X0686311Y0318432D01*
X07192D01*
X07198Y0318552D01*
X0720308Y0318892D01*
X0725808Y0324392D01*
X0726148Y03249D01*
X0726267Y03255D01*
Y03508D01*
X0726148Y03514D01*
X0725808Y0351908D01*
X0722108Y0355608D01*
X07216Y0355948D01*
X0721Y0356067D01*
X06903D01*
X06897Y0355948D01*
X0689192Y0355608D01*
X0685251Y0351667D01*
X0633445D01*
X0632952Y0351872D01*
X0632248D01*
X0631596Y0351602D01*
X0631098Y0351104D01*
X0630828Y0350452D01*
Y0349748D01*
X0631098Y0349096D01*
X0631596Y0348598D01*
X0632248Y0348328D01*
X0632952D01*
X0633445Y0348533D01*
X06859D01*
X06865Y0348652D01*
X0687008Y0348992D01*
X0690412Y0352395D01*
X0690836Y0352112D01*
X0690728Y0351852D01*
Y0351148D01*
X0690998Y0350496D01*
X0691496Y0349998D01*
X0692148Y0349728D01*
X0692852D01*
X0693345Y0349933D01*
X0718351D01*
X0720232Y0348051D01*
Y0326949D01*
X0717651Y0324367D01*
X06583D01*
X06577Y0324248D01*
X0657192Y0323908D01*
X0650042Y0316759D01*
X0641038D01*
X0640617Y0317488D01*
X0639921Y0318184D01*
X0639068Y0318677D01*
X0638117Y0318932D01*
X0637132D01*
X063618Y0318677D01*
X0635328Y0318184D01*
X0634631Y0317488D01*
X0634139Y0316635D01*
X0633884Y0315684D01*
Y0314699D01*
X0634139Y0313748D01*
X0634631Y0312895D01*
X0635328Y0312198D01*
X0635728Y0311967D01*
X0635594Y0311468D01*
X0617114D01*
X061698Y0311967D01*
X0617085Y0312028D01*
X0617821Y0312764D01*
X0618342Y0313666D01*
X0618611Y0314671D01*
Y0314691D01*
X0614658D01*
X0610706D01*
Y0314671D01*
X0610975Y0313666D01*
X0611495Y0312764D01*
X0612231Y0312028D01*
X0612336Y0311967D01*
X0612203Y0311468D01*
X0594D01*
X05934Y0311348D01*
X0592892Y0311008D01*
X059127Y0309387D01*
X0590613Y0310044D01*
Y0362356D01*
X0596144Y0367887D01*
X0623029D01*
Y0367046D01*
X0621389D01*
Y0360353D01*
X0627295D01*
Y0367046D01*
X0625655D01*
Y0368614D01*
X0625555Y0369116D01*
X062527Y0369542D01*
X0624684Y0370128D01*
X0624259Y0370413D01*
X062411Y0370442D01*
X0624159Y0370942D01*
X07111D01*
X0711135Y0370949D01*
X0713469Y0370796D01*
D02*
G37*
G36*
X02945Y03714D02*
X0306556D01*
X0306659Y0370915D01*
X0306659Y03709D01*
X0305997Y0370238D01*
X0305638Y036937D01*
Y036843D01*
X0305997Y0367562D01*
X0306662Y0366897D01*
X030753Y0366538D01*
X030847D01*
X0308473Y0366539D01*
X0312363D01*
X0313168Y0365734D01*
Y036437D01*
X0312013D01*
Y0359252D01*
X0318706D01*
Y0359479D01*
X0320462D01*
Y0359252D01*
X0327155D01*
Y0359479D01*
X0332913D01*
Y0359055D01*
X0356142D01*
Y0364567D01*
X0332913D01*
Y0364143D01*
X0327155D01*
Y036437D01*
X0320462D01*
Y0364143D01*
X0318706D01*
Y036437D01*
X0317832D01*
Y03667D01*
X0317655Y0367593D01*
X0317149Y0368349D01*
X0314978Y037052D01*
X031441Y03709D01*
X0314562Y03714D01*
X03164D01*
X03212Y03666D01*
X03618D01*
Y0344799D01*
X0361336Y0344644D01*
X03613Y0344643D01*
X0358771Y0347171D01*
X0358263Y0347511D01*
X0357663Y0347631D01*
X0356142D01*
Y0348819D01*
X0332913D01*
Y0343307D01*
X0356142D01*
Y0344496D01*
X0357014D01*
X0358632Y0342877D01*
Y0337649D01*
X0356651Y0335667D01*
X0356142D01*
Y0340945D01*
X0332913D01*
Y0339756D01*
X0327155D01*
Y0340748D01*
X0320462D01*
Y0339756D01*
X0318706D01*
Y0340748D01*
X0312013D01*
Y0340748D01*
X0311524Y0340531D01*
X0311267Y0340735D01*
Y03525D01*
X0311148Y03531D01*
X0310808Y0353608D01*
X0286308Y0378108D01*
X02858Y0378448D01*
X02852Y0378568D01*
X02367D01*
X02361Y0378448D01*
X0235592Y0378108D01*
X0207492Y0350008D01*
X0207152Y03495D01*
X0207032Y03489D01*
Y0245749D01*
X0205256Y0243973D01*
X0203812D01*
X0203692Y024418D01*
X0202993Y024488D01*
X0202136Y0245374D01*
X0201181Y024563D01*
X0200192D01*
X0199237Y0245374D01*
X019838Y024488D01*
X0197681Y024418D01*
X0197187Y0243324D01*
X0196931Y0242369D01*
Y024138D01*
X0197187Y0240424D01*
X0197681Y0239568D01*
X019838Y0238869D01*
X0199237Y0238374D01*
X0200192Y0238118D01*
X0201181D01*
X0202136Y0238374D01*
X0202993Y0238869D01*
X0203692Y0239568D01*
X0204187Y0240424D01*
X0204297Y0240838D01*
X0205905D01*
X0206505Y0240957D01*
X0207014Y0241297D01*
X02089Y0243183D01*
X0209443Y0243019D01*
X0209471Y0242876D01*
X0202005Y0235409D01*
X0201181Y023563D01*
X0200192D01*
X0199237Y0235374D01*
X019838Y0234879D01*
X0197681Y023418D01*
X0197187Y0233324D01*
X0196931Y0232368D01*
Y023138D01*
X0197187Y0230424D01*
X0197681Y0229568D01*
X019838Y0228869D01*
X0199237Y0228374D01*
X0200192Y0228118D01*
X0201181D01*
X0202136Y0228374D01*
X0202993Y0228869D01*
X0203692Y0229568D01*
X0204187Y0230424D01*
X0204443Y023138D01*
Y0232368D01*
X0204222Y0233192D01*
X0212408Y0241379D01*
X0212748Y0241887D01*
X0212867Y0242487D01*
Y0347716D01*
X0237484Y0372333D01*
X0284416D01*
X0286282Y0370466D01*
X0286041Y037D01*
X02365D01*
X02147Y03482D01*
Y02365D01*
X02053Y02271D01*
X01947D01*
Y02467D01*
X02033D01*
X02065Y02499D01*
Y03544D01*
X02319Y03798D01*
X02861D01*
X02945Y03714D01*
D02*
G37*
G36*
X0346693Y0324803D02*
X0346459Y03244D01*
X03351D01*
Y03269D01*
X0333068D01*
Y03288D01*
X03301D01*
Y03298D01*
X0333068D01*
Y0332269D01*
X0333459Y0332533D01*
X0346693D01*
Y0324803D01*
D02*
G37*
G36*
X060165Y0307833D02*
X0600386Y0307529D01*
X0598147Y0306602D01*
X0596081Y0305336D01*
X0594238Y0303762D01*
X0592664Y0301919D01*
X0591398Y0299853D01*
X0590471Y0297614D01*
X0589905Y0295257D01*
X0589715Y0292842D01*
X0589742D01*
Y02818D01*
X0589747Y0281776D01*
X0589605Y0279601D01*
X0589175Y0277439D01*
X0588466Y0275352D01*
X0587491Y0273376D01*
X0586267Y0271543D01*
X0584814Y0269886D01*
X0583157Y0268433D01*
X0581324Y0267209D01*
X0579348Y0266234D01*
X0577261Y0265525D01*
X0575099Y0265095D01*
X0572924Y0264953D01*
X05729Y0264958D01*
X04901Y0264958D01*
X048025D01*
Y0264975D01*
X0478743Y0264826D01*
X0477294Y0264387D01*
X0475958Y0263673D01*
X0474788Y0262712D01*
X0473827Y0261542D01*
X0473113Y0260206D01*
X0472674Y0258757D01*
X0472525Y025725D01*
X0472542D01*
Y01195D01*
X0472545Y0119488D01*
X0472412Y0118479D01*
X0472018Y0117527D01*
X047139Y0116709D01*
X0470573Y0116082D01*
X0469621Y0115688D01*
X0468612Y0115555D01*
X04686Y0115558D01*
X037D01*
Y0123283D01*
X0377453Y0130736D01*
X0377953Y0130529D01*
Y0117095D01*
X0385039D01*
Y0130874D01*
X0378499D01*
X0378278Y0131366D01*
X0378486Y0131632D01*
X04347D01*
X04353Y0131752D01*
X0435808Y0132092D01*
X0438608Y0134892D01*
X0438948Y01354D01*
X0439068Y0136D01*
Y0138748D01*
X0440627D01*
X0440913Y0138287D01*
X0441012Y0137785D01*
X0441043Y0137712D01*
X0441058Y0137634D01*
X0441254Y0137161D01*
X0441298Y0137095D01*
X0441328Y0137022D01*
X0441613Y0136597D01*
X0441669Y0136541D01*
X0441713Y0136475D01*
X0442075Y0136113D01*
X0442141Y0136069D01*
X0442197Y0136013D01*
X0442622Y0135728D01*
X0442696Y0135698D01*
X0442761Y0135654D01*
X0443234Y0135458D01*
X0443312Y0135443D01*
X0443385Y0135413D01*
X0443887Y0135313D01*
X0443966D01*
X0444044Y0135297D01*
X0446966D01*
X0447044Y0135313D01*
X0447122D01*
X0447644Y0135416D01*
X0447717Y0135447D01*
X0447795Y0135462D01*
X0448286Y0135666D01*
X0448352Y013571D01*
X0448425Y013574D01*
X0448867Y0136035D01*
X0448923Y0136091D01*
X0448989Y0136135D01*
X0449365Y0136511D01*
X0449409Y0136577D01*
X0449465Y0136633D01*
X044976Y0137075D01*
X044979Y0137148D01*
X0449834Y0137214D01*
X0450038Y0137705D01*
X0450053Y0137783D01*
X0450084Y0137856D01*
X0450187Y0138377D01*
Y0138456D01*
X0450203Y0138534D01*
Y01388D01*
X0450203Y016268D01*
X0450213Y0162886D01*
X0450297Y0163308D01*
X0450454Y0163687D01*
X0450682Y0164028D01*
X0450972Y0164318D01*
X0451313Y0164546D01*
X0451692Y0164703D01*
X0452114Y0164787D01*
X0452321Y0164797D01*
X04591D01*
X0459484Y0164797D01*
X0459562Y0164813D01*
X0459641D01*
X0460394Y0164962D01*
X0460467Y0164993D01*
X0460545Y0165008D01*
X0461255Y0165302D01*
X046132Y0165346D01*
X0461393Y0165376D01*
X0462032Y0165803D01*
X0462088Y0165859D01*
X0462154Y0165903D01*
X0462697Y0166446D01*
X0462741Y0166512D01*
X0462797Y0166568D01*
X0463224Y0167207D01*
X0463254Y016728D01*
X0463298Y0167345D01*
X0463592Y0168055D01*
X0463607Y0168133D01*
X0463637Y0168206D01*
X0463787Y0168959D01*
Y0169038D01*
X0463803Y0169116D01*
X0463803Y01695D01*
X0463803Y01695D01*
X0463803Y01739D01*
Y0175315D01*
X0463787Y0175393D01*
Y0175472D01*
X0463664Y017609D01*
X0463634Y0176163D01*
X0463619Y0176241D01*
X0463378Y0176823D01*
X0463334Y0176889D01*
X0463303Y0176962D01*
X0462953Y0177486D01*
X0462897Y0177542D01*
X0462853Y0177608D01*
X0462408Y0178053D01*
X0462342Y0178097D01*
X0462286Y0178153D01*
X0461762Y0178503D01*
X0461689Y0178534D01*
X0461623Y0178577D01*
X0461041Y0178819D01*
X0460963Y0178834D01*
X046089Y0178864D01*
X0460272Y0178987D01*
X0460193D01*
X0460115Y0179003D01*
X0438581D01*
X0438274Y0178942D01*
X0438274Y0178942D01*
X043787Y0178774D01*
X043787Y0178774D01*
X0437609Y01786D01*
X0437609Y01786D01*
X04373Y0178291D01*
X0437126Y017803D01*
X0436958Y0177626D01*
X0436897Y0177319D01*
Y0159941D01*
X0436958Y0159634D01*
X0437156Y0159156D01*
X043733Y0158896D01*
X0437696Y015853D01*
X0437956Y0158356D01*
X0438434Y0158158D01*
X0438741Y0158097D01*
X043898D01*
X0439166Y0158088D01*
X0439549Y0158012D01*
X0439892Y015787D01*
X0440201Y0157664D01*
X0440463Y0157401D01*
X044067Y0157092D01*
X0440812Y015675D01*
X0440861Y0156503D01*
X0440861Y0156503D01*
Y0156503D01*
X0440888Y0156366D01*
X0440897Y0156179D01*
Y0153709D01*
X0433924Y0153709D01*
X0433512Y0153921D01*
X0433281Y0153921D01*
X0430059D01*
Y0146228D01*
Y0138535D01*
X0433281D01*
X0433512Y0138535D01*
X0433924Y0138748D01*
X0435932Y0138748D01*
Y0136649D01*
X0434051Y0134767D01*
X03777D01*
X03771Y0134648D01*
X0376592Y0134308D01*
X0370462Y0128179D01*
X037Y012837D01*
Y0140881D01*
X0370148Y0141433D01*
X0370417Y014348D01*
X0370417Y0144512D01*
X0370417Y0144512D01*
X0370417Y0144512D01*
X0370417Y0145544D01*
X0370148Y014759D01*
X037Y0148142D01*
Y0160433D01*
X0373121D01*
X0373721Y0160552D01*
X037423Y0160892D01*
X0375108Y016177D01*
X0375448Y0162279D01*
X0375568Y0162879D01*
Y0169351D01*
X0375944Y0169727D01*
X0376444Y016952D01*
Y0164544D01*
X0377394D01*
Y0161768D01*
X0376232D01*
Y0155832D01*
X0381597D01*
Y01367D01*
X0381658Y0136393D01*
X0381832Y0136132D01*
X0382093Y0135958D01*
X03824Y0135897D01*
X04149D01*
X0415207Y0135958D01*
X0415468Y0136132D01*
X0415642Y0136393D01*
X0415703Y01367D01*
Y0156469D01*
X0415676Y0156605D01*
X0415655Y0156743D01*
X0415645Y0156758D01*
X0415642Y0156776D01*
X0415564Y0156892D01*
X0415493Y015701D01*
X0415161Y0157373D01*
X0415146Y0157384D01*
X0415136Y0157399D01*
X0415021Y0157476D01*
X0414909Y0157559D01*
X0414891Y0157563D01*
X0414876Y0157573D01*
X041474Y01576D01*
X0414605Y0157633D01*
X0414356Y0158031D01*
Y0161569D01*
X0414605Y0161967D01*
X041474Y0162D01*
X0414876Y0162027D01*
X0414891Y0162037D01*
X0414909Y0162041D01*
X0415021Y0162124D01*
X0415136Y0162201D01*
X0415146Y0162216D01*
X0415161Y0162227D01*
X0415493Y016259D01*
X0415564Y0162708D01*
X0415642Y0162824D01*
X0415645Y0162842D01*
X0415655Y0162857D01*
X0415676Y0162995D01*
X0415703Y0163131D01*
Y0171D01*
X0415642Y0171307D01*
X0415468Y0171568D01*
X0415207Y0171742D01*
X04149Y0171803D01*
X0402633D01*
X040099Y0173445D01*
X0400957Y0173467D01*
X0400932Y0173498D01*
X0400828Y0173554D01*
X040073Y0173619D01*
X0400691Y0173627D01*
X0400656Y0173646D01*
X0400538Y0173657D01*
X0400422Y017368D01*
X0400383Y0173673D01*
X0400344Y0173677D01*
X0400231Y0173642D01*
X0400115Y0173619D01*
X0400082Y0173597D01*
X0400044Y0173586D01*
X0399667Y0173384D01*
X0399534Y0173583D01*
X0396408Y0176708D01*
X03959Y0177048D01*
X03953Y0177167D01*
X03748D01*
X03742Y0177048D01*
X0373692Y0176708D01*
X0371851Y0174867D01*
X037D01*
Y01879D01*
X02942D01*
Y0262697D01*
X0296927D01*
X0297082Y0262595D01*
X0297337Y02622D01*
X0297278Y02619D01*
X0297278Y02619D01*
Y02481D01*
X0297278Y02481D01*
X0297416Y0247403D01*
X0297811Y0246811D01*
X0304439Y0240183D01*
Y0238916D01*
X02991D01*
X0298242Y0238803D01*
X0297442Y0238472D01*
X0296755Y0237945D01*
X0296655Y0237845D01*
X0296129Y0237158D01*
X0295797Y0236358D01*
X0295684Y02355D01*
X0295797Y0234642D01*
X0296129Y0233842D01*
X0296655Y0233155D01*
X0297342Y0232628D01*
X0298142Y0232297D01*
X0299Y0232184D01*
X029976Y0232284D01*
X0316497D01*
Y02283D01*
X0316497Y0228034D01*
X0316513Y0227957D01*
Y0227877D01*
X0316616Y0227356D01*
X0316647Y0227283D01*
X0316662Y0227205D01*
X0316866Y0226714D01*
X031691Y0226648D01*
X031694Y0226575D01*
X0317235Y0226133D01*
X0317291Y0226077D01*
X0317335Y0226011D01*
X0317711Y0225635D01*
X0317777Y0225591D01*
X0317833Y0225535D01*
X0318275Y022524D01*
X0318348Y0225209D01*
X0318414Y0225166D01*
X0318905Y0224962D01*
X0318983Y0224947D01*
X0319056Y0224916D01*
X0319577Y0224813D01*
X0319656D01*
X0319734Y0224797D01*
X032Y0224797D01*
X0415045D01*
X0415122Y0224813D01*
X0415201D01*
X0415877Y0224947D01*
X0415951Y0224977D01*
X0416028Y0224993D01*
X0416665Y0225257D01*
X0416731Y0225301D01*
X0416804Y0225331D01*
X0417377Y0225714D01*
X0417433Y022577D01*
X0417499Y0225814D01*
X0417986Y0226301D01*
X041803Y0226367D01*
X0418086Y0226423D01*
X0418469Y0226996D01*
X0418499Y0227069D01*
X0418543Y0227135D01*
X0418807Y0227772D01*
X0418823Y0227849D01*
X0418853Y0227922D01*
X0418987Y0228599D01*
Y0228678D01*
X0419003Y0228755D01*
Y02291D01*
Y0247461D01*
X0419022Y0247654D01*
X0419184Y0248045D01*
X0419455Y0248316D01*
X0419846Y0248478D01*
X0420039Y0248497D01*
X0423479D01*
X0423786Y0248558D01*
X0424117Y0248695D01*
X0424377Y0248869D01*
X0424631Y0249123D01*
X0424805Y0249383D01*
X0424942Y0249714D01*
X0424942Y0249714D01*
X0425003Y0250021D01*
Y02557D01*
Y0259819D01*
X0424942Y0260126D01*
X0424942Y0260126D01*
X0424679Y026076D01*
X0424505Y026102D01*
X042402Y0261505D01*
X042376Y0261679D01*
X0423126Y0261942D01*
X0422819Y0262003D01*
X04079D01*
X04079Y0262003D01*
X0407462Y0262003D01*
X0407155Y0261942D01*
X0406347Y0261607D01*
X0406086Y0261433D01*
X0406086Y0261433D01*
X0405467Y0260814D01*
X0405293Y0260553D01*
X0404958Y0259745D01*
X0404897Y0259438D01*
X0404897Y0259D01*
Y024842D01*
X0404885Y0248165D01*
X0404782Y0247647D01*
X0404587Y0247178D01*
X0404305Y0246755D01*
X0403945Y0246395D01*
X0403522Y0246113D01*
X0403053Y0245918D01*
X0402535Y0245815D01*
X040228Y0245803D01*
X03198D01*
X03198Y0245803D01*
X0319303D01*
X0318995Y0245742D01*
X0318077Y0245361D01*
X0317816Y0245187D01*
X0317816Y0245187D01*
X0317113Y0244484D01*
X0316939Y0244223D01*
X0316939Y0244223D01*
X0316558Y0243304D01*
X0316558Y0243304D01*
X0316497Y0242997D01*
Y0238916D01*
X0308084D01*
Y0240938D01*
X0308084Y0240938D01*
X0307945Y0241636D01*
X030755Y0242227D01*
X030755Y0242227D01*
X0300922Y0248855D01*
Y0261145D01*
X0302477Y02627D01*
X0305D01*
Y0265223D01*
X0310455Y0270678D01*
X03364D01*
X0337097Y0270816D01*
X0337122Y0270832D01*
X038202D01*
X038262Y0270952D01*
X0383128Y0271292D01*
X0384469Y0272633D01*
X0439851D01*
X0445379Y0267104D01*
X0445888Y0266764D01*
X0446487Y0266645D01*
X0573113D01*
X0573712Y0266764D01*
X0574221Y0267104D01*
X0586908Y0279792D01*
X0587248Y02803D01*
X0587367Y02809D01*
Y0301051D01*
X0592558Y0306242D01*
X0592558Y0306242D01*
X0594649Y0308332D01*
X060159D01*
X060165Y0307833D01*
D02*
G37*
G36*
X0423453Y0260938D02*
X0423938Y0260453D01*
X04242Y0259819D01*
Y0259476D01*
Y02557D01*
Y02502D01*
Y0250021D01*
X0424063Y024969D01*
X042381Y0249437D01*
X0423479Y02493D01*
X042D01*
X0419649Y0249265D01*
X0419Y0248997D01*
X0418503Y02485D01*
X0418235Y0247851D01*
X04182Y02475D01*
Y02291D01*
Y0228755D01*
X0418066Y0228079D01*
X0417802Y0227442D01*
X0417419Y0226869D01*
X0416931Y0226381D01*
X0416358Y0225998D01*
X0415721Y0225734D01*
X0415045Y02256D01*
X032D01*
X0319734Y02256D01*
X0319212Y0225704D01*
X0318721Y0225907D01*
X0318279Y0226203D01*
X0317903Y0226579D01*
X0317607Y0227021D01*
X0317404Y0227512D01*
X03173Y0228034D01*
X03173Y02283D01*
Y02283D01*
Y02425D01*
Y0242997D01*
X0317681Y0243916D01*
X0318384Y0244619D01*
X0319303Y0245D01*
X03198D01*
X03198Y0245D01*
X04023D01*
X0402633Y0245016D01*
X0403287Y0245146D01*
X0403903Y0245402D01*
X0404457Y0245772D01*
X0404928Y0246243D01*
X0405299Y0246797D01*
X0405554Y0247413D01*
X0405684Y0248067D01*
X04057Y02484D01*
X04057Y02484D01*
Y0259D01*
X04057Y0259438D01*
X0406035Y0260246D01*
X0406654Y0260865D01*
X0407462Y02612D01*
X04079Y02612D01*
X04079Y02612D01*
X0422819D01*
X0423453Y0260938D01*
D02*
G37*
G36*
X0460733Y0178077D02*
X0461316Y0177836D01*
X046184Y0177486D01*
X0462286Y017704D01*
X0462636Y0176516D01*
X0462877Y0175933D01*
X0463Y0175315D01*
Y01739D01*
X0463Y01695D01*
X0463Y01695D01*
X0463Y0169116D01*
X046285Y0168362D01*
X0462556Y0167653D01*
X0462129Y0167014D01*
X0461586Y0166471D01*
X0460947Y0166044D01*
X0460238Y016575D01*
X0459484Y01656D01*
X04591Y01656D01*
X04523D01*
X04523Y01656D01*
X0452016Y0165586D01*
X0451458Y0165475D01*
X0450933Y0165258D01*
X045046Y0164942D01*
X0450058Y016454D01*
X0449742Y0164067D01*
X0449525Y0163542D01*
X0449414Y0162984D01*
X04494Y01627D01*
X04494Y01388D01*
Y0138534D01*
X0449296Y0138012D01*
X0449093Y0137521D01*
X0448797Y0137079D01*
X0448421Y0136703D01*
X0447979Y0136407D01*
X0447488Y0136204D01*
X0446966Y01361D01*
X0444044D01*
X0443542Y01362D01*
X0443068Y0136396D01*
X0442643Y013668D01*
X044228Y0137043D01*
X0441996Y0137468D01*
X04418Y0137942D01*
X04417Y0138444D01*
Y01562D01*
X04417Y01562D01*
X04417Y01562D01*
X04417Y0156201D01*
X0441687Y0156465D01*
X0441648Y0156659D01*
X0441584Y0156984D01*
X0441381Y0157473D01*
X0441087Y0157913D01*
X0440713Y0158287D01*
X0440273Y0158581D01*
X0439784Y0158784D01*
X0439265Y0158887D01*
X0439Y01589D01*
X0438741D01*
X0438264Y0159098D01*
X0437898Y0159464D01*
X04377Y0159941D01*
Y0177319D01*
X0437867Y0177723D01*
X0438177Y0178033D01*
X0438581Y01782D01*
X0460115D01*
X0460733Y0178077D01*
D02*
G37*
G36*
X0356441Y015839D02*
X0357031Y0158291D01*
X0357524Y0158193D01*
X035841Y0157996D01*
X0359295Y0157701D01*
X0360083Y0157405D01*
X0360968Y0157012D01*
X0361854Y015652D01*
X0362642Y0156028D01*
X0363429Y0155437D01*
X0364216Y0154748D01*
X0360575Y0151106D01*
X0360083Y01515D01*
X0359591Y0151894D01*
X0359098Y0152189D01*
X0358508Y0152484D01*
X0357819Y0152779D01*
X0356933Y0153075D01*
X0355949Y0153272D01*
X0355063Y015337D01*
Y0158488D01*
X0356441Y015839D01*
D02*
G37*
G36*
X0354276Y015337D02*
X035339Y0153272D01*
X0352406Y0153075D01*
X035152Y0152779D01*
X0350831Y0152484D01*
X035024Y0152189D01*
X0349748Y0151894D01*
X0349256Y01515D01*
X0348764Y0151106D01*
X0345122Y0154748D01*
X034591Y0155437D01*
X0346697Y0156028D01*
X0347484Y015652D01*
X034837Y0157012D01*
X0349256Y0157405D01*
X0350043Y0157701D01*
X0350929Y0157996D01*
X0351815Y0158193D01*
X0352307Y0158291D01*
X0352898Y015839D01*
X0354276Y0158488D01*
Y015337D01*
D02*
G37*
G36*
X0365595Y0153272D02*
X0366185Y0152484D01*
X0366677Y0151697D01*
X0367169Y0150811D01*
X0367563Y0149925D01*
X0367858Y0149138D01*
X0368154Y0148252D01*
X036835Y0147366D01*
X0368449Y0146874D01*
X0368547Y0146283D01*
X0368646Y0144905D01*
X0363528D01*
X0363429Y0145791D01*
X0363232Y0146776D01*
X0362937Y0147661D01*
X0362642Y014835D01*
X0362347Y0148941D01*
X0362051Y0149433D01*
X0361658Y0149925D01*
X0361264Y0150417D01*
X0364906Y0154059D01*
X0365595Y0153272D01*
D02*
G37*
G36*
X0348075Y0150417D02*
X0347681Y0149925D01*
X0347287Y0149433D01*
X0346992Y0148941D01*
X0346697Y014835D01*
X0346402Y0147661D01*
X0346106Y0146776D01*
X034591Y0145791D01*
X0345811Y0144905D01*
X0340693D01*
X0340791Y0146283D01*
X034089Y0146874D01*
X0340988Y0147366D01*
X0341185Y0148252D01*
X034148Y0149138D01*
X0341776Y0149925D01*
X0342169Y0150811D01*
X0342661Y0151697D01*
X0343154Y0152484D01*
X0343744Y0153272D01*
X0344433Y0154059D01*
X0348075Y0150417D01*
D02*
G37*
G36*
X04023Y0171D02*
X04149D01*
Y0163131D01*
X0414569Y0162768D01*
X0408632D01*
Y0156832D01*
X0414569D01*
X04149Y0156469D01*
Y01367D01*
X03824D01*
Y0157343D01*
X0384146D01*
Y0159917D01*
Y0162492D01*
X03824D01*
Y01643D01*
X03824Y01643D01*
X03824D01*
X03824Y01643D01*
X0382525Y0164748D01*
X0384146D01*
Y0167323D01*
Y0169898D01*
X0382169D01*
Y0170268D01*
X03797D01*
Y01673D01*
X03787D01*
Y0170268D01*
X0377139D01*
X0376947Y017073D01*
X0377649Y0171432D01*
X0388351D01*
X0388984Y01708D01*
Y0169685D01*
X0388189D01*
Y0164961D01*
X0388984D01*
Y0162279D01*
X0388189D01*
Y0157555D01*
X0388984D01*
Y0153709D01*
X0386811D01*
Y0138748D01*
X0394291D01*
Y0138748D01*
X0394685D01*
Y0138748D01*
X0402165D01*
Y0153709D01*
X0399993D01*
Y0157555D01*
X0400787D01*
Y0162279D01*
X0399993D01*
Y0164961D01*
X0400787D01*
Y0169685D01*
X0399993D01*
Y0172475D01*
X0399962Y0172631D01*
X0400422Y0172878D01*
X04023Y0171D01*
D02*
G37*
G36*
X0368547Y014274D02*
X0368449Y014215D01*
X036835Y0141657D01*
X0368154Y0140772D01*
X0367858Y0139886D01*
X0367563Y0139098D01*
X0367169Y0138213D01*
X0366677Y0137327D01*
X0366185Y0136539D01*
X0365595Y0135752D01*
X0364906Y0134965D01*
X0361264Y0138606D01*
X0361658Y0139098D01*
X0362051Y0139591D01*
X0362347Y0140083D01*
X0362642Y0140673D01*
X0362937Y0141362D01*
X0363232Y0142248D01*
X0363429Y0143232D01*
X0363528Y0144118D01*
X0368646D01*
X0368547Y014274D01*
D02*
G37*
G36*
X034591Y0143232D02*
X0346106Y0142248D01*
X0346402Y0141362D01*
X0346697Y0140673D01*
X0346992Y0140083D01*
X0347287Y0139591D01*
X0347681Y0139098D01*
X0348075Y0138606D01*
X0344433Y0134965D01*
X0343744Y0135752D01*
X0343154Y0136539D01*
X0342661Y0137327D01*
X0342169Y0138213D01*
X0341776Y0139098D01*
X034148Y0139886D01*
X0341185Y0140772D01*
X0340988Y0141657D01*
X034089Y014215D01*
X0340791Y014274D01*
X0340693Y0144118D01*
X0345811D01*
X034591Y0143232D01*
D02*
G37*
G36*
X0364216Y0134276D02*
X0363429Y0133587D01*
X0362642Y0132996D01*
X0361854Y0132504D01*
X0360968Y0132012D01*
X0360083Y0131618D01*
X0359295Y0131323D01*
X035841Y0131028D01*
X0357524Y0130831D01*
X0357031Y0130732D01*
X0356441Y0130634D01*
X0355063Y0130535D01*
Y0135653D01*
X0355949Y0135752D01*
X0356933Y0135949D01*
X0357819Y0136244D01*
X0358508Y0136539D01*
X0359098Y0136835D01*
X0359591Y013713D01*
X0360083Y0137524D01*
X0360575Y0137917D01*
X0364216Y0134276D01*
D02*
G37*
G36*
X0349256Y0137524D02*
X0349748Y013713D01*
X035024Y0136835D01*
X0350831Y0136539D01*
X035152Y0136244D01*
X0352406Y0135949D01*
X035339Y0135752D01*
X0354276Y0135653D01*
Y0130535D01*
X0352898Y0130634D01*
X0352307Y0130732D01*
X0351815Y0130831D01*
X0350929Y0131028D01*
X0350043Y0131323D01*
X0349256Y0131618D01*
X034837Y0132012D01*
X0347484Y0132504D01*
X0346697Y0132996D01*
X034591Y0133587D01*
X0345122Y0134276D01*
X0348764Y0137917D01*
X0349256Y0137524D01*
D02*
G37*
%LPC*%
G36*
X0162262Y0495256D02*
X0159707D01*
X0157174Y0494922D01*
X0154707Y0494261D01*
X0152346Y0493284D01*
X0150134Y0492006D01*
X0148107Y0490451D01*
X0146301Y0488645D01*
X0144746Y0486618D01*
X0143468Y0484406D01*
X0142491Y0482045D01*
X014183Y0479578D01*
X0141496Y0477045D01*
Y047449D01*
X014183Y0471958D01*
X0142491Y046949D01*
X0143468Y046713D01*
X0144746Y0464917D01*
X0146301Y0462891D01*
X0148107Y0461084D01*
X0150134Y0459529D01*
X0152346Y0458252D01*
X0154707Y0457274D01*
X0157174Y0456613D01*
X0159707Y045628D01*
X0162262D01*
X0164794Y0456613D01*
X0167262Y0457274D01*
X0169622Y0458252D01*
X0171835Y0459529D01*
X0173861Y0461084D01*
X0175668Y0462891D01*
X0177223Y0464917D01*
X01785Y046713D01*
X0179478Y046949D01*
X0180139Y0471958D01*
X0180472Y047449D01*
Y0477045D01*
X0180139Y0479578D01*
X0179478Y0482045D01*
X01785Y0484406D01*
X0177223Y0486618D01*
X0175668Y0488645D01*
X0173861Y0490451D01*
X0171835Y0492006D01*
X0169622Y0493284D01*
X0167262Y0494261D01*
X0164794Y0494922D01*
X0162262Y0495256D01*
D02*
G37*
G36*
X0169473Y0408421D02*
X0164052D01*
Y0403D01*
X0169473D01*
Y0408421D01*
D02*
G37*
G36*
X0163052D02*
X0157631D01*
Y0403D01*
X0163052D01*
Y0408421D01*
D02*
G37*
G36*
X0169473Y0402D02*
X0164052D01*
Y0396579D01*
X0169473D01*
Y0402D01*
D02*
G37*
G36*
X0163052D02*
X0157631D01*
Y0396579D01*
X0163052D01*
Y0402D01*
D02*
G37*
G36*
X0282188Y0336199D02*
X027459D01*
Y0328601D01*
X0282188D01*
Y0336199D01*
D02*
G37*
G36*
X0048889D02*
X0047889D01*
X0046922Y033594D01*
X0046056Y033544D01*
X0045349Y0334733D01*
X0044849Y0333866D01*
X004459Y03329D01*
Y03319D01*
X0044849Y0330934D01*
X0045349Y0330067D01*
X0046056Y032936D01*
X0046922Y032886D01*
X0047889Y0328601D01*
X0048889D01*
X0049855Y032886D01*
X0050722Y032936D01*
X0051429Y0330067D01*
X0051929Y0330934D01*
X0052188Y03319D01*
Y03329D01*
X0051929Y0333866D01*
X0051429Y0334733D01*
X0050722Y033544D01*
X0049855Y033594D01*
X0048889Y0336199D01*
D02*
G37*
G36*
X0042188D02*
X003459D01*
Y0328601D01*
X0042188D01*
Y0336199D01*
D02*
G37*
G36*
X0278889Y0326199D02*
X0277889D01*
X0276922Y032594D01*
X0276056Y032544D01*
X0275349Y0324733D01*
X0274849Y0323866D01*
X027459Y03229D01*
Y03219D01*
X0274849Y0320934D01*
X0275349Y0320067D01*
X0276056Y031936D01*
X0276922Y031886D01*
X0277889Y0318601D01*
X0278889D01*
X0279855Y031886D01*
X0280722Y031936D01*
X0281429Y0320067D01*
X0281929Y0320934D01*
X0282188Y03219D01*
Y03229D01*
X0281929Y0323866D01*
X0281429Y0324733D01*
X0280722Y032544D01*
X0279855Y032594D01*
X0278889Y0326199D01*
D02*
G37*
G36*
X0048889D02*
X0047889D01*
X0046922Y032594D01*
X0046056Y032544D01*
X0045349Y0324733D01*
X0044849Y0323866D01*
X004459Y03229D01*
Y03219D01*
X0044849Y0320934D01*
X0045349Y0320067D01*
X0046056Y031936D01*
X0046922Y031886D01*
X0047889Y0318601D01*
X0048889D01*
X0049855Y031886D01*
X0050722Y031936D01*
X0051429Y0320067D01*
X0051929Y0320934D01*
X0052188Y03219D01*
Y03229D01*
X0051929Y0323866D01*
X0051429Y0324733D01*
X0050722Y032544D01*
X0049855Y032594D01*
X0048889Y0326199D01*
D02*
G37*
G36*
X0038889D02*
X0037889D01*
X0036922Y032594D01*
X0036056Y032544D01*
X0035349Y0324733D01*
X0034849Y0323866D01*
X003459Y03229D01*
Y03219D01*
X0034849Y0320934D01*
X0035349Y0320067D01*
X0036056Y031936D01*
X0036922Y031886D01*
X0037889Y0318601D01*
X0038889D01*
X0039855Y031886D01*
X0040722Y031936D01*
X0041429Y0320067D01*
X0041929Y0320934D01*
X0042188Y03219D01*
Y03229D01*
X0041929Y0323866D01*
X0041429Y0324733D01*
X0040722Y032544D01*
X0039855Y032594D01*
X0038889Y0326199D01*
D02*
G37*
G36*
X0278889Y0316199D02*
X0277889D01*
X0276922Y031594D01*
X0276056Y031544D01*
X0275349Y0314733D01*
X0274849Y0313866D01*
X027459Y03129D01*
Y03119D01*
X0274849Y0310934D01*
X0275349Y0310067D01*
X0276056Y030936D01*
X0276922Y030886D01*
X0277889Y0308601D01*
X0278889D01*
X0279855Y030886D01*
X0280722Y030936D01*
X0281429Y0310067D01*
X0281929Y0310934D01*
X0282188Y03119D01*
Y03129D01*
X0281929Y0313866D01*
X0281429Y0314733D01*
X0280722Y031544D01*
X0279855Y031594D01*
X0278889Y0316199D01*
D02*
G37*
G36*
X0038889D02*
X0037889D01*
X0036922Y031594D01*
X0036056Y031544D01*
X0035349Y0314733D01*
X0034849Y0313866D01*
X003459Y03129D01*
Y03119D01*
X0034849Y0310934D01*
X0035349Y0310067D01*
X0036056Y030936D01*
X0036922Y030886D01*
X0037889Y0308601D01*
X0038889D01*
X0039855Y030886D01*
X0040722Y030936D01*
X0041429Y0310067D01*
X0041929Y0310934D01*
X0042188Y03119D01*
Y03129D01*
X0041929Y0313866D01*
X0041429Y0314733D01*
X0040722Y031544D01*
X0039855Y031594D01*
X0038889Y0316199D01*
D02*
G37*
G36*
X0071498Y0307691D02*
X0068439D01*
Y03068D01*
X0064139D01*
Y0307691D01*
X0057021D01*
Y03068D01*
X0046D01*
X00441Y03049D01*
Y02998D01*
X00461Y02978D01*
X00517D01*
X00563Y03024D01*
X0057021D01*
Y0302148D01*
X0064139D01*
Y03024D01*
X0068439D01*
Y0302148D01*
X0071498D01*
Y030492D01*
Y0307691D01*
D02*
G37*
G36*
X0075557D02*
X0072498D01*
Y030542D01*
X0075557D01*
Y0307691D01*
D02*
G37*
G36*
Y030442D02*
X0072498D01*
Y0302148D01*
X0075557D01*
Y030442D01*
D02*
G37*
G36*
X0278889Y0306199D02*
X0277889D01*
X0276922Y030594D01*
X0276056Y030544D01*
X0275349Y0304733D01*
X0274849Y0303866D01*
X027459Y03029D01*
Y03019D01*
X0274849Y0300934D01*
X0275349Y0300067D01*
X0276056Y029936D01*
X0276922Y029886D01*
X0277889Y0298601D01*
X0278889D01*
X0279855Y029886D01*
X0280722Y029936D01*
X0281429Y0300067D01*
X0281929Y0300934D01*
X0282188Y03019D01*
Y03029D01*
X0281929Y0303866D01*
X0281429Y0304733D01*
X0280722Y030544D01*
X0279855Y030594D01*
X0278889Y0306199D01*
D02*
G37*
G36*
X0038889D02*
X0037889D01*
X0036922Y030594D01*
X0036056Y030544D01*
X0035349Y0304733D01*
X0034849Y0303866D01*
X003459Y03029D01*
Y03019D01*
X0034849Y0300934D01*
X0035349Y0300067D01*
X0036056Y029936D01*
X0036922Y029886D01*
X0037889Y0298601D01*
X0038889D01*
X0039855Y029886D01*
X0040722Y029936D01*
X0041429Y0300067D01*
X0041929Y0300934D01*
X0042188Y03019D01*
Y03029D01*
X0041929Y0303866D01*
X0041429Y0304733D01*
X0040722Y030544D01*
X0039855Y030594D01*
X0038889Y0306199D01*
D02*
G37*
G36*
X0278917Y0296412D02*
X0278889D01*
Y02929D01*
X0282401D01*
Y0292928D01*
X0282127Y0293949D01*
X0281599Y0294863D01*
X0280852Y029561D01*
X0279938Y0296138D01*
X0278917Y0296412D01*
D02*
G37*
G36*
X0277889D02*
X0277861D01*
X027684Y0296138D01*
X0275926Y029561D01*
X0275179Y0294863D01*
X0274651Y0293949D01*
X0274377Y0292928D01*
Y02929D01*
X0277889D01*
Y0296412D01*
D02*
G37*
G36*
X0048889Y0296199D02*
X0047889D01*
X0046922Y029594D01*
X0046056Y029544D01*
X0045349Y0294733D01*
X0044849Y0293866D01*
X004459Y02929D01*
Y02919D01*
X0044849Y0290934D01*
X0045349Y0290067D01*
X0046056Y028936D01*
X0046922Y028886D01*
X0047889Y0288601D01*
X0048889D01*
X0049855Y028886D01*
X0050722Y028936D01*
X0051429Y0290067D01*
X0051929Y0290934D01*
X0052188Y02919D01*
Y02929D01*
X0051929Y0293866D01*
X0051429Y0294733D01*
X0050722Y029544D01*
X0049855Y029594D01*
X0048889Y0296199D01*
D02*
G37*
G36*
X0038889D02*
X0037889D01*
X0036922Y029594D01*
X0036056Y029544D01*
X0035349Y0294733D01*
X0034849Y0293866D01*
X003459Y02929D01*
Y02919D01*
X0034849Y0290934D01*
X0035349Y0290067D01*
X0036056Y028936D01*
X0036922Y028886D01*
X0037889Y0288601D01*
X0038889D01*
X0039855Y028886D01*
X0040722Y028936D01*
X0041429Y0290067D01*
X0041929Y0290934D01*
X0042188Y02919D01*
Y02929D01*
X0041929Y0293866D01*
X0041429Y0294733D01*
X0040722Y029544D01*
X0039855Y029594D01*
X0038889Y0296199D01*
D02*
G37*
G36*
X0282401Y02919D02*
X0278889D01*
Y0288388D01*
X0278917D01*
X0279938Y0288662D01*
X0280852Y028919D01*
X0281599Y0289937D01*
X0282127Y0290851D01*
X0282401Y0291872D01*
Y02919D01*
D02*
G37*
G36*
X0277889D02*
X0274377D01*
Y0291872D01*
X0274651Y0290851D01*
X0275179Y0289937D01*
X0275926Y028919D01*
X027684Y0288662D01*
X0277861Y0288388D01*
X0277889D01*
Y02919D01*
D02*
G37*
G36*
X0201181Y029563D02*
X0200192D01*
X0199237Y0295374D01*
X019838Y029488D01*
X0197681Y029418D01*
X0197187Y0293324D01*
X0196931Y0292369D01*
Y029138D01*
X0197187Y0290424D01*
X0197681Y0289568D01*
X019838Y0288869D01*
X0199237Y0288374D01*
X0200192Y0288118D01*
X0201181D01*
X0202136Y0288374D01*
X0202993Y0288869D01*
X0203692Y0289568D01*
X0204187Y0290424D01*
X0204443Y029138D01*
Y0292369D01*
X0204187Y0293324D01*
X0203692Y029418D01*
X0202993Y029488D01*
X0202136Y0295374D01*
X0201181Y029563D01*
D02*
G37*
G36*
X0201209Y0285842D02*
X0201187D01*
Y0282374D01*
X0204655D01*
Y0282397D01*
X0204385Y0283406D01*
X0203862Y0284311D01*
X0203123Y028505D01*
X0202218Y0285572D01*
X0201209Y0285842D01*
D02*
G37*
G36*
X0200187D02*
X0200164D01*
X0199155Y0285572D01*
X019825Y028505D01*
X0197511Y0284311D01*
X0196989Y0283406D01*
X0196718Y0282397D01*
Y0282374D01*
X0200187D01*
Y0285842D01*
D02*
G37*
G36*
X0288889Y0286199D02*
X0287889D01*
X0286923Y028594D01*
X0286056Y028544D01*
X0285349Y0284733D01*
X0284849Y0283866D01*
X028459Y02829D01*
Y02819D01*
X0284849Y0280934D01*
X0285349Y0280067D01*
X0286056Y027936D01*
X0286923Y027886D01*
X0287889Y0278601D01*
X0288889D01*
X0289855Y027886D01*
X0290722Y027936D01*
X0291429Y0280067D01*
X0291929Y0280934D01*
X0292188Y02819D01*
Y02829D01*
X0291929Y0283866D01*
X0291429Y0284733D01*
X0290722Y028544D01*
X0289855Y028594D01*
X0288889Y0286199D01*
D02*
G37*
G36*
X0278889D02*
X0277889D01*
X0276922Y028594D01*
X0276056Y028544D01*
X0275349Y0284733D01*
X0274849Y0283866D01*
X027459Y02829D01*
Y02819D01*
X0274849Y0280934D01*
X0275349Y0280067D01*
X0276056Y027936D01*
X0276922Y027886D01*
X0277889Y0278601D01*
X0278889D01*
X0279855Y027886D01*
X0280722Y027936D01*
X0281429Y0280067D01*
X0281929Y0280934D01*
X0282188Y02819D01*
Y02829D01*
X0281929Y0283866D01*
X0281429Y0284733D01*
X0280722Y028544D01*
X0279855Y028594D01*
X0278889Y0286199D01*
D02*
G37*
G36*
X0048889D02*
X0047889D01*
X0046922Y028594D01*
X0046056Y028544D01*
X0045349Y0284733D01*
X0044849Y0283866D01*
X004459Y02829D01*
Y02819D01*
X0044849Y0280934D01*
X0045349Y0280067D01*
X0046056Y027936D01*
X0046922Y027886D01*
X0047889Y0278601D01*
X0048889D01*
X0049855Y027886D01*
X0050722Y027936D01*
X0051429Y0280067D01*
X0051929Y0280934D01*
X0052188Y02819D01*
Y02829D01*
X0051929Y0283866D01*
X0051429Y0284733D01*
X0050722Y028544D01*
X0049855Y028594D01*
X0048889Y0286199D01*
D02*
G37*
G36*
X0038889D02*
X0037889D01*
X0036922Y028594D01*
X0036056Y028544D01*
X0035349Y0284733D01*
X0034849Y0283866D01*
X003459Y02829D01*
Y02819D01*
X0034849Y0280934D01*
X0035349Y0280067D01*
X0036056Y027936D01*
X0036922Y027886D01*
X0037889Y0278601D01*
X0038889D01*
X0039855Y027886D01*
X0040722Y027936D01*
X0041429Y0280067D01*
X0041929Y0280934D01*
X0042188Y02819D01*
Y02829D01*
X0041929Y0283866D01*
X0041429Y0284733D01*
X0040722Y028544D01*
X0039855Y028594D01*
X0038889Y0286199D01*
D02*
G37*
G36*
X0204655Y0281374D02*
X0201187D01*
Y0277906D01*
X0201209D01*
X0202218Y0278176D01*
X0203123Y0278698D01*
X0203862Y0279437D01*
X0204385Y0280342D01*
X0204655Y0281352D01*
Y0281374D01*
D02*
G37*
G36*
X0200187D02*
X0196718D01*
Y0281352D01*
X0196989Y0280342D01*
X0197511Y0279437D01*
X019825Y0278698D01*
X0199155Y0278176D01*
X0200164Y0277906D01*
X0200187D01*
Y0281374D01*
D02*
G37*
G36*
X0095979Y0272652D02*
X009292D01*
Y027038D01*
X0095979D01*
Y0272652D01*
D02*
G37*
G36*
X024537Y0322562D02*
X024443D01*
X0243562Y0322203D01*
X0242897Y0321538D01*
X0242538Y032067D01*
Y031973D01*
X0242568Y0319658D01*
Y0272242D01*
X0242538Y027217D01*
Y027123D01*
X0242897Y0270362D01*
X0243562Y0269697D01*
X024443Y0269338D01*
X024537D01*
X0246238Y0269697D01*
X0246903Y0270362D01*
X0247262Y027123D01*
Y027217D01*
X0247232Y0272242D01*
Y0319658D01*
X0247262Y031973D01*
Y032067D01*
X0246903Y0321538D01*
X0246238Y0322203D01*
X024537Y0322562D01*
D02*
G37*
G36*
X0048889Y0276199D02*
X0047889D01*
X0046922Y027594D01*
X0046056Y027544D01*
X0045349Y0274733D01*
X0044849Y0273866D01*
X004459Y02729D01*
Y02719D01*
X0044849Y0270934D01*
X0045349Y0270067D01*
X0046056Y026936D01*
X0046333Y02692D01*
X0046199Y02687D01*
X0040579D01*
X0040445Y02692D01*
X0040722Y026936D01*
X0041429Y0270067D01*
X0041929Y0270934D01*
X0042188Y02719D01*
Y02729D01*
X0041929Y0273866D01*
X0041429Y0274733D01*
X0040722Y027544D01*
X0039855Y027594D01*
X0038889Y0276199D01*
X0037889D01*
X0036922Y027594D01*
X0036056Y027544D01*
X0035349Y0274733D01*
X0034849Y0273866D01*
X003459Y02729D01*
Y02719D01*
X0034849Y0270934D01*
X0035349Y0270067D01*
X0036056Y026936D01*
X0036333Y02692D01*
X0036199Y02687D01*
X00349D01*
X00309Y02647D01*
Y02424D01*
X00351Y02382D01*
X00411D01*
X00428Y02399D01*
Y02454D01*
X00409Y02473D01*
X00356D01*
X00336Y02493D01*
Y02636D01*
X0034824Y0264824D01*
X0035225Y0264517D01*
X0034849Y0263866D01*
X003459Y02629D01*
Y02619D01*
X0034849Y0260934D01*
X0035349Y0260067D01*
X0036056Y025936D01*
X0036922Y025886D01*
X0037889Y0258601D01*
X0038889D01*
X0039855Y025886D01*
X0040722Y025936D01*
X0041429Y0260067D01*
X0041929Y0260934D01*
X0042188Y02619D01*
Y02629D01*
X0041929Y0263866D01*
X0041429Y0264733D01*
X0040722Y026544D01*
X0040618Y02655D01*
X0040752Y0266D01*
X0046026D01*
X004616Y02655D01*
X0046056Y026544D01*
X0045349Y0264733D01*
X0044849Y0263866D01*
X004459Y02629D01*
Y02619D01*
X0044849Y0260934D01*
X0045349Y0260067D01*
X0046056Y025936D01*
X0046922Y025886D01*
X0047889Y0258601D01*
X0048889D01*
X0049855Y025886D01*
X0050722Y025936D01*
X0051429Y0260067D01*
X0051724Y0260578D01*
X0076868D01*
Y0259841D01*
X0083561D01*
Y0260578D01*
X0089073D01*
Y0259841D01*
X0095766D01*
Y0259968D01*
X0108458D01*
X010853Y0259938D01*
X010947D01*
X0110338Y0260297D01*
X0111003Y0260962D01*
X0111362Y026183D01*
Y026277D01*
X0111003Y0263638D01*
X0110338Y0264303D01*
X010947Y0264662D01*
X010853D01*
X0108458Y0264632D01*
X0095766D01*
Y0264959D01*
X0089073D01*
Y0264222D01*
X0083561D01*
Y0264959D01*
X0076868D01*
Y0264222D01*
X0051724D01*
X0051429Y0264733D01*
X0050722Y026544D01*
X0050618Y02655D01*
X0050752Y0266D01*
X00627D01*
X00646Y02679D01*
X0076656D01*
Y0267109D01*
X0083774D01*
Y02679D01*
X0088861D01*
Y0267109D01*
X009192D01*
Y026988D01*
Y0272652D01*
X0064352D01*
X00604Y02687D01*
X0050579D01*
X0050445Y02692D01*
X0050722Y026936D01*
X0051429Y0270067D01*
X0051929Y0270934D01*
X0052188Y02719D01*
Y02729D01*
X0051929Y0273866D01*
X0051429Y0274733D01*
X0050722Y027544D01*
X0049855Y027594D01*
X0048889Y0276199D01*
D02*
G37*
G36*
X0288889D02*
X0287889D01*
X0286923Y027594D01*
X0286056Y027544D01*
X0285349Y0274733D01*
X0284849Y0273866D01*
X028459Y02729D01*
Y02719D01*
X0284849Y0270934D01*
X0285349Y0270067D01*
X0286056Y026936D01*
X0286923Y026886D01*
X0287889Y0268601D01*
X0288889D01*
X0289855Y026886D01*
X0290722Y026936D01*
X0291429Y0270067D01*
X0291929Y0270934D01*
X0292188Y02719D01*
Y02729D01*
X0291929Y0273866D01*
X0291429Y0274733D01*
X0290722Y027544D01*
X0289855Y027594D01*
X0288889Y0276199D01*
D02*
G37*
G36*
X0278889D02*
X0277889D01*
X0276922Y027594D01*
X0276056Y027544D01*
X0275349Y0274733D01*
X0274849Y0273866D01*
X027459Y02729D01*
Y02719D01*
X0274849Y0270934D01*
X0275349Y0270067D01*
X0276056Y026936D01*
X0276922Y026886D01*
X0277889Y0268601D01*
X0278889D01*
X0279855Y026886D01*
X0280722Y026936D01*
X0281429Y0270067D01*
X0281929Y0270934D01*
X0282188Y02719D01*
Y02729D01*
X0281929Y0273866D01*
X0281429Y0274733D01*
X0280722Y027544D01*
X0279855Y027594D01*
X0278889Y0276199D01*
D02*
G37*
G36*
X0201181Y027563D02*
X0200192D01*
X0199237Y0275374D01*
X019838Y027488D01*
X0197681Y027418D01*
X0197187Y0273324D01*
X0196931Y0272369D01*
Y027138D01*
X0197187Y0270424D01*
X0197681Y0269568D01*
X019838Y0268869D01*
X0199237Y0268374D01*
X0200192Y0268118D01*
X0201181D01*
X0202136Y0268374D01*
X0202993Y0268869D01*
X0203692Y0269568D01*
X0204187Y0270424D01*
X0204443Y027138D01*
Y0272369D01*
X0204187Y0273324D01*
X0203692Y027418D01*
X0202993Y027488D01*
X0202136Y0275374D01*
X0201181Y027563D01*
D02*
G37*
G36*
X0095979Y026938D02*
X009292D01*
Y0267109D01*
X0095979D01*
Y026938D01*
D02*
G37*
G36*
X0288889Y0266199D02*
X0287889D01*
X0286923Y026594D01*
X0286056Y026544D01*
X0285349Y0264733D01*
X0284849Y0263866D01*
X028459Y02629D01*
Y02619D01*
X0284849Y0260934D01*
X0285349Y0260067D01*
X0286056Y025936D01*
X0286923Y025886D01*
X0287889Y0258601D01*
X0288889D01*
X0289855Y025886D01*
X0290722Y025936D01*
X0291429Y0260067D01*
X0291929Y0260934D01*
X0292188Y02619D01*
Y02629D01*
X0291929Y0263866D01*
X0291429Y0264733D01*
X0290722Y026544D01*
X0289855Y026594D01*
X0288889Y0266199D01*
D02*
G37*
G36*
X0278889D02*
X0277889D01*
X0276922Y026594D01*
X0276056Y026544D01*
X0275349Y0264733D01*
X0274849Y0263866D01*
X027459Y02629D01*
Y02619D01*
X0274849Y0260934D01*
X0275349Y0260067D01*
X0276056Y025936D01*
X0276922Y025886D01*
X0277889Y0258601D01*
X0278889D01*
X0279855Y025886D01*
X0280722Y025936D01*
X0281429Y0260067D01*
X0281929Y0260934D01*
X0282188Y02619D01*
Y02629D01*
X0281929Y0263866D01*
X0281429Y0264733D01*
X0280722Y026544D01*
X0279855Y026594D01*
X0278889Y0266199D01*
D02*
G37*
G36*
X0201181Y026563D02*
X0200192D01*
X0199237Y0265374D01*
X019838Y0264879D01*
X0197681Y026418D01*
X0197187Y0263324D01*
X0196931Y0262368D01*
Y026138D01*
X0197187Y0260424D01*
X0197681Y0259568D01*
X019838Y0258869D01*
X0199237Y0258374D01*
X0200192Y0258118D01*
X0201181D01*
X0202136Y0258374D01*
X0202993Y0258869D01*
X0203692Y0259568D01*
X0204187Y0260424D01*
X0204443Y026138D01*
Y0262368D01*
X0204187Y0263324D01*
X0203692Y026418D01*
X0202993Y0264879D01*
X0202136Y0265374D01*
X0201181Y026563D01*
D02*
G37*
G36*
X0288889Y0256199D02*
X0287889D01*
X0286923Y025594D01*
X0286056Y025544D01*
X0285349Y0254733D01*
X0284849Y0253866D01*
X028459Y02529D01*
Y02519D01*
X0284849Y0250934D01*
X0285349Y0250067D01*
X0286056Y024936D01*
X0286923Y024886D01*
X0287889Y0248601D01*
X0288889D01*
X0289855Y024886D01*
X0290722Y024936D01*
X0291429Y0250067D01*
X0291929Y0250934D01*
X0292188Y02519D01*
Y02529D01*
X0291929Y0253866D01*
X0291429Y0254733D01*
X0290722Y025544D01*
X0289855Y025594D01*
X0288889Y0256199D01*
D02*
G37*
G36*
X0278889D02*
X0277889D01*
X0276922Y025594D01*
X0276056Y025544D01*
X0275349Y0254733D01*
X0274849Y0253866D01*
X027459Y02529D01*
Y02519D01*
X0274849Y0250934D01*
X0275349Y0250067D01*
X0276056Y024936D01*
X0276922Y024886D01*
X0277889Y0248601D01*
X0278889D01*
X0279855Y024886D01*
X0280722Y024936D01*
X0281429Y0250067D01*
X0281929Y0250934D01*
X0282188Y02519D01*
Y02529D01*
X0281929Y0253866D01*
X0281429Y0254733D01*
X0280722Y025544D01*
X0279855Y025594D01*
X0278889Y0256199D01*
D02*
G37*
G36*
X0038889D02*
X0037889D01*
X0036922Y025594D01*
X0036056Y025544D01*
X0035349Y0254733D01*
X0034849Y0253866D01*
X003459Y02529D01*
Y02519D01*
X0034849Y0250934D01*
X0035349Y0250067D01*
X0036056Y024936D01*
X0036922Y024886D01*
X0037889Y0248601D01*
X0038889D01*
X0039855Y024886D01*
X0040722Y024936D01*
X0041429Y0250067D01*
X0041929Y0250934D01*
X0042188Y02519D01*
Y02529D01*
X0041929Y0253866D01*
X0041429Y0254733D01*
X0040722Y025544D01*
X0039855Y025594D01*
X0038889Y0256199D01*
D02*
G37*
G36*
X0201181Y025563D02*
X0200192D01*
X0199237Y0255374D01*
X019838Y0254879D01*
X0197681Y025418D01*
X0197187Y0253324D01*
X0196931Y0252368D01*
Y025138D01*
X0197187Y0250424D01*
X0197681Y0249568D01*
X019838Y0248869D01*
X0199237Y0248374D01*
X0200192Y0248118D01*
X0201181D01*
X0202136Y0248374D01*
X0202993Y0248869D01*
X0203692Y0249568D01*
X0204187Y0250424D01*
X0204443Y025138D01*
Y0252368D01*
X0204187Y0253324D01*
X0203692Y025418D01*
X0202993Y0254879D01*
X0202136Y0255374D01*
X0201181Y025563D01*
D02*
G37*
G36*
X0141181D02*
X0140192D01*
X0139237Y0255374D01*
X0138381Y0254879D01*
X0137681Y025418D01*
X0137187Y0253324D01*
X0136931Y0252368D01*
Y025138D01*
X0137187Y0250424D01*
X0137681Y0249568D01*
X0138381Y0248869D01*
X0139237Y0248374D01*
X0140192Y0248118D01*
X0141181D01*
X0142136Y0248374D01*
X0142993Y0248869D01*
X0143692Y0249568D01*
X0144187Y0250424D01*
X0144443Y025138D01*
Y0252368D01*
X0144187Y0253324D01*
X0143692Y025418D01*
X0142993Y0254879D01*
X0142136Y0255374D01*
X0141181Y025563D01*
D02*
G37*
G36*
X0091726Y0247691D02*
X0088667D01*
Y02475D01*
X008358D01*
Y0247691D01*
X0076462D01*
Y02475D01*
X00473Y02475D01*
X0044Y02442D01*
Y02303D01*
X00462Y02281D01*
X00507D01*
X00524Y02298D01*
Y0231869D01*
X0052401Y0231872D01*
Y0232928D01*
X00524Y0232931D01*
Y0241D01*
X00536Y02422D01*
X0076462D01*
Y0242148D01*
X008358D01*
Y02422D01*
X0088667D01*
Y0242148D01*
X0091726D01*
Y024492D01*
Y0247691D01*
D02*
G37*
G36*
X0095785D02*
X0092726D01*
Y024542D01*
X0095785D01*
Y0247691D01*
D02*
G37*
G36*
X0288917Y0246412D02*
X0288889D01*
Y02429D01*
X0292401D01*
Y0242928D01*
X0292127Y0243949D01*
X0291599Y0244863D01*
X0290852Y024561D01*
X0289937Y0246138D01*
X0288917Y0246412D01*
D02*
G37*
G36*
X0287889D02*
X0287861D01*
X0286841Y0246138D01*
X0285926Y024561D01*
X0285179Y0244863D01*
X0284651Y0243949D01*
X0284377Y0242928D01*
Y02429D01*
X0287889D01*
Y0246412D01*
D02*
G37*
G36*
X0095785Y024442D02*
X0092726D01*
Y0242148D01*
X0095785D01*
Y024442D01*
D02*
G37*
G36*
X0278889Y0246199D02*
X0277889D01*
X0276922Y024594D01*
X0276056Y024544D01*
X0275349Y0244733D01*
X0274849Y0243866D01*
X027459Y02429D01*
Y02419D01*
X0274849Y0240934D01*
X0275349Y0240067D01*
X0276056Y023936D01*
X0276922Y023886D01*
X0277889Y0238601D01*
X0278889D01*
X0279855Y023886D01*
X0280722Y023936D01*
X0281429Y0240067D01*
X0281929Y0240934D01*
X0282188Y02419D01*
Y02429D01*
X0281929Y0243866D01*
X0281429Y0244733D01*
X0280722Y024544D01*
X0279855Y024594D01*
X0278889Y0246199D01*
D02*
G37*
G36*
X0292401Y02419D02*
X0288889D01*
Y0238388D01*
X0288917D01*
X0289937Y0238662D01*
X0290852Y023919D01*
X0291599Y0239937D01*
X0292127Y0240851D01*
X0292401Y0241872D01*
Y02419D01*
D02*
G37*
G36*
X0287889D02*
X0284377D01*
Y0241872D01*
X0284651Y0240851D01*
X0285179Y0239937D01*
X0285926Y023919D01*
X0286841Y0238662D01*
X0287861Y0238388D01*
X0287889D01*
Y02419D01*
D02*
G37*
G36*
X0141181Y024563D02*
X0140192D01*
X0139237Y0245374D01*
X0138381Y024488D01*
X0137681Y024418D01*
X0137187Y0243324D01*
X0136931Y0242369D01*
Y024138D01*
X0137187Y0240424D01*
X0137681Y0239568D01*
X0138381Y0238869D01*
X0139237Y0238374D01*
X0140192Y0238118D01*
X0141181D01*
X0142136Y0238374D01*
X0142993Y0238869D01*
X0143692Y0239568D01*
X0144187Y0240424D01*
X0144443Y024138D01*
Y0242369D01*
X0144187Y0243324D01*
X0143692Y024418D01*
X0142993Y024488D01*
X0142136Y0245374D01*
X0141181Y024563D01*
D02*
G37*
G36*
X0288889Y0236199D02*
X0287889D01*
X0286923Y023594D01*
X0286056Y023544D01*
X0285349Y0234733D01*
X0284849Y0233866D01*
X028459Y02329D01*
Y02319D01*
X0284849Y0230934D01*
X0285349Y0230067D01*
X0286056Y022936D01*
X0286923Y022886D01*
X0287889Y0228601D01*
X0288889D01*
X0289855Y022886D01*
X0290722Y022936D01*
X0291429Y0230067D01*
X0291929Y0230934D01*
X0292188Y02319D01*
Y02329D01*
X0291929Y0233866D01*
X0291429Y0234733D01*
X0290722Y023544D01*
X0289855Y023594D01*
X0288889Y0236199D01*
D02*
G37*
G36*
X0278889D02*
X0277889D01*
X0276922Y023594D01*
X0276056Y023544D01*
X0275349Y0234733D01*
X0274849Y0233866D01*
X027459Y02329D01*
Y02319D01*
X0274849Y0230934D01*
X0275349Y0230067D01*
X0276056Y022936D01*
X0276922Y022886D01*
X0277889Y0228601D01*
X0278889D01*
X0279855Y022886D01*
X0280722Y022936D01*
X0281429Y0230067D01*
X0281929Y0230934D01*
X0282188Y02319D01*
Y02329D01*
X0281929Y0233866D01*
X0281429Y0234733D01*
X0280722Y023544D01*
X0279855Y023594D01*
X0278889Y0236199D01*
D02*
G37*
G36*
X0038889D02*
X0037889D01*
X0036922Y023594D01*
X0036056Y023544D01*
X0035349Y0234733D01*
X0034849Y0233866D01*
X003459Y02329D01*
Y02319D01*
X0034849Y0230934D01*
X0035349Y0230067D01*
X0036056Y022936D01*
X0036922Y022886D01*
X0037889Y0228601D01*
X0038889D01*
X0039855Y022886D01*
X0040722Y022936D01*
X0041429Y0230067D01*
X0041929Y0230934D01*
X0042188Y02319D01*
Y02329D01*
X0041929Y0233866D01*
X0041429Y0234733D01*
X0040722Y023544D01*
X0039855Y023594D01*
X0038889Y0236199D01*
D02*
G37*
G36*
X0141181Y023563D02*
X0140192D01*
X0139237Y0235374D01*
X0138381Y0234879D01*
X0137681Y023418D01*
X0137187Y0233324D01*
X0136931Y0232368D01*
Y023138D01*
X0137187Y0230424D01*
X0137681Y0229568D01*
X0138381Y0228869D01*
X0139237Y0228374D01*
X0140192Y0228118D01*
X0141181D01*
X0142136Y0228374D01*
X0142993Y0228869D01*
X0143692Y0229568D01*
X0144187Y0230424D01*
X0144443Y023138D01*
Y0232368D01*
X0144187Y0233324D01*
X0143692Y023418D01*
X0142993Y0234879D01*
X0142136Y0235374D01*
X0141181Y023563D01*
D02*
G37*
G36*
X0288889Y0226199D02*
X0287889D01*
X0286923Y022594D01*
X0286056Y022544D01*
X0285349Y0224733D01*
X0284849Y0223866D01*
X028459Y02229D01*
Y02219D01*
X0284849Y0220934D01*
X0285349Y0220067D01*
X0286056Y021936D01*
X0286923Y021886D01*
X0287889Y0218601D01*
X0288889D01*
X0289855Y021886D01*
X0290722Y021936D01*
X0291429Y0220067D01*
X0291929Y0220934D01*
X0292188Y02219D01*
Y02229D01*
X0291929Y0223866D01*
X0291429Y0224733D01*
X0290722Y022544D01*
X0289855Y022594D01*
X0288889Y0226199D01*
D02*
G37*
G36*
X0278889D02*
X0277889D01*
X0276922Y022594D01*
X0276056Y022544D01*
X0275349Y0224733D01*
X0274849Y0223866D01*
X027459Y02229D01*
Y02219D01*
X0274849Y0220934D01*
X0275349Y0220067D01*
X0276056Y021936D01*
X0276922Y021886D01*
X0277889Y0218601D01*
X0278889D01*
X0279855Y021886D01*
X0280722Y021936D01*
X0281429Y0220067D01*
X0281929Y0220934D01*
X0282188Y02219D01*
Y02229D01*
X0281929Y0223866D01*
X0281429Y0224733D01*
X0280722Y022544D01*
X0279855Y022594D01*
X0278889Y0226199D01*
D02*
G37*
G36*
X0048889D02*
X0047889D01*
X0046922Y022594D01*
X0046056Y022544D01*
X0045349Y0224733D01*
X0044849Y0223866D01*
X004459Y02229D01*
Y02219D01*
X0044849Y0220934D01*
X0045349Y0220067D01*
X0046056Y021936D01*
X0046922Y021886D01*
X0047889Y0218601D01*
X0048889D01*
X0049855Y021886D01*
X0050722Y021936D01*
X0051429Y0220067D01*
X0051929Y0220934D01*
X0052188Y02219D01*
Y02229D01*
X0051929Y0223866D01*
X0051429Y0224733D01*
X0050722Y022544D01*
X0049855Y022594D01*
X0048889Y0226199D01*
D02*
G37*
G36*
X0038889D02*
X0037889D01*
X0036922Y022594D01*
X0036056Y022544D01*
X0035349Y0224733D01*
X0034849Y0223866D01*
X003459Y02229D01*
Y02219D01*
X0034849Y0220934D01*
X0035349Y0220067D01*
X0036056Y021936D01*
X0036922Y021886D01*
X0037889Y0218601D01*
X0038889D01*
X0039855Y021886D01*
X0040722Y021936D01*
X0041429Y0220067D01*
X0041929Y0220934D01*
X0042188Y02219D01*
Y02229D01*
X0041929Y0223866D01*
X0041429Y0224733D01*
X0040722Y022544D01*
X0039855Y022594D01*
X0038889Y0226199D01*
D02*
G37*
G36*
X0201181Y022563D02*
X0200192D01*
X0199237Y0225374D01*
X019838Y022488D01*
X0197681Y022418D01*
X0197187Y0223324D01*
X0196931Y0222369D01*
Y022138D01*
X0197187Y0220424D01*
X0197681Y0219568D01*
X019838Y0218869D01*
X0199237Y0218374D01*
X0200192Y0218118D01*
X0201181D01*
X0202136Y0218374D01*
X0202993Y0218869D01*
X0203692Y0219568D01*
X0204187Y0220424D01*
X0204443Y022138D01*
Y0222369D01*
X0204187Y0223324D01*
X0203692Y022418D01*
X0202993Y022488D01*
X0202136Y0225374D01*
X0201181Y022563D01*
D02*
G37*
G36*
X0141181D02*
X0140192D01*
X0139237Y0225374D01*
X0138381Y022488D01*
X0137681Y022418D01*
X0137187Y0223324D01*
X0136931Y0222369D01*
Y022138D01*
X0137187Y0220424D01*
X0137681Y0219568D01*
X0138381Y0218869D01*
X0139237Y0218374D01*
X0140192Y0218118D01*
X0141181D01*
X0142136Y0218374D01*
X0142993Y0218869D01*
X0143692Y0219568D01*
X0144187Y0220424D01*
X0144443Y022138D01*
Y0222369D01*
X0144187Y0223324D01*
X0143692Y022418D01*
X0142993Y022488D01*
X0142136Y0225374D01*
X0141181Y022563D01*
D02*
G37*
G36*
X0288889Y0216199D02*
X0287889D01*
X0286923Y021594D01*
X0286056Y021544D01*
X0285349Y0214733D01*
X0284849Y0213866D01*
X028459Y02129D01*
Y02119D01*
X0284849Y0210934D01*
X0285349Y0210067D01*
X0286056Y020936D01*
X0286923Y020886D01*
X0287889Y0208601D01*
X0288889D01*
X0289855Y020886D01*
X0290722Y020936D01*
X0291429Y0210067D01*
X0291929Y0210934D01*
X0292188Y02119D01*
Y02129D01*
X0291929Y0213866D01*
X0291429Y0214733D01*
X0290722Y021544D01*
X0289855Y021594D01*
X0288889Y0216199D01*
D02*
G37*
G36*
X0278889D02*
X0277889D01*
X0276922Y021594D01*
X0276056Y021544D01*
X0275349Y0214733D01*
X0274849Y0213866D01*
X027459Y02129D01*
Y02119D01*
X0274849Y0210934D01*
X0275349Y0210067D01*
X0276056Y020936D01*
X0276922Y020886D01*
X0277889Y0208601D01*
X0278889D01*
X0279855Y020886D01*
X0280722Y020936D01*
X0281429Y0210067D01*
X0281929Y0210934D01*
X0282188Y02119D01*
Y02129D01*
X0281929Y0213866D01*
X0281429Y0214733D01*
X0280722Y021544D01*
X0279855Y021594D01*
X0278889Y0216199D01*
D02*
G37*
G36*
X0048889D02*
X0047889D01*
X0046922Y021594D01*
X0046056Y021544D01*
X0045349Y0214733D01*
X0044849Y0213866D01*
X004459Y02129D01*
Y02119D01*
X0044849Y0210934D01*
X0045349Y0210067D01*
X0046056Y020936D01*
X0046922Y020886D01*
X0047889Y0208601D01*
X0048889D01*
X0049855Y020886D01*
X0050722Y020936D01*
X0051429Y0210067D01*
X0051929Y0210934D01*
X0052188Y02119D01*
Y02129D01*
X0051929Y0213866D01*
X0051429Y0214733D01*
X0050722Y021544D01*
X0049855Y021594D01*
X0048889Y0216199D01*
D02*
G37*
G36*
X0038889D02*
X0037889D01*
X0036922Y021594D01*
X0036056Y021544D01*
X0035349Y0214733D01*
X0034849Y0213866D01*
X003459Y02129D01*
Y02119D01*
X0034849Y0210934D01*
X0035349Y0210067D01*
X0036056Y020936D01*
X0036922Y020886D01*
X0037889Y0208601D01*
X0038889D01*
X0039855Y020886D01*
X0040722Y020936D01*
X0041429Y0210067D01*
X0041929Y0210934D01*
X0042188Y02119D01*
Y02129D01*
X0041929Y0213866D01*
X0041429Y0214733D01*
X0040722Y021544D01*
X0039855Y021594D01*
X0038889Y0216199D01*
D02*
G37*
G36*
X0201181Y021563D02*
X0200192D01*
X0199237Y0215374D01*
X019838Y0214879D01*
X0197681Y021418D01*
X0197187Y0213324D01*
X0196931Y0212368D01*
Y021138D01*
X0197187Y0210424D01*
X0197681Y0209568D01*
X019838Y0208869D01*
X0199237Y0208374D01*
X0200192Y0208118D01*
X0201181D01*
X0202136Y0208374D01*
X0202993Y0208869D01*
X0203692Y0209568D01*
X0204187Y0210424D01*
X0204443Y021138D01*
Y0212368D01*
X0204187Y0213324D01*
X0203692Y021418D01*
X0202993Y0214879D01*
X0202136Y0215374D01*
X0201181Y021563D01*
D02*
G37*
G36*
X0171181D02*
X0170192D01*
X0169237Y0215374D01*
X016838Y0214879D01*
X0167681Y021418D01*
X0167187Y0213324D01*
X0166931Y0212368D01*
Y021138D01*
X0167187Y0210424D01*
X0167681Y0209568D01*
X016838Y0208869D01*
X0169237Y0208374D01*
X0170192Y0208118D01*
X0171181D01*
X0172136Y0208374D01*
X0172993Y0208869D01*
X0173692Y0209568D01*
X0174187Y0210424D01*
X0174443Y021138D01*
Y0212368D01*
X0174187Y0213324D01*
X0173692Y021418D01*
X0172993Y0214879D01*
X0172136Y0215374D01*
X0171181Y021563D01*
D02*
G37*
G36*
X0161181D02*
X0160192D01*
X0159237Y0215374D01*
X015838Y0214879D01*
X0157681Y021418D01*
X0157187Y0213324D01*
X0156931Y0212368D01*
Y021138D01*
X0157187Y0210424D01*
X0157681Y0209568D01*
X015838Y0208869D01*
X0159237Y0208374D01*
X0160192Y0208118D01*
X0161181D01*
X0162136Y0208374D01*
X0162993Y0208869D01*
X0163692Y0209568D01*
X0164187Y0210424D01*
X0164443Y021138D01*
Y0212368D01*
X0164187Y0213324D01*
X0163692Y021418D01*
X0162993Y0214879D01*
X0162136Y0215374D01*
X0161181Y021563D01*
D02*
G37*
G36*
X0278889Y0206199D02*
X0277889D01*
X0276922Y020594D01*
X0276056Y020544D01*
X0275349Y0204733D01*
X0274907Y0203967D01*
X02691D01*
X02685Y0203848D01*
X0267992Y0203508D01*
X0248592Y0184108D01*
X0248252Y01836D01*
X0248132Y0183D01*
Y01277D01*
X0248252Y01271D01*
X0248592Y0126592D01*
X0252217Y0122966D01*
X0251963Y0122018D01*
Y0120982D01*
X0252231Y011998D01*
X025275Y0119083D01*
X0253483Y011835D01*
X025438Y0117831D01*
X0255382Y0117563D01*
X0256418D01*
X025742Y0117831D01*
X0258317Y011835D01*
X025905Y0119083D01*
X0259569Y011998D01*
X0259837Y0120982D01*
Y0122018D01*
X0259569Y012302D01*
X025905Y0123917D01*
X0258317Y012465D01*
X025742Y0125169D01*
X0256418Y0125437D01*
X0255382D01*
X0254434Y0125183D01*
X0251268Y0128349D01*
Y0182351D01*
X0269749Y0200833D01*
X0274907D01*
X0275349Y0200067D01*
X0276056Y019936D01*
X0276922Y019886D01*
X0277889Y0198601D01*
X0278889D01*
X0279855Y019886D01*
X0280722Y019936D01*
X0281429Y0200067D01*
X0281929Y0200934D01*
X0282188Y02019D01*
Y02029D01*
X0281929Y0203866D01*
X0281429Y0204733D01*
X0280722Y020544D01*
X0279855Y020594D01*
X0278889Y0206199D01*
D02*
G37*
G36*
X0048889D02*
X0047889D01*
X0046922Y020594D01*
X0046056Y020544D01*
X0045349Y0204733D01*
X0044849Y0203866D01*
X004459Y02029D01*
Y02019D01*
X0044849Y0200934D01*
X0045349Y0200067D01*
X0046056Y019936D01*
X0046922Y019886D01*
X0047889Y0198601D01*
X0048889D01*
X0049855Y019886D01*
X0050722Y019936D01*
X0051429Y0200067D01*
X0051929Y0200934D01*
X0052188Y02019D01*
Y02029D01*
X0051929Y0203866D01*
X0051429Y0204733D01*
X0050722Y020544D01*
X0049855Y020594D01*
X0048889Y0206199D01*
D02*
G37*
G36*
X0038889D02*
X0037889D01*
X0036922Y020594D01*
X0036056Y020544D01*
X0035349Y0204733D01*
X0034849Y0203866D01*
X003459Y02029D01*
Y02019D01*
X0034849Y0200934D01*
X0035349Y0200067D01*
X0036056Y019936D01*
X0036922Y019886D01*
X0037889Y0198601D01*
X0038889D01*
X0039855Y019886D01*
X0040722Y019936D01*
X0041429Y0200067D01*
X0041929Y0200934D01*
X0042188Y02019D01*
Y02029D01*
X0041929Y0203866D01*
X0041429Y0204733D01*
X0040722Y020544D01*
X0039855Y020594D01*
X0038889Y0206199D01*
D02*
G37*
G36*
Y0196199D02*
X0037889D01*
X0036922Y019594D01*
X0036056Y019544D01*
X0035349Y0194733D01*
X0034849Y0193866D01*
X003459Y01929D01*
Y01919D01*
X0034849Y0190934D01*
X0035349Y0190067D01*
X0036056Y018936D01*
X0036922Y018886D01*
X0037889Y0188601D01*
X0038889D01*
X0039855Y018886D01*
X0040722Y018936D01*
X0041429Y0190067D01*
X0041929Y0190934D01*
X0042188Y01919D01*
Y01929D01*
X0041929Y0193866D01*
X0041429Y0194733D01*
X0040722Y019544D01*
X0039855Y019594D01*
X0038889Y0196199D01*
D02*
G37*
G36*
X0288917Y0186412D02*
X0288889D01*
Y01829D01*
X0292401D01*
Y0182928D01*
X0292127Y0183949D01*
X0291599Y0184863D01*
X0290852Y018561D01*
X0289937Y0186138D01*
X0288917Y0186412D01*
D02*
G37*
G36*
X0287889D02*
X0287861D01*
X0286841Y0186138D01*
X0285926Y018561D01*
X0285179Y0184863D01*
X0284651Y0183949D01*
X0284377Y0182928D01*
Y01829D01*
X0287889D01*
Y0186412D01*
D02*
G37*
G36*
X0038889Y0186199D02*
X0037889D01*
X0036922Y018594D01*
X0036056Y018544D01*
X0035349Y0184733D01*
X0034849Y0183866D01*
X003459Y01829D01*
Y01819D01*
X0034849Y0180934D01*
X0035349Y0180067D01*
X0036056Y017936D01*
X0036922Y017886D01*
X0037889Y0178601D01*
X0038889D01*
X0039855Y017886D01*
X0040722Y017936D01*
X0041429Y0180067D01*
X0041929Y0180934D01*
X0042188Y01819D01*
Y01829D01*
X0041929Y0183866D01*
X0041429Y0184733D01*
X0040722Y018544D01*
X0039855Y018594D01*
X0038889Y0186199D01*
D02*
G37*
G36*
X0292401Y01819D02*
X0288889D01*
Y0178388D01*
X0288917D01*
X0289937Y0178662D01*
X0290852Y017919D01*
X0291599Y0179937D01*
X0292127Y0180851D01*
X0292401Y0181872D01*
Y01819D01*
D02*
G37*
G36*
X0287889D02*
X0284377D01*
Y0181872D01*
X0284651Y0180851D01*
X0285179Y0179937D01*
X0285926Y017919D01*
X0286841Y0178662D01*
X0287861Y0178388D01*
X0287889D01*
Y01819D01*
D02*
G37*
G36*
X0048889Y0196199D02*
X0047889D01*
X0046922Y019594D01*
X0046056Y019544D01*
X0045349Y0194733D01*
X0044849Y0193866D01*
X004459Y01929D01*
Y01919D01*
X0044849Y0190934D01*
X0045349Y0190067D01*
X0046056Y018936D01*
X0046922Y018886D01*
X0047889Y0188601D01*
X0048889D01*
X0049743Y018883D01*
X0067981Y0170592D01*
X0068489Y0170252D01*
X0069089Y0170133D01*
X0209708D01*
X0209921Y0169967D01*
X0209751Y0169467D01*
X0063538D01*
X005196Y0181046D01*
X0052188Y01819D01*
Y01829D01*
X0051929Y0183866D01*
X0051429Y0184733D01*
X0050722Y018544D01*
X0049855Y018594D01*
X0048889Y0186199D01*
X0047889D01*
X0046922Y018594D01*
X0046056Y018544D01*
X0045349Y0184733D01*
X0044849Y0183866D01*
X004459Y01829D01*
Y01819D01*
X0044849Y0180934D01*
X0045349Y0180067D01*
X0046056Y017936D01*
X0046922Y017886D01*
X0047889Y0178601D01*
X0048889D01*
X0049743Y017883D01*
X0061781Y0166792D01*
X0062289Y0166452D01*
X0062889Y0166332D01*
X0213655D01*
X0214148Y0166128D01*
X0214852D01*
X0215504Y0166398D01*
X0216002Y0166896D01*
X0216272Y0167548D01*
Y0168252D01*
X0216002Y0168904D01*
X0215504Y0169402D01*
X0214852Y0169672D01*
X0214148D01*
X0213655Y0169467D01*
X0211146D01*
X0211047Y0169967D01*
X0211604Y0170198D01*
X0212102Y0170696D01*
X0212372Y0171348D01*
Y0172052D01*
X0212102Y0172704D01*
X0211604Y0173202D01*
X0210952Y0173472D01*
X0210248D01*
X0209755Y0173267D01*
X0069738D01*
X005196Y0191046D01*
X0052188Y01919D01*
Y01929D01*
X0051929Y0193866D01*
X0051429Y0194733D01*
X0050722Y019544D01*
X0049855Y019594D01*
X0048889Y0196199D01*
D02*
G37*
G36*
Y0176199D02*
X0047889D01*
X0046922Y017594D01*
X0046056Y017544D01*
X0045349Y0174733D01*
X0044849Y0173866D01*
X004459Y01729D01*
Y01719D01*
X0044849Y0170934D01*
X0045349Y0170067D01*
X0046056Y016936D01*
X0046922Y016886D01*
X0047889Y0168601D01*
X0048889D01*
X0049855Y016886D01*
X0050722Y016936D01*
X0051429Y0170067D01*
X0051929Y0170934D01*
X0052188Y01719D01*
Y01729D01*
X0051929Y0173866D01*
X0051429Y0174733D01*
X0050722Y017544D01*
X0049855Y017594D01*
X0048889Y0176199D01*
D02*
G37*
G36*
X0038889D02*
X0037889D01*
X0036922Y017594D01*
X0036056Y017544D01*
X0035349Y0174733D01*
X0034849Y0173866D01*
X003459Y01729D01*
Y01719D01*
X0034849Y0170934D01*
X0035349Y0170067D01*
X0036056Y016936D01*
X0036922Y016886D01*
X0037889Y0168601D01*
X0038889D01*
X0039855Y016886D01*
X0040722Y016936D01*
X0041429Y0170067D01*
X0041929Y0170934D01*
X0042188Y01719D01*
Y01729D01*
X0041929Y0173866D01*
X0041429Y0174733D01*
X0040722Y017544D01*
X0039855Y017594D01*
X0038889Y0176199D01*
D02*
G37*
G36*
X0048889Y0166199D02*
X0047889D01*
X0046922Y016594D01*
X0046056Y016544D01*
X0045349Y0164733D01*
X0044849Y0163866D01*
X004459Y01629D01*
Y01619D01*
X0044849Y0160934D01*
X0045349Y0160067D01*
X0046056Y015936D01*
X0046922Y015886D01*
X0047889Y0158601D01*
X0048889D01*
X0049855Y015886D01*
X0050722Y015936D01*
X0051429Y0160067D01*
X0051929Y0160934D01*
X0052188Y01619D01*
Y01629D01*
X0051929Y0163866D01*
X0051429Y0164733D01*
X0050722Y016544D01*
X0049855Y016594D01*
X0048889Y0166199D01*
D02*
G37*
G36*
X0038889D02*
X0037889D01*
X0036922Y016594D01*
X0036056Y016544D01*
X0035349Y0164733D01*
X0034849Y0163866D01*
X003459Y01629D01*
Y01619D01*
X0034849Y0160934D01*
X0035349Y0160067D01*
X0036056Y015936D01*
X0036922Y015886D01*
X0037889Y0158601D01*
X0038889D01*
X0039855Y015886D01*
X0040722Y015936D01*
X0041429Y0160067D01*
X0041929Y0160934D01*
X0042188Y01619D01*
Y01629D01*
X0041929Y0163866D01*
X0041429Y0164733D01*
X0040722Y016544D01*
X0039855Y016594D01*
X0038889Y0166199D01*
D02*
G37*
G36*
X0048889Y0156199D02*
X0047889D01*
X0046922Y015594D01*
X0046056Y015544D01*
X0045349Y0154733D01*
X0044849Y0153866D01*
X004459Y01529D01*
Y01519D01*
X0044849Y0150934D01*
X0045349Y0150067D01*
X0046056Y014936D01*
X0046922Y014886D01*
X0047889Y0148601D01*
X0048889D01*
X0049855Y014886D01*
X0050722Y014936D01*
X0051429Y0150067D01*
X0051929Y0150934D01*
X0052188Y01519D01*
Y01529D01*
X0051929Y0153866D01*
X0051429Y0154733D01*
X0050722Y015544D01*
X0049855Y015594D01*
X0048889Y0156199D01*
D02*
G37*
G36*
X0038889D02*
X0037889D01*
X0036922Y015594D01*
X0036056Y015544D01*
X0035349Y0154733D01*
X0034849Y0153866D01*
X003459Y01529D01*
Y01519D01*
X0034849Y0150934D01*
X0035349Y0150067D01*
X0036056Y014936D01*
X0036922Y014886D01*
X0037889Y0148601D01*
X0038889D01*
X0039855Y014886D01*
X0040722Y014936D01*
X0041429Y0150067D01*
X0041929Y0150934D01*
X0042188Y01519D01*
Y01529D01*
X0041929Y0153866D01*
X0041429Y0154733D01*
X0040722Y015544D01*
X0039855Y015594D01*
X0038889Y0156199D01*
D02*
G37*
G36*
X0197942Y0151575D02*
X0196546D01*
X0195177Y0151303D01*
X0193887Y0150768D01*
X0192727Y0149993D01*
X019174Y0149006D01*
X0190964Y0147845D01*
X019043Y0146555D01*
X0190157Y0145186D01*
Y014379D01*
X019043Y0142421D01*
X0190964Y0141131D01*
X019174Y0139971D01*
X0192727Y0138984D01*
X0193887Y0138208D01*
X0195177Y0137674D01*
X0196546Y0137402D01*
X0197942D01*
X0199311Y0137674D01*
X0200601Y0138208D01*
X0201762Y0138984D01*
X0202749Y0139971D01*
X0203524Y0141131D01*
X0204058Y0142421D01*
X0204331Y014379D01*
Y0145186D01*
X0204058Y0146555D01*
X0203524Y0147845D01*
X0202749Y0149006D01*
X0201762Y0149993D01*
X0200601Y0150768D01*
X0199311Y0151303D01*
X0197942Y0151575D01*
D02*
G37*
G36*
X0162262Y0137488D02*
X0159707D01*
X0157174Y0137155D01*
X0154707Y0136494D01*
X0152346Y0135516D01*
X0150134Y0134239D01*
X0148107Y0132683D01*
X0146301Y0130877D01*
X0144746Y012885D01*
X0143468Y0126638D01*
X0142491Y0124278D01*
X014183Y012181D01*
X0141496Y0119277D01*
Y0116723D01*
X014183Y011419D01*
X0142491Y0111722D01*
X0143468Y0109362D01*
X0144746Y010715D01*
X0146301Y0105123D01*
X0148107Y0103317D01*
X0150134Y0101761D01*
X0152346Y0100484D01*
X0154707Y0099506D01*
X0157174Y0098845D01*
X0159707Y0098512D01*
X0162262D01*
X0164794Y0098845D01*
X0167262Y0099506D01*
X0169622Y0100484D01*
X0171835Y0101761D01*
X0173861Y0103317D01*
X0175668Y0105123D01*
X0177223Y010715D01*
X01785Y0109362D01*
X0179478Y0111722D01*
X0180139Y011419D01*
X0180472Y0116723D01*
Y0119277D01*
X0180139Y012181D01*
X0179478Y0124278D01*
X01785Y0126638D01*
X0177223Y012885D01*
X0175668Y0130877D01*
X0173861Y0132683D01*
X0171835Y0134239D01*
X0169622Y0135516D01*
X0167262Y0136494D01*
X0164794Y0137155D01*
X0162262Y0137488D01*
D02*
G37*
G36*
X0355701Y0441756D02*
X0354669Y0441756D01*
X0354669Y0441756D01*
X0353637Y0441756D01*
X035159Y0441486D01*
X0349596Y0440952D01*
X0347689Y0440162D01*
X0345901Y043913D01*
X0344264Y0437873D01*
X0342804Y0436413D01*
X0341547Y0434776D01*
X0340515Y0432988D01*
X0339725Y0431081D01*
X0339191Y0429087D01*
X0338921Y042704D01*
X0338921Y0426008D01*
X0338921Y0426008D01*
X0338921Y0424976D01*
X0339191Y0422929D01*
X0339725Y0420935D01*
X0340515Y0419028D01*
X0341547Y041724D01*
X0342804Y0415602D01*
X0344264Y0414142D01*
X0345901Y0412886D01*
X0347689Y0411854D01*
X0349597Y0411063D01*
X035159Y0410529D01*
X0353637Y041026D01*
X0354669D01*
X0355702Y041026D01*
X0357748Y0410529D01*
X0359742Y0411063D01*
X0361649Y0411853D01*
X0363437Y0412886D01*
X0365075Y0414142D01*
X0366535Y0415602D01*
X0367791Y041724D01*
X0368824Y0419028D01*
X0369614Y0420935D01*
X0370148Y0422929D01*
X0370417Y0424975D01*
X0370417Y0426008D01*
X0370417Y0426008D01*
X0370417Y0426008D01*
X0370417Y042704D01*
X0370148Y0429087D01*
X0369613Y0431081D01*
X0368824Y0432988D01*
X0367791Y0434776D01*
X0366535Y0436413D01*
X0365075Y0437873D01*
X0363437Y043913D01*
X0361649Y0440162D01*
X0359742Y0440952D01*
X0357748Y0441486D01*
X0355701Y0441756D01*
D02*
G37*
G36*
X0404945Y0368126D02*
X0397752D01*
Y0364673D01*
X0404945D01*
Y0368126D01*
D02*
G37*
G36*
X0396752D02*
X0389559D01*
Y0364673D01*
X0396752D01*
Y0368126D01*
D02*
G37*
G36*
X0584231Y0370433D02*
X0575569D01*
X0575492Y0370418D01*
X0574782D01*
Y0369708D01*
X0574766Y0369631D01*
Y0360969D01*
X0574782Y0360892D01*
Y0360182D01*
X0575492D01*
X0575569Y0360167D01*
X0584231D01*
X0584308Y0360182D01*
X0585018D01*
Y0360892D01*
X0585034Y0360969D01*
Y0369631D01*
X0585018Y0369708D01*
Y0370418D01*
X0584308D01*
X0584231Y0370433D01*
D02*
G37*
G36*
X0386341Y0358874D02*
X0383282D01*
Y0356602D01*
X0386341D01*
Y0358874D01*
D02*
G37*
G36*
X0375439D02*
X037238D01*
Y0356602D01*
X0375439D01*
Y0358874D01*
D02*
G37*
G36*
X0386341Y0355602D02*
X0383282D01*
Y0353331D01*
X0386341D01*
Y0355602D01*
D02*
G37*
G36*
X0382282Y0358874D02*
X0376439D01*
Y0356102D01*
Y0353331D01*
X0382282D01*
Y0356102D01*
Y0358874D01*
D02*
G37*
G36*
X0375439Y0355602D02*
X037238D01*
Y0353331D01*
X0375439D01*
Y0355602D01*
D02*
G37*
G36*
X055247Y0352362D02*
X055153D01*
X0550662Y0352003D01*
X0549997Y0351338D01*
X0549638Y035047D01*
Y034953D01*
X0549668Y0349458D01*
Y034626D01*
X0544D01*
X0544Y033901D01*
X0543787Y0338598D01*
X0543787Y0338368D01*
Y0335146D01*
X055148D01*
X0559173D01*
Y0338368D01*
X0559173Y0338598D01*
X0558961Y033901D01*
X0558961Y0339099D01*
Y034626D01*
X0554332D01*
Y0349458D01*
X0554362Y034953D01*
Y035047D01*
X0554003Y0351338D01*
X0553338Y0352003D01*
X055247Y0352362D01*
D02*
G37*
G36*
X0426386Y0335039D02*
X0412606D01*
Y0327953D01*
X0426386D01*
Y0335039D01*
D02*
G37*
G36*
Y0325591D02*
X0412606D01*
Y0318504D01*
X0426386D01*
Y0325591D01*
D02*
G37*
G36*
X0404945Y0316945D02*
X0397752D01*
Y0313492D01*
X0404945D01*
Y0316945D01*
D02*
G37*
G36*
X0396752D02*
X0389559D01*
Y0313492D01*
X0396752D01*
Y0316945D01*
D02*
G37*
G36*
X0360079Y0319291D02*
X0346693D01*
Y0311417D01*
X0360079D01*
Y0319291D01*
D02*
G37*
G36*
X0386341Y0307693D02*
X0383282D01*
Y0305421D01*
X0386341D01*
Y0307693D01*
D02*
G37*
G36*
X0375439D02*
X037238D01*
Y0305421D01*
X0375439D01*
Y0307693D01*
D02*
G37*
G36*
X0386341Y0304421D02*
X0383282D01*
Y030215D01*
X0386341D01*
Y0304421D01*
D02*
G37*
G36*
X0382282Y0307693D02*
X0376439D01*
Y0304921D01*
Y030215D01*
X0382282D01*
Y0304921D01*
Y0307693D01*
D02*
G37*
G36*
X0375439Y0304421D02*
X037238D01*
Y030215D01*
X0375439D01*
Y0304421D01*
D02*
G37*
G36*
X0319331Y0314764D02*
X0312638D01*
Y0308858D01*
X0313652D01*
Y0304528D01*
X0312441D01*
Y0299016D01*
X0319528D01*
Y0304528D01*
X0318316D01*
Y0308858D01*
X0319331D01*
Y0314764D01*
D02*
G37*
G36*
X031974Y029726D02*
X0316484D01*
Y0294791D01*
X031974D01*
Y029726D01*
D02*
G37*
G36*
X0315484D02*
X0312228D01*
Y0294791D01*
X0315484D01*
Y029726D01*
D02*
G37*
G36*
X0344528Y0301347D02*
X0324646D01*
X0323787Y0301234D01*
X0322988Y0300903D01*
X0322837Y0300787D01*
X0321102D01*
Y0295276D01*
X0322837D01*
X0322988Y029516D01*
X0323787Y0294829D01*
X0324646Y0294716D01*
X0344528D01*
X0345386Y0294829D01*
X0346185Y029516D01*
X0346336Y0295276D01*
X0356142D01*
Y0300787D01*
X0346336D01*
X0346185Y0300903D01*
X0345386Y0301234D01*
X0344528Y0301347D01*
D02*
G37*
G36*
X031974Y0293791D02*
X0316484D01*
Y0291323D01*
X031974D01*
Y0293791D01*
D02*
G37*
G36*
X0315484D02*
X0312228D01*
Y0291323D01*
X0315484D01*
Y0293791D01*
D02*
G37*
G36*
X0360079Y029252D02*
X0346693D01*
Y0284646D01*
X0360079D01*
Y029252D01*
D02*
G37*
G36*
X0580614Y0289764D02*
X0566835D01*
Y0282677D01*
X0580614D01*
Y0289764D01*
D02*
G37*
G36*
X0535534Y0361688D02*
X0451282D01*
Y0277436D01*
X0535534D01*
Y0361688D01*
D02*
G37*
%LPD*%
G36*
X0356441Y0439886D02*
X0357031Y0439787D01*
X0357524Y0439689D01*
X035841Y0439492D01*
X0359295Y0439197D01*
X0360083Y0438902D01*
X0360968Y0438508D01*
X0361854Y0438016D01*
X0362642Y0437524D01*
X0363429Y0436933D01*
X0364216Y0436244D01*
X0360575Y0432602D01*
X0360083Y0432996D01*
X0359591Y043339D01*
X0359098Y0433685D01*
X0358508Y043398D01*
X0357819Y0434276D01*
X0356933Y0434571D01*
X0355949Y0434768D01*
X0355063Y0434866D01*
Y0439984D01*
X0356441Y0439886D01*
D02*
G37*
G36*
X0354276Y0434866D02*
X035339Y0434768D01*
X0352406Y0434571D01*
X035152Y0434276D01*
X0350831Y043398D01*
X035024Y0433685D01*
X0349748Y043339D01*
X0349256Y0432996D01*
X0348764Y0432602D01*
X0345122Y0436244D01*
X034591Y0436933D01*
X0346697Y0437524D01*
X0347484Y0438016D01*
X034837Y0438508D01*
X0349256Y0438902D01*
X0350043Y0439197D01*
X0350929Y0439492D01*
X0351815Y0439689D01*
X0352307Y0439787D01*
X0352898Y0439886D01*
X0354276Y0439984D01*
Y0434866D01*
D02*
G37*
G36*
X0365595Y0434768D02*
X0366185Y043398D01*
X0366677Y0433193D01*
X0367169Y0432307D01*
X0367563Y0431421D01*
X0367858Y0430634D01*
X0368154Y0429748D01*
X036835Y0428862D01*
X0368449Y042837D01*
X0368547Y0427779D01*
X0368646Y0426402D01*
X0363528D01*
X0363429Y0427287D01*
X0363232Y0428272D01*
X0362937Y0429157D01*
X0362642Y0429846D01*
X0362347Y0430437D01*
X0362051Y0430929D01*
X0361658Y0431421D01*
X0361264Y0431913D01*
X0364906Y0435555D01*
X0365595Y0434768D01*
D02*
G37*
G36*
X0348075Y0431913D02*
X0347681Y0431421D01*
X0347287Y0430929D01*
X0346992Y0430437D01*
X0346697Y0429846D01*
X0346402Y0429157D01*
X0346106Y0428272D01*
X034591Y0427287D01*
X0345811Y0426402D01*
X0340693D01*
X0340791Y0427779D01*
X034089Y042837D01*
X0340988Y0428862D01*
X0341185Y0429748D01*
X034148Y0430634D01*
X0341776Y0431421D01*
X0342169Y0432307D01*
X0342661Y0433193D01*
X0343154Y043398D01*
X0343744Y0434768D01*
X0344433Y0435555D01*
X0348075Y0431913D01*
D02*
G37*
G36*
X0368547Y0424236D02*
X0368449Y0423646D01*
X036835Y0423153D01*
X0368154Y0422268D01*
X0367858Y0421382D01*
X0367563Y0420595D01*
X0367169Y0419709D01*
X0366677Y0418823D01*
X0366185Y0418035D01*
X0365595Y0417248D01*
X0364906Y0416461D01*
X0361264Y0420102D01*
X0361658Y0420595D01*
X0362051Y0421087D01*
X0362347Y0421579D01*
X0362642Y0422169D01*
X0362937Y0422858D01*
X0363232Y0423744D01*
X0363429Y0424728D01*
X0363528Y0425614D01*
X0368646D01*
X0368547Y0424236D01*
D02*
G37*
G36*
X034591Y0424728D02*
X0346106Y0423744D01*
X0346402Y0422858D01*
X0346697Y0422169D01*
X0346992Y0421579D01*
X0347287Y0421087D01*
X0347681Y0420595D01*
X0348075Y0420102D01*
X0344433Y0416461D01*
X0343744Y0417248D01*
X0343154Y0418035D01*
X0342661Y0418823D01*
X0342169Y0419709D01*
X0341776Y0420595D01*
X034148Y0421382D01*
X0341185Y0422268D01*
X0340988Y0423153D01*
X034089Y0423646D01*
X0340791Y0424236D01*
X0340693Y0425614D01*
X0345811D01*
X034591Y0424728D01*
D02*
G37*
G36*
X0364216Y0415772D02*
X0363429Y0415083D01*
X0362642Y0414492D01*
X0361854Y0414D01*
X0360968Y0413508D01*
X0360083Y0413114D01*
X0359295Y0412819D01*
X035841Y0412524D01*
X0357524Y0412327D01*
X0357031Y0412228D01*
X0356441Y041213D01*
X0355063Y0412032D01*
Y041715D01*
X0355949Y0417248D01*
X0356933Y0417445D01*
X0357819Y041774D01*
X0358508Y0418035D01*
X0359098Y0418331D01*
X0359591Y0418626D01*
X0360083Y041902D01*
X0360575Y0419413D01*
X0364216Y0415772D01*
D02*
G37*
G36*
X0349256Y041902D02*
X0349748Y0418626D01*
X035024Y0418331D01*
X0350831Y0418035D01*
X035152Y041774D01*
X0352406Y0417445D01*
X035339Y0417248D01*
X0354276Y041715D01*
Y0412032D01*
X0352898Y041213D01*
X0352307Y0412228D01*
X0351815Y0412327D01*
X0350929Y0412524D01*
X0350043Y0412819D01*
X0349256Y0413114D01*
X034837Y0413508D01*
X0347484Y0414D01*
X0346697Y0414492D01*
X034591Y0415083D01*
X0345122Y0415772D01*
X0348764Y0419413D01*
X0349256Y041902D01*
D02*
G37*
%LPC*%
G36*
X0690253Y0367046D02*
X0684347D01*
Y0365267D01*
X0680924D01*
Y036685D01*
X0675019D01*
Y036055D01*
X0680924D01*
Y0362133D01*
X0684347D01*
Y0360353D01*
X0690253D01*
Y0367046D01*
D02*
G37*
G36*
X0655427D02*
X0649522D01*
Y0365267D01*
X0646099D01*
Y036685D01*
X0640193D01*
Y036055D01*
X0646099D01*
Y0362133D01*
X0649522D01*
Y0360353D01*
X0655427D01*
Y0367046D01*
D02*
G37*
G36*
X0620602D02*
X0614696D01*
Y0365267D01*
X0611273D01*
Y036685D01*
X0605368D01*
Y036055D01*
X0611273D01*
Y0362133D01*
X0614696D01*
Y0360353D01*
X0620602D01*
Y0367046D01*
D02*
G37*
G36*
X0672869Y0367062D02*
X0670204D01*
Y03642D01*
X0672869D01*
Y0367062D01*
D02*
G37*
G36*
X0669204D02*
X0666538D01*
Y03642D01*
X0669204D01*
Y0367062D01*
D02*
G37*
G36*
X0638044D02*
X0635378D01*
Y03642D01*
X0638044D01*
Y0367062D01*
D02*
G37*
G36*
X0634378D02*
X0631713D01*
Y03642D01*
X0634378D01*
Y0367062D01*
D02*
G37*
G36*
X0603218D02*
X0600553D01*
Y03642D01*
X0603218D01*
Y0367062D01*
D02*
G37*
G36*
X0599553D02*
X0596888D01*
Y03642D01*
X0599553D01*
Y0367062D01*
D02*
G37*
G36*
X0696946Y0367046D02*
X069104D01*
Y0360353D01*
X0696946D01*
Y0361932D01*
X0701755D01*
X0702248Y0361728D01*
X0702952D01*
X0703604Y0361998D01*
X0704102Y0362496D01*
X0704372Y0363148D01*
Y0363852D01*
X0704102Y0364504D01*
X0703604Y0365002D01*
X0702952Y0365272D01*
X0702248D01*
X0701755Y0365068D01*
X0696946D01*
Y0367046D01*
D02*
G37*
G36*
X0672869Y03632D02*
X0670204D01*
Y0360338D01*
X0672869D01*
Y03632D01*
D02*
G37*
G36*
X0669204D02*
X0666538D01*
Y0360338D01*
X0669204D01*
Y03632D01*
D02*
G37*
G36*
X0638044D02*
X0635378D01*
Y0360338D01*
X0638044D01*
Y03632D01*
D02*
G37*
G36*
X0634378D02*
X0631713D01*
Y0360338D01*
X0634378D01*
Y03632D01*
D02*
G37*
G36*
X0603218D02*
X0600553D01*
Y0360338D01*
X0603218D01*
Y03632D01*
D02*
G37*
G36*
X0599553D02*
X0596888D01*
Y0360338D01*
X0599553D01*
Y03632D01*
D02*
G37*
G36*
X066212Y0367046D02*
X0656215D01*
Y0360353D01*
X0657987D01*
Y0359193D01*
X0657798Y0359004D01*
X0657528Y0358352D01*
Y0357648D01*
X0657798Y0356996D01*
X0658296Y0356498D01*
X0658948Y0356228D01*
X0659652D01*
X0660304Y0356498D01*
X0660802Y0356996D01*
X0661072Y0357648D01*
Y0358352D01*
X0660802Y0359004D01*
X0660613Y0359193D01*
Y0360353D01*
X066212D01*
Y0367046D01*
D02*
G37*
G36*
X0709035Y0347577D02*
X0634784D01*
X0633224Y0347424D01*
X0631725Y0346969D01*
X0630344Y0346231D01*
X0629133Y0345237D01*
X0628139Y0344026D01*
X06274Y0342644D01*
X0626946Y0341145D01*
X0626792Y0339586D01*
Y0333444D01*
X0626946Y0331885D01*
X06274Y0330386D01*
X0628139Y0329005D01*
X0629133Y0327794D01*
X0630344Y03268D01*
X0631725Y0326061D01*
X0633224Y0325607D01*
X0634784Y0325453D01*
X0709035D01*
X0710594Y0325607D01*
X0712093Y0326061D01*
X0713475Y03268D01*
X0714686Y0327794D01*
X071568Y0329005D01*
X0716418Y0330386D01*
X0716873Y0331885D01*
X0717027Y0333444D01*
Y0339586D01*
X0716873Y0341145D01*
X0716418Y0342644D01*
X071568Y0344026D01*
X0714686Y0345237D01*
X0713475Y0346231D01*
X0712093Y0346969D01*
X0710594Y0347424D01*
X0709035Y0347577D01*
D02*
G37*
G36*
X0615179Y0319144D02*
X0615158D01*
Y0315691D01*
X0618611D01*
Y0315712D01*
X0618342Y0316717D01*
X0617821Y0317618D01*
X0617085Y0318354D01*
X0616184Y0318875D01*
X0615179Y0319144D01*
D02*
G37*
G36*
X0614158D02*
X0614138D01*
X0613132Y0318875D01*
X0612231Y0318354D01*
X0611495Y0317618D01*
X0610975Y0316717D01*
X0610706Y0315712D01*
Y0315691D01*
X0614158D01*
Y0319144D01*
D02*
G37*
G36*
X0318919Y0357102D02*
X031586D01*
Y0354831D01*
X0318919D01*
Y0357102D01*
D02*
G37*
G36*
X031486D02*
X0311801D01*
Y0354831D01*
X031486D01*
Y0357102D01*
D02*
G37*
G36*
X0327368D02*
X0324309D01*
Y0354831D01*
X0327368D01*
Y0357102D01*
D02*
G37*
G36*
X0323309D02*
X032025D01*
Y0354831D01*
X0323309D01*
Y0357102D01*
D02*
G37*
G36*
X0356354Y0356906D02*
X0345028D01*
Y0354437D01*
X0356354D01*
Y0356906D01*
D02*
G37*
G36*
X0344028D02*
X0332701D01*
Y0354437D01*
X0344028D01*
Y0356906D01*
D02*
G37*
G36*
X0327368Y0353831D02*
X0324309D01*
Y0351559D01*
X0327368D01*
Y0353831D01*
D02*
G37*
G36*
X0323309D02*
X032025D01*
Y0351559D01*
X0323309D01*
Y0353831D01*
D02*
G37*
G36*
X0318919Y0353831D02*
X031586D01*
Y0351559D01*
X0318919D01*
Y0353831D01*
D02*
G37*
G36*
X031486D02*
X0311801D01*
Y0351559D01*
X031486D01*
Y0353831D01*
D02*
G37*
G36*
X0356354Y0353437D02*
X0345028D01*
Y0350969D01*
X0356354D01*
Y0353437D01*
D02*
G37*
G36*
X0344028D02*
X0332701D01*
Y0350969D01*
X0344028D01*
Y0353437D01*
D02*
G37*
G36*
X0327368Y0348441D02*
X0324309D01*
Y0346169D01*
X0327368D01*
Y0348441D01*
D02*
G37*
G36*
X0323309D02*
X032025D01*
Y0346169D01*
X0323309D01*
Y0348441D01*
D02*
G37*
G36*
X0318919D02*
X031586D01*
Y0346169D01*
X0318919D01*
Y0348441D01*
D02*
G37*
G36*
X031486D02*
X0311801D01*
Y0346169D01*
X031486D01*
Y0348441D01*
D02*
G37*
G36*
X0327368Y0345169D02*
X0324309D01*
Y0342898D01*
X0327368D01*
Y0345169D01*
D02*
G37*
G36*
X0323309D02*
X032025D01*
Y0342898D01*
X0323309D01*
Y0345169D01*
D02*
G37*
G36*
X0318919Y0345169D02*
X031586D01*
Y0342898D01*
X0318919D01*
Y0345169D01*
D02*
G37*
G36*
X031486D02*
X0311801D01*
Y0342898D01*
X031486D01*
Y0345169D01*
D02*
G37*
G36*
X0380134Y0263972D02*
X0376484D01*
Y0256583D01*
X0380134D01*
Y0263972D01*
D02*
G37*
G36*
X0349425D02*
X0345776D01*
Y0256583D01*
X0349425D01*
Y0263972D01*
D02*
G37*
G36*
X0375484D02*
X0371835D01*
Y0256583D01*
X0375484D01*
Y0263972D01*
D02*
G37*
G36*
X0344776D02*
X0341126D01*
Y0256583D01*
X0344776D01*
Y0263972D01*
D02*
G37*
G36*
X0437122Y0259681D02*
X0431996D01*
Y025613D01*
X0437122D01*
Y0259681D01*
D02*
G37*
G36*
X0430996D02*
X042587D01*
Y025613D01*
X0430996D01*
Y0259681D01*
D02*
G37*
G36*
X0449889Y0257122D02*
X0449713D01*
Y0252488D01*
X0454347D01*
Y0252664D01*
X0453997Y025397D01*
X0453321Y0255141D01*
X0452365Y0256097D01*
X0451194Y0256772D01*
X0449889Y0257122D01*
D02*
G37*
G36*
X0448713D02*
X0448537D01*
X0447231Y0256772D01*
X044606Y0256097D01*
X0445105Y0255141D01*
X0444429Y025397D01*
X0444079Y0252664D01*
Y0252488D01*
X0448713D01*
Y0257122D01*
D02*
G37*
G36*
X0437122Y025513D02*
X0431996D01*
Y0251579D01*
X0437122D01*
Y025513D01*
D02*
G37*
G36*
X0430996D02*
X042587D01*
Y0251579D01*
X0430996D01*
Y025513D01*
D02*
G37*
G36*
X0380134Y0255583D02*
X0376484D01*
Y0248193D01*
X0380134D01*
Y0255583D01*
D02*
G37*
G36*
X0375484D02*
X0371835D01*
Y0248193D01*
X0375484D01*
Y0255583D01*
D02*
G37*
G36*
X0349425D02*
X0345776D01*
Y0248193D01*
X0349425D01*
Y0255583D01*
D02*
G37*
G36*
X0344776D02*
X0341126D01*
Y0248193D01*
X0344776D01*
Y0255583D01*
D02*
G37*
G36*
X0454347Y0251488D02*
X0449713D01*
Y0246855D01*
X0449889D01*
X0451194Y0247204D01*
X0452365Y024788D01*
X0453321Y0248836D01*
X0453997Y0250007D01*
X0454347Y0251312D01*
Y0251488D01*
D02*
G37*
G36*
X0448713D02*
X0444079D01*
Y0251312D01*
X0444429Y0250007D01*
X0445105Y0248836D01*
X044606Y024788D01*
X0447231Y0247204D01*
X0448537Y0246855D01*
X0448713D01*
Y0251488D01*
D02*
G37*
G36*
X04245Y0245303D02*
X04245Y0245303D01*
X0424102Y0245303D01*
X0423795Y0245242D01*
X0423795Y0245242D01*
X042306Y0244937D01*
X0422799Y0244763D01*
X0422237Y0244201D01*
X0422063Y024394D01*
X0421758Y0243205D01*
X0421697Y0242898D01*
X0421697Y02425D01*
Y02289D01*
X0421697Y0228502D01*
X0421758Y0228195D01*
X0422063Y022746D01*
X0422237Y0227199D01*
X0422799Y0226637D01*
X042306Y0226463D01*
X0423795Y0226158D01*
X0423795Y0226158D01*
X0424102Y0226097D01*
X04245Y0226097D01*
X04577D01*
X0457712Y02261D01*
X0457724Y0226097D01*
X0458218Y0226113D01*
X0458359Y0226145D01*
X0458501Y0226173D01*
X045931Y0226508D01*
X0459571Y0226682D01*
X0460218Y0227329D01*
X0460392Y022759D01*
X0460742Y0228435D01*
X0460742Y0228435D01*
X0460803Y0228743D01*
X0460803Y02292D01*
X0460803Y02418D01*
X0460803Y02418D01*
Y02418D01*
X0460796Y0241834D01*
X04608Y0241868D01*
X0460761Y0242328D01*
X0460749Y0242371D01*
Y0242417D01*
X0460684Y0242744D01*
X0460653Y0242817D01*
X0460638Y0242895D01*
X0460434Y0243386D01*
X0460391Y0243452D01*
X046036Y0243525D01*
X0460065Y0243967D01*
X0460009Y0244023D01*
X0459965Y0244089D01*
X0459589Y0244465D01*
X0459523Y0244509D01*
X0459467Y0244565D01*
X0459025Y024486D01*
X0458952Y024489D01*
X0458886Y0244934D01*
X0458395Y0245138D01*
X0458317Y0245153D01*
X0458244Y0245184D01*
X0457723Y0245287D01*
X0457644D01*
X0457566Y0245303D01*
X04573Y0245303D01*
X04245Y0245303D01*
D02*
G37*
G36*
X0354043Y0209193D02*
X0350394D01*
Y0203575D01*
X0354043D01*
Y0209193D01*
D02*
G37*
G36*
X0349394D02*
X0345744D01*
Y0203575D01*
X0349394D01*
Y0209193D01*
D02*
G37*
G36*
X04242Y0220803D02*
X0423882D01*
X0423574Y0220742D01*
X0422986Y0220498D01*
X0422726Y0220324D01*
X0422726Y0220324D01*
X0422276Y0219874D01*
X0422102Y0219614D01*
X0421858Y0219025D01*
X0421797Y0218718D01*
Y02113D01*
Y02049D01*
X0421797Y0204576D01*
X0421798Y0204573D01*
X0421797Y0204571D01*
X0421828Y020442D01*
X0421858Y0204269D01*
X042186Y0204267D01*
X042186Y0204264D01*
X0422112Y0203667D01*
X0422114Y0203665D01*
X0422114Y0203662D01*
X0422202Y0203535D01*
X0422288Y0203408D01*
X042229Y0203407D01*
X0422292Y0203404D01*
X0422756Y0202953D01*
X0422758Y0202951D01*
X0422759Y0202949D01*
X042289Y0202866D01*
X0423018Y0202782D01*
X0423021Y0202782D01*
X0423023Y020278D01*
X0423626Y0202544D01*
X0423629Y0202544D01*
X0423631Y0202542D01*
X0423783Y0202516D01*
X0423935Y0202489D01*
X0423937Y020249D01*
X042394Y0202489D01*
X0424253Y0202498D01*
X04574Y0202498D01*
X0457404Y0202499D01*
X0457408Y0202498D01*
X0457884Y0202502D01*
X0458036Y0202534D01*
X0458187Y0202565D01*
X0459064Y0202934D01*
X0459193Y020302D01*
X0459321Y0203106D01*
X0459995Y0203779D01*
X0460081Y0203908D01*
X0460167Y0204036D01*
X0460536Y0204914D01*
X0460567Y0205066D01*
X0460598Y0205217D01*
X0460603Y0205693D01*
X0460602Y0205697D01*
X0460603Y0205701D01*
X0460603Y02176D01*
X0460603Y0217601D01*
X0460603Y0218077D01*
X0460542Y0218384D01*
X0460542Y0218384D01*
X0460176Y0219267D01*
X0460002Y0219527D01*
X0459327Y0220202D01*
X0459067Y0220376D01*
X0458185Y0220742D01*
X0458016Y0220775D01*
X0457877Y0220803D01*
X04574Y0220803D01*
X04242Y0220803D01*
D02*
G37*
G36*
X0354043Y0202575D02*
X0350394D01*
Y0196957D01*
X0354043D01*
Y0202575D01*
D02*
G37*
G36*
X0349394D02*
X0345744D01*
Y0196957D01*
X0349394D01*
Y0202575D01*
D02*
G37*
G36*
X045128Y0201542D02*
X0449713D01*
Y0196882D01*
X0454373D01*
Y0198449D01*
X0454268Y0199249D01*
X0453959Y0199996D01*
X0453467Y0200636D01*
X0452826Y0201128D01*
X045208Y0201437D01*
X045128Y0201542D01*
D02*
G37*
G36*
X0448713D02*
X0447146D01*
X0446345Y0201437D01*
X0445599Y0201128D01*
X0444958Y0200636D01*
X0444467Y0199996D01*
X0444158Y0199249D01*
X0444052Y0198449D01*
Y0196882D01*
X0448713D01*
Y0201542D01*
D02*
G37*
G36*
X0380134Y0201319D02*
X0376484D01*
Y0193929D01*
X0380134D01*
Y0201319D01*
D02*
G37*
G36*
X0375484D02*
X0371835D01*
Y0193929D01*
X0375484D01*
Y0201319D01*
D02*
G37*
G36*
X0434051Y0196791D02*
Y019324D01*
X0439177D01*
Y0196791D01*
X0434051D01*
D02*
G37*
G36*
X0454373Y0195882D02*
X0449713D01*
Y0191222D01*
X045128D01*
X045208Y0191327D01*
X0452826Y0191636D01*
X0453467Y0192128D01*
X0453959Y0192768D01*
X0454268Y0193514D01*
X0454373Y0194315D01*
Y0195882D01*
D02*
G37*
G36*
X0448713D02*
X0444052D01*
Y0194315D01*
X0444158Y0193514D01*
X0444467Y0192768D01*
X0444958Y0192128D01*
X0445599Y0191636D01*
X0446345Y0191327D01*
X0447146Y0191222D01*
X0448713D01*
Y0195882D01*
D02*
G37*
G36*
X0439177Y019224D02*
X0434051D01*
Y0188689D01*
X0439177D01*
Y019224D01*
D02*
G37*
G36*
X0319582Y0223603D02*
X0319443Y0223575D01*
X0319275Y0223542D01*
X0319275Y0223542D01*
X0318503Y0223222D01*
X0318243Y0223048D01*
X0317652Y0222457D01*
X0317652Y0222457D01*
X0317652Y0222457D01*
X0317565Y0222328D01*
X0317478Y0222197D01*
X0317478Y0222197D01*
X0317478Y0222197D01*
X0317158Y0221425D01*
X0317097Y0221118D01*
X0317097Y02207D01*
Y02051D01*
X0317097Y0204682D01*
X0317158Y0204375D01*
X0317478Y0203603D01*
X0317652Y0203343D01*
X0318243Y0202752D01*
X0318503Y0202578D01*
X0319275Y0202258D01*
X0319582Y0202197D01*
X032Y0202197D01*
X03363D01*
X0336777Y0202197D01*
X0337085Y0202258D01*
X0337967Y0202624D01*
X0338227Y0202798D01*
X0338227Y0202798D01*
X0338902Y0203473D01*
X0339076Y0203733D01*
X0339442Y0204615D01*
X0339503Y0204923D01*
X0339503Y02054D01*
X0339503Y02054D01*
X0339503Y020886D01*
X0339524Y0209073D01*
X0339701Y0209501D01*
X0339999Y0209799D01*
X0340426Y0209976D01*
X0340639Y0209997D01*
X0368761Y0209997D01*
X0368876Y0209986D01*
X0369123Y0209883D01*
X0369284Y0209723D01*
X0369386Y0209476D01*
X0369397Y0209361D01*
Y0205121D01*
X0369458Y0204814D01*
X0369671Y02043D01*
X0369845Y0204039D01*
X0370239Y0203645D01*
X03705Y0203471D01*
X0371014Y0203258D01*
X0371322Y0203197D01*
X03716D01*
X0397228Y0203197D01*
Y0203095D01*
X0403415D01*
X0403768Y0202949D01*
X0404149Y0202568D01*
X040437Y0202032D01*
X0404397Y020176D01*
Y0189124D01*
X0404413Y0189047D01*
Y0188968D01*
X040452Y0188427D01*
X0404551Y0188354D01*
X0404566Y0188276D01*
X0404777Y0187767D01*
X0404821Y0187701D01*
X0404851Y0187628D01*
X0405158Y0187169D01*
X0405213Y0187113D01*
X0405257Y0187047D01*
X0405647Y0186657D01*
X0405713Y0186613D01*
X0405769Y0186558D01*
X0406228Y0186251D01*
X0406301Y0186221D01*
X0406366Y0186177D01*
X0406876Y0185966D01*
X0406954Y0185951D01*
X0407027Y018592D01*
X0407568Y0185813D01*
X0407647D01*
X0407724Y0185797D01*
X04246D01*
X0425018Y0185797D01*
X0425325Y0185858D01*
X0426097Y0186178D01*
X0426357Y0186352D01*
X0426948Y0186943D01*
X0427122Y0187203D01*
X0427442Y0187975D01*
X0427503Y0188282D01*
X0427503Y0188501D01*
X0428003Y0188689D01*
X0433051D01*
Y019274D01*
Y0196791D01*
X0428003D01*
X0427925Y0196791D01*
X0427503Y0196979D01*
Y0197613D01*
X0427442Y019792D01*
X042724Y0198407D01*
X0427066Y0198667D01*
X0426694Y0199039D01*
X0426433Y0199214D01*
X0425947Y0199415D01*
X0425639Y0199476D01*
X0420266D01*
X0420028Y01995D01*
X0419555Y0199696D01*
X0419222Y0200029D01*
X0419026Y0200502D01*
X0419003Y0200739D01*
X0419003Y02196D01*
X0419003Y0219915D01*
X0418987Y0219993D01*
Y0220072D01*
X0418864Y022069D01*
X0418834Y0220763D01*
X0418819Y0220841D01*
X0418577Y0221423D01*
X0418534Y0221489D01*
X0418503Y0221562D01*
X0418153Y0222086D01*
X0418097Y0222142D01*
X0418053Y0222208D01*
X0417607Y0222653D01*
X0417542Y0222697D01*
X0417486Y0222753D01*
X0416962Y0223103D01*
X0416889Y0223134D01*
X0416823Y0223178D01*
X0416241Y0223419D01*
X0416163Y0223434D01*
X041609Y0223464D01*
X0415622Y0223557D01*
X0415568D01*
X0415516Y0223571D01*
X0415053Y0223601D01*
X0415027Y0223598D01*
X0415001Y0223603D01*
X0415D01*
X0415Y0223603D01*
X032Y0223603D01*
X0319582Y0223603D01*
D02*
G37*
G36*
X0380134Y0192929D02*
X0376484D01*
Y0185539D01*
X0380134D01*
Y0192929D01*
D02*
G37*
G36*
X0375484D02*
X0371835D01*
Y0185539D01*
X0375484D01*
Y0192929D01*
D02*
G37*
G36*
X0435388Y017651D02*
X0431313D01*
Y0173335D01*
X0435388D01*
Y017651D01*
D02*
G37*
G36*
X0430313D02*
X0426238D01*
Y0173335D01*
X0430313D01*
Y017651D01*
D02*
G37*
G36*
X0435388Y0172335D02*
X0431313D01*
Y016916D01*
X0435388D01*
Y0172335D01*
D02*
G37*
G36*
X0430313D02*
X0426238D01*
Y016916D01*
X0430313D01*
Y0172335D01*
D02*
G37*
G36*
X0435488Y0165486D02*
X0431413D01*
Y0162311D01*
X0435488D01*
Y0165486D01*
D02*
G37*
G36*
X0430413D02*
X0426338D01*
Y0162311D01*
X0430413D01*
Y0165486D01*
D02*
G37*
G36*
X0423069Y0162768D02*
X04206D01*
Y01603D01*
X0423069D01*
Y0162768D01*
D02*
G37*
G36*
X04196D02*
X0417132D01*
Y01603D01*
X04196D01*
Y0162768D01*
D02*
G37*
G36*
X0435488Y0161311D02*
X0431413D01*
Y0158136D01*
X0435488D01*
Y0161311D01*
D02*
G37*
G36*
X0430413D02*
X0426338D01*
Y0158136D01*
X0430413D01*
Y0161311D01*
D02*
G37*
G36*
X0423069Y01593D02*
X04206D01*
Y0156832D01*
X0423069D01*
Y01593D01*
D02*
G37*
G36*
X04196D02*
X0417132D01*
Y0156832D01*
X04196D01*
Y01593D01*
D02*
G37*
G36*
X0429059Y0153921D02*
X0425606D01*
Y0146728D01*
X0429059D01*
Y0153921D01*
D02*
G37*
G36*
Y0145728D02*
X0425606D01*
Y0138535D01*
X0429059D01*
Y0145728D01*
D02*
G37*
G36*
X0457905Y0130874D02*
X0450819D01*
Y0117095D01*
X0457905D01*
Y0130874D01*
D02*
G37*
G36*
X0424047D02*
X0416961D01*
Y0117095D01*
X0424047D01*
Y0130874D01*
D02*
G37*
G36*
X0411024D02*
X0403937D01*
Y0117095D01*
X0411024D01*
Y0130874D01*
D02*
G37*
%LPD*%
G36*
X04573Y02445D02*
X0457566Y02445D01*
X0458088Y0244396D01*
X0458579Y0244193D01*
X0459021Y0243897D01*
X0459397Y0243521D01*
X0459693Y0243079D01*
X0459896Y0242587D01*
X0459961Y024226D01*
X046Y02418D01*
Y02418D01*
X046Y02418D01*
X046Y02418D01*
X046Y02292D01*
X046Y0228743D01*
X045965Y0227897D01*
X0459003Y022725D01*
X0458194Y0226915D01*
X04577Y02269D01*
X04245D01*
X0424102Y02269D01*
X0423367Y0227204D01*
X0422804Y0227767D01*
X04225Y0228502D01*
X04225Y02289D01*
Y02425D01*
X04225Y0242898D01*
X0422804Y0243633D01*
X0423367Y0244196D01*
X0424102Y02445D01*
X04245Y02445D01*
X04245Y02445D01*
X04573Y02445D01*
D02*
G37*
G36*
X04574Y022D02*
X0457877Y022D01*
X0458759Y0219635D01*
X0459435Y0218959D01*
X04598Y0218077D01*
X04598Y02176D01*
X04598Y02176D01*
X04598Y02176D01*
X04598Y0205701D01*
X0459795Y0205225D01*
X0459427Y0204347D01*
X0458754Y0203674D01*
X0457876Y0203305D01*
X04574Y02033D01*
X04574Y0203301D01*
X04574Y02033D01*
X0424242Y0203301D01*
X0423919Y0203292D01*
X0423316Y0203528D01*
X0422852Y020398D01*
X04226Y0204576D01*
X04226Y02049D01*
Y02113D01*
Y0218718D01*
X0422844Y0219306D01*
X0423294Y0219756D01*
X0423882Y022D01*
X04242D01*
X04574Y022D01*
D02*
G37*
G36*
X032Y02228D02*
X0415Y02228D01*
X0415Y02228D01*
X0415Y02228D01*
X0415001D01*
X0415465Y022277D01*
X0415933Y0222677D01*
X0416516Y0222436D01*
X041704Y0222086D01*
X0417486Y022164D01*
X0417836Y0221116D01*
X0418077Y0220533D01*
X04182Y0219915D01*
X04182Y02196D01*
X04182Y02007D01*
X0418239Y0200305D01*
X0418541Y0199574D01*
X0419101Y0199015D01*
X0419831Y0198712D01*
X0420227Y0198673D01*
X0425639D01*
X0426126Y0198472D01*
X0426498Y0198099D01*
X04267Y0197613D01*
Y01887D01*
X04267Y01887D01*
X04267Y0188282D01*
X042638Y018751D01*
X0425789Y018692D01*
X0425018Y01866D01*
X04246Y01866D01*
X0407724D01*
X0407183Y0186708D01*
X0406674Y0186919D01*
X0406215Y0187225D01*
X0405825Y0187615D01*
X0405519Y0188074D01*
X0405308Y0188583D01*
X04052Y0189124D01*
Y02018D01*
X04052D01*
X04052Y02018D01*
X04052Y02018D01*
X0405158Y0202229D01*
X0405145Y0202259D01*
X0404829Y0203022D01*
X0404222Y0203629D01*
X0403429Y0203958D01*
X0403Y0204D01*
X03716Y0204D01*
X0371322D01*
X0370807Y0204213D01*
X0370413Y0204607D01*
X03702Y0205121D01*
Y02094D01*
X03702D01*
X03702Y02094D01*
X03702Y02094D01*
X0370173Y0209673D01*
X0370097Y0209856D01*
X0369964Y0210178D01*
X0369578Y0210564D01*
X0369073Y0210773D01*
X03688Y02108D01*
X03406Y02108D01*
X0340229Y0210764D01*
X0339544Y021048D01*
X033902Y0209956D01*
X0338737Y0209271D01*
X03387Y02089D01*
X03387Y02054D01*
X03387Y02054D01*
X03387Y0204923D01*
X0338334Y0204041D01*
X0337659Y0203365D01*
X0336777Y0203D01*
X03363Y0203D01*
X032D01*
X0319582Y0203D01*
X031881Y020332D01*
X031822Y020391D01*
X03179Y0204682D01*
X03179Y02051D01*
Y02207D01*
X03179Y0221118D01*
X031822Y022189D01*
X031881Y022248D01*
X0319582Y02228D01*
X032Y02228D01*
D02*
G37*
%LPC*%
G36*
X0406906Y0169898D02*
X0404831D01*
Y0167823D01*
X0406906D01*
Y0169898D01*
D02*
G37*
G36*
X0403831D02*
X0401756D01*
Y0167823D01*
X0403831D01*
Y0169898D01*
D02*
G37*
G36*
X0387221D02*
X0385146D01*
Y0167823D01*
X0387221D01*
Y0169898D01*
D02*
G37*
G36*
X0406906Y0166823D02*
X0404831D01*
Y0164748D01*
X0406906D01*
Y0166823D01*
D02*
G37*
G36*
X0403831D02*
X0401756D01*
Y0164748D01*
X0403831D01*
Y0166823D01*
D02*
G37*
G36*
X0387221D02*
X0385146D01*
Y0164748D01*
X0387221D01*
Y0166823D01*
D02*
G37*
G36*
X0406906Y0162492D02*
X0404831D01*
Y0160417D01*
X0406906D01*
Y0162492D01*
D02*
G37*
G36*
X0403831D02*
X0401756D01*
Y0160417D01*
X0403831D01*
Y0162492D01*
D02*
G37*
G36*
X0387221D02*
X0385146D01*
Y0160417D01*
X0387221D01*
Y0162492D01*
D02*
G37*
G36*
X0406906Y0159417D02*
X0404831D01*
Y0157343D01*
X0406906D01*
Y0159417D01*
D02*
G37*
G36*
X0403831D02*
X0401756D01*
Y0157343D01*
X0403831D01*
Y0159417D01*
D02*
G37*
G36*
X0387221D02*
X0385146D01*
Y0157343D01*
X0387221D01*
Y0159417D01*
D02*
G37*
%LPD*%
D16*
X05893Y03629D02*
X05956Y03692D01*
X0624342Y03637D02*
Y0368614D01*
X05956Y03692D02*
X0623756D01*
X0624342Y0368614D01*
X0384646Y0138554D02*
X03855Y01377D01*
X0403D02*
X0404331Y0139031D01*
X03855Y01377D02*
X0403D01*
X0404331Y0139031D02*
Y0159917D01*
X0384646Y0138554D02*
Y0159431D01*
X02836Y01898D02*
Y01972D01*
X0288389Y0201989D02*
Y02024D01*
X02836Y01972D02*
X0288389Y0201989D01*
X02814Y01876D02*
X02836Y01898D01*
X02693Y01876D02*
X02814D01*
X02599Y01782D02*
X02693Y01876D01*
X02599Y01638D02*
Y01782D01*
X02777Y01427D02*
Y0142962D01*
X0279299Y0144562D01*
X02918Y01428D02*
X0301793Y0152793D01*
X02821Y01428D02*
X02918D01*
X0279299Y0144562D02*
Y0144599D01*
X02804Y01457D01*
X02911D01*
X03036Y01582D01*
X03199D01*
X03219Y0152793D02*
Y01562D01*
X03199Y01582D02*
X03219Y01562D01*
X0301793Y0152793D02*
X03117D01*
Y0136968D02*
Y01461D01*
Y0136968D02*
X03117Y0136968D01*
X03219Y0136968D02*
Y01461D01*
Y0136968D02*
X03219Y0136968D01*
X0659167Y03637D02*
X06593Y0363567D01*
Y0358D02*
Y0363567D01*
X05893Y03095D02*
X059145Y030735D01*
X05893Y03095D02*
Y03629D01*
D18*
X03117Y0136968D02*
D03*
Y01287D02*
D03*
X03219Y0136968D02*
D03*
Y01287D02*
D03*
D19*
X03117Y0152793D02*
D03*
Y01461D02*
D03*
X03219Y0152793D02*
D03*
Y01461D02*
D03*
X0324052Y0318307D02*
D03*
Y0311614D02*
D03*
X0315984Y0311811D02*
D03*
Y0318504D02*
D03*
D20*
X0381496Y0123984D02*
D03*
X040748D02*
D03*
X0420504D02*
D03*
X0454362D02*
D03*
D21*
X0390551Y0146228D02*
D03*
X0398425D02*
D03*
X0445307D02*
D03*
X0437433D02*
D03*
X0429559D02*
D03*
D22*
X0384646Y0167323D02*
D03*
X0390551D02*
D03*
X0384646Y0159917D02*
D03*
X0390551D02*
D03*
X0398425Y0167323D02*
D03*
X0404331D02*
D03*
X0398425Y0159917D02*
D03*
X0404331D02*
D03*
D23*
X03792Y01588D02*
D03*
Y01673D02*
D03*
X03301Y03293D02*
D03*
Y03208D02*
D03*
D24*
X04116Y01598D02*
D03*
X04201D02*
D03*
D25*
X0430913Y0161811D02*
D03*
X0443813D02*
D03*
X0430813Y0172835D02*
D03*
X0443713D02*
D03*
D26*
X0349894Y0203075D02*
D03*
Y0217248D02*
D03*
D27*
X0375984Y0215476D02*
D03*
Y0193429D02*
D03*
X0375984Y0234035D02*
D03*
Y0256083D02*
D03*
X0345276D02*
D03*
Y0234035D02*
D03*
D28*
X0406362Y0235827D02*
D03*
X0432236D02*
D03*
X0406362Y0211382D02*
D03*
X0432236D02*
D03*
D29*
X0420953Y019274D02*
D03*
X0433551D02*
D03*
X0418898Y025563D02*
D03*
X0431496D02*
D03*
D30*
X0324646Y0298031D02*
D03*
X0315984Y0294291D02*
D03*
Y0301772D02*
D03*
D31*
X0353386Y0288583D02*
D03*
Y0315354D02*
D03*
Y032874D02*
D03*
Y037126D02*
D03*
D32*
X0344528Y0305906D02*
D03*
Y0298031D02*
D03*
Y0353937D02*
D03*
Y0361811D02*
D03*
Y0346063D02*
D03*
Y0338189D02*
D03*
D33*
X031536D02*
D03*
Y0345669D02*
D03*
X0323809Y0338189D02*
D03*
Y0345669D02*
D03*
X031536Y0361811D02*
D03*
Y0354331D02*
D03*
X0323809Y0361811D02*
D03*
Y0354331D02*
D03*
X0375939Y0304921D02*
D03*
Y0297441D02*
D03*
X0382782Y0304921D02*
D03*
Y0297441D02*
D03*
X0375939Y0356102D02*
D03*
Y0348622D02*
D03*
X0382782Y0356102D02*
D03*
Y0348622D02*
D03*
X0080215Y026988D02*
D03*
Y02624D02*
D03*
X009242Y026988D02*
D03*
Y02624D02*
D03*
X0080021Y024492D02*
D03*
Y02524D02*
D03*
X0092226Y024492D02*
D03*
Y02524D02*
D03*
X006058Y030492D02*
D03*
Y03124D02*
D03*
X0071998Y030492D02*
D03*
Y03124D02*
D03*
D34*
X0419496Y0322047D02*
D03*
Y0280315D02*
D03*
Y0373228D02*
D03*
Y0331496D02*
D03*
X0573724Y0351575D02*
D03*
Y0286221D02*
D03*
D35*
X0397252Y0297244D02*
D03*
Y028937D02*
D03*
Y0305118D02*
D03*
Y0312992D02*
D03*
Y0348425D02*
D03*
Y0340551D02*
D03*
Y0356299D02*
D03*
Y0364173D02*
D03*
X055148Y034252D02*
D03*
Y0334646D02*
D03*
Y0318898D02*
D03*
Y030315D02*
D03*
Y0295276D02*
D03*
Y0311024D02*
D03*
Y0326772D02*
D03*
D36*
X0614658Y0315191D02*
D03*
X0637624D02*
D03*
X066059D02*
D03*
X0683556D02*
D03*
D37*
X0608321Y03637D02*
D03*
X0600053D02*
D03*
X0634878D02*
D03*
X0643146D02*
D03*
X0677972D02*
D03*
X0669704D02*
D03*
D38*
X0624342D02*
D03*
X0617649D02*
D03*
X0652474D02*
D03*
X0659167D02*
D03*
X0693993D02*
D03*
X06873D02*
D03*
D39*
X01793Y04025D02*
D03*
X0163552D02*
D03*
D77*
X03097Y02725D02*
X03364D01*
X02991Y02481D02*
Y02619D01*
X03097Y02725D01*
X0064941Y026998D02*
X0080115D01*
X0048389Y03024D02*
X0049401D01*
X0062261Y02673D02*
X0064941Y026998D01*
X0035423Y02673D02*
X0062261D01*
X0032123Y0264D02*
X0035423Y02673D01*
X0032123Y0248789D02*
Y0264D01*
Y0248789D02*
X0038389Y0242523D01*
X0080115Y026998D02*
X0080215Y026988D01*
X0038389Y02424D02*
Y0242523D01*
X006048Y030502D02*
X006058Y030492D01*
X006068Y030502D02*
X0071898D01*
X005202D02*
X006048D01*
X006058Y030492D02*
X006068Y030502D01*
X0049401Y03024D02*
X005202Y030502D01*
X0071898D02*
X0071998Y030492D01*
X03301Y03159D02*
Y03208D01*
Y03293D02*
X033015Y032935D01*
X033475D01*
X03348Y03294D01*
X031536Y0345669D02*
X0315457Y0345766D01*
X0323711D01*
X0323809Y0345669D01*
X0315185Y0345844D02*
Y035D01*
Y0345844D02*
X031536Y0345669D01*
X0315185Y035D02*
Y0354156D01*
Y035D02*
X03297D01*
X03298Y03499D01*
X0315185Y0354156D02*
X031536Y0354331D01*
X0315851Y0354034D02*
X0323512D01*
X0323809Y0354331D01*
X0324105Y0354034D02*
X034443D01*
X0315457Y0354428D02*
X0315851Y0354034D01*
X0323809Y0354331D02*
X0324105Y0354034D01*
X034443D02*
X0344528Y0353937D01*
X03712Y04078D02*
X03752Y04038D01*
X0313Y04078D02*
X03712D01*
X03078Y0413D02*
X0313Y04078D01*
X02991Y02481D02*
X0306262Y0240938D01*
Y02356D02*
Y0240938D01*
X0080215Y02624D02*
X009242D01*
X0048389D02*
X0080215D01*
X006058Y03124D02*
X0071998D01*
X0048389D02*
X006058D01*
X0080021Y02524D02*
X0092226D01*
X0048389D02*
X0080021D01*
X03403Y01679D02*
Y01735D01*
Y01745D02*
Y01789D01*
Y01735D02*
Y01745D01*
Y01679D02*
X03403Y01679D01*
X0363653Y01733D02*
Y01788D01*
Y01678D02*
Y01733D01*
D78*
X05571Y03679D02*
X05651Y03599D01*
X04721Y03679D02*
X05571D01*
X04405Y03995D02*
X04721Y03679D01*
X04373Y03958D02*
X04684Y03647D01*
X05559D02*
X05619Y03587D01*
X04684Y03647D02*
X05559D01*
X04472Y03092D02*
Y03793D01*
X0435244Y0297244D02*
X04472Y03092D01*
X0397252Y0297244D02*
X0435244D01*
X04342Y03923D02*
X04472Y03793D01*
X04299Y03892D02*
X04427Y03764D01*
X02213Y03892D02*
X04299D01*
X04427Y0312D02*
Y03764D01*
X02191Y03923D02*
X04342D01*
X02167Y03958D02*
X04373D01*
X02143Y03995D02*
X04405D01*
X06247Y03544D02*
X06351D01*
X0614658Y0315191D02*
X06247Y0325233D01*
Y03544D01*
X06027D02*
X06247D01*
X0600053Y0357047D02*
X06027Y03544D01*
X0600053Y0357047D02*
Y03637D01*
X0390551Y0146228D02*
Y0171449D01*
X03777Y01332D02*
X04347D01*
X04375Y0136D01*
X0361313Y0116813D02*
X03777Y01332D01*
X0397252Y0305118D02*
X0435818D01*
X04427Y0312D01*
X04116Y01598D02*
Y0166347D01*
X0285065Y03739D02*
X03069Y0352065D01*
Y03385D02*
Y0352065D01*
X03097Y034D02*
Y03525D01*
X02852Y0377D02*
X03097Y03525D01*
X03069Y03385D02*
X03113Y03341D01*
X03097Y034D02*
X031143Y033827D01*
X0379211Y0167311D02*
X0384634D01*
X0384646Y0159431D02*
Y0167323D01*
X0373121Y0162D02*
X0374Y0162879D01*
X035Y0162D02*
X0373121D01*
X0374Y0162879D02*
Y017D01*
X0069089Y01717D02*
X02106D01*
X0048389Y01924D02*
X0069089Y01717D01*
X01505Y03357D02*
X02143Y03995D01*
X03329Y01326D02*
Y01481D01*
X03219Y01287D02*
X0329D01*
X03329Y01326D01*
X03117Y01287D02*
X03219D01*
X03475Y01645D02*
X035Y0162D01*
X0404508Y01675D02*
X0410447D01*
X04116Y0166347D01*
X0404331Y0159917D02*
Y0167323D01*
X0236835Y03739D02*
X0285065D01*
X02367Y0377D02*
X02852D01*
X03748Y01756D02*
X03953D01*
X0398425Y0172475D01*
X0389Y0173D02*
X0390551Y0171449D01*
X0363653Y01733D02*
X03725D01*
X03748Y01756D01*
X0374Y017D02*
X0377Y0173D01*
X0389D01*
X0062889Y01679D02*
X02145D01*
X0294621Y0127D02*
X03027Y0135079D01*
Y01483D01*
X02999Y01856D02*
X0346853D01*
X02957Y017D02*
Y01814D01*
X02999Y01856D01*
X0292958Y0167258D02*
X02957Y017D01*
X0283247Y0167258D02*
X0292958D01*
X0278389Y01624D02*
X0283247Y0167258D01*
X067Y03544D02*
X06848D01*
X06351D02*
X067D01*
X0669704Y0354696D02*
X067Y03544D01*
X0669704Y0354696D02*
Y03637D01*
X0634878Y0354622D02*
Y03637D01*
Y0354622D02*
X06351Y03544D01*
X059145Y030735D02*
X0594Y03099D01*
X05858Y03017D02*
X059145Y030735D01*
X06888Y03584D02*
X07154D01*
X06848Y03544D02*
X06888Y03584D01*
X06925Y03515D02*
X0719D01*
X07218Y03487D01*
X06903Y03545D02*
X0721D01*
X06859Y03501D02*
X06903Y03545D01*
X0721D02*
X07247Y03508D01*
X06326Y03501D02*
X06859D01*
X0650691Y0315191D02*
X06583Y03228D01*
X07183D01*
X0637624Y0315191D02*
X0650691D01*
X07183Y03228D02*
X07218Y03263D01*
X07247Y03255D02*
Y03508D01*
X0673491Y0315191D02*
X06783Y032D01*
X07192D02*
X07247Y03255D01*
X066059Y0315191D02*
X0673491D01*
X06783Y032D02*
X07192D01*
X07218Y03263D02*
Y03487D01*
X0594Y03099D02*
X0678265D01*
X05858Y02809D02*
Y03017D01*
X0678265Y03099D02*
X0683556Y0315191D01*
X0608321Y03637D02*
X0617649D01*
X0643146D02*
X0652474D01*
X0678575D02*
X06873D01*
X0693993D02*
X0694193Y03635D01*
X07026D01*
X0573113Y0268213D02*
X05858Y02809D01*
X05479Y02715D02*
X05523Y02759D01*
X04349Y02849D02*
X04483Y02715D01*
X05479D01*
X04119Y02849D02*
X04349D01*
X04364Y02886D02*
X04506Y02744D01*
X04108Y02886D02*
X04364D01*
X04506Y02744D02*
X05366D01*
X038382Y02742D02*
X04405D01*
X0446487Y0268213D02*
X0573113D01*
X04405Y02742D02*
X0446487Y0268213D01*
X05366Y02744D02*
X05393Y02771D01*
X038202Y02724D02*
X038382Y02742D01*
X03364Y02725D02*
X03365Y02724D01*
X038202D01*
X04036Y02766D02*
X04119Y02849D01*
X02932Y02906D02*
X03072Y02766D01*
X04036D01*
X03099Y02794D02*
X04016D01*
X04108Y02886D01*
X02957Y02936D02*
X03099Y02794D01*
X0048389Y01824D02*
X0062889Y01679D01*
X0135Y02001D02*
X02128D01*
X0226987Y0214287D01*
X0149961Y02026D02*
X02109D01*
X01277Y02074D02*
X0135Y02001D01*
X0134265Y01976D02*
X0214D01*
X01253Y0206565D02*
X0134265Y01976D01*
X0140687Y0211874D02*
X0149961Y02026D01*
X01277Y02074D02*
Y0268887D01*
X01253Y0206565D02*
Y0276487D01*
X0214Y01976D02*
X0229275Y0212875D01*
X03028Y0324D02*
Y03486D01*
Y0324D02*
X0308296Y0318504D01*
X02865Y03649D02*
X03028Y03486D01*
X0308296Y0318504D02*
X0315984D01*
X03111Y02822D02*
X03352D01*
X0297987Y0295313D02*
X03111Y02822D01*
X03077Y03787D02*
X0307778Y0378622D01*
X0375378D01*
X03754Y03786D01*
X03115Y03761D02*
X03725D01*
X03088Y03734D02*
X03115Y03761D01*
X01541Y03332D02*
X02167Y03958D01*
X0541576Y0311024D02*
X055148D01*
X05403Y03123D02*
X0541576Y0311024D01*
X05403Y03123D02*
Y0334646D01*
X0551852Y03264D02*
X056D01*
X055148Y0326772D02*
X0551852Y03264D01*
X056D02*
X05619Y03283D01*
Y03587D01*
X05651Y03231D02*
Y03599D01*
X0560898Y0318898D02*
X05651Y03231D01*
X0190687Y0211874D02*
Y0346887D01*
X02263Y03825D02*
X0402D01*
X0190687Y0346887D02*
X02263Y03825D01*
X0186913Y02181D02*
Y0349313D01*
X02235Y03859D02*
X04027D01*
X0186913Y0349313D02*
X02235Y03859D01*
X01829Y0264623D02*
Y03508D01*
X02213Y03892D01*
X0178788Y0223912D02*
Y0351988D01*
X02191Y03923D01*
X01541Y0275287D02*
Y03332D01*
X01505Y0281687D02*
Y03357D01*
X02113Y0348365D02*
X0236835Y03739D01*
X02113Y0242487D02*
Y0348365D01*
X0200687Y0231874D02*
X02113Y0242487D01*
X02086Y03489D02*
X02367Y0377D01*
X02086Y02451D02*
Y03489D01*
X03113Y03341D02*
X03573D01*
X0315278Y033827D02*
X031536Y0338189D01*
X031143Y033827D02*
X0315278D01*
X02351Y03649D02*
X02865D01*
X02178Y03476D02*
X02351Y03649D01*
X02178Y02525D02*
Y03476D01*
X02084Y02054D02*
X02221Y02191D01*
Y0347835D01*
X0235853Y0361587D01*
X0157161Y02054D02*
X02084D01*
X02109Y02026D02*
X02247Y02164D01*
Y03472D01*
X0150687Y0211874D02*
X0157161Y02054D01*
X0226987Y0214287D02*
Y0346252D01*
X0229275Y0212875D02*
Y0345305D01*
X01253Y0276487D02*
X0140687Y0291874D01*
X01277Y0268887D02*
X0140687Y0281874D01*
X0402Y03825D02*
X0408613Y0375887D01*
Y0359013D02*
Y0375887D01*
X0226987Y0346252D02*
X0237748Y0357013D01*
X0229275Y0345305D02*
X023817Y03542D01*
X0237748Y0357013D02*
X0281387D01*
X02957Y03427D01*
Y02936D02*
Y03427D01*
X023817Y03542D02*
X02803D01*
X02932Y02906D02*
Y03413D01*
X02803Y03542D02*
X02932Y03413D01*
X0235853Y0361587D02*
X0285956D01*
X0300275Y0347269D01*
X02247Y03472D02*
X02368Y03593D01*
X0300275Y0297025D02*
Y0347269D01*
X02368Y03593D02*
X02846D01*
X0297987Y0345913D01*
X0300275Y0297025D02*
X0310443Y0286857D01*
X0297987Y0295313D02*
Y0345913D01*
X0310443Y0286857D02*
X0329642D01*
X0205905Y0242405D02*
X02086Y02451D01*
X0201218Y0242405D02*
X0205905D01*
X031536Y0338189D02*
X0323809D01*
X0344528D01*
X0398425Y0167323D02*
Y0172475D01*
X05523Y02759D02*
Y0294456D01*
X05393Y02771D02*
Y03003D01*
X054215Y030315D02*
X055748D01*
X05393Y03003D02*
X054215Y030315D01*
X055148Y0295276D02*
X05523Y0294456D01*
X02497Y0183D02*
X02691Y02024D01*
X02559Y01832D02*
X02651Y01924D01*
X02559Y01325D02*
Y01832D01*
X02497Y01277D02*
Y0183D01*
X02651Y01924D02*
X0278389D01*
X02691Y02024D02*
X0278389D01*
X03016Y03734D02*
X03088D01*
X02726Y01393D02*
X02794Y01325D01*
X02726Y01393D02*
Y0166611D01*
X0278389Y01724D01*
X02686Y01381D02*
Y0172611D01*
Y01381D02*
X02734Y01333D01*
X02686Y0172611D02*
X0278389Y01824D01*
X0346853Y01856D02*
X0353653Y01788D01*
X02659Y0127D02*
X02702D01*
X02725Y01195D02*
Y01247D01*
X02702Y0127D02*
X02725Y01247D01*
X02734Y0128456D02*
X02794Y0122456D01*
Y01215D02*
Y0122456D01*
X02734Y0128456D02*
Y01333D01*
X02497Y01277D02*
X02559Y01215D01*
X04027Y03859D02*
X04109Y03777D01*
Y03529D02*
Y03777D01*
X0397843Y0349016D02*
X0407016D01*
X04109Y03529D01*
X0397252Y0348425D02*
X0397843Y0349016D01*
X0405899Y0356299D02*
X0408613Y0359013D01*
X0397252Y0356299D02*
X0405899D01*
X01829Y0264623D02*
X01829Y0264623D01*
Y02332D02*
Y0264623D01*
X0178788Y0223912D02*
X01788Y02239D01*
X0140687Y0261874D02*
X01541Y0275287D01*
X0140687Y0261874D02*
X0140687D01*
X055748Y0318898D02*
X0560898D01*
X0140687Y0271874D02*
X01505Y0281687D01*
X03403Y01735D02*
X0346D01*
X03475Y0172D01*
Y01645D02*
Y0172D01*
X02725Y01195D02*
X0275187Y0116813D01*
X0361313D01*
X02659Y0127D02*
Y01325D01*
Y01215D02*
Y0127D01*
X0437433Y0146228D02*
X04375Y0146161D01*
Y0136D02*
Y0146161D01*
X02659Y01215D02*
X02659Y01215D01*
X02894Y0127D02*
X0294621D01*
X02894D02*
Y01325D01*
Y01215D02*
Y0127D01*
Y01215D02*
X02894Y01215D01*
X0398425Y0159917D02*
Y0167323D01*
Y0146228D02*
Y0159917D01*
X0363653Y01678D02*
X0363653Y01678D01*
X0180687Y0211874D02*
X0186913Y02181D01*
X03573Y03341D02*
X03602Y0337D01*
Y0343526D01*
X0200687Y0241874D02*
X0201218Y0242405D01*
X0357663Y0346063D02*
X03602Y0343526D01*
X0344528Y0346063D02*
X0357663D01*
D79*
X009242Y026988D02*
Y0270129D01*
X0095605Y0288618D02*
X0095705Y0288518D01*
X0092443Y0270152D02*
Y027748D01*
X008634Y0283583D02*
X0092443Y027748D01*
X0072098Y030502D02*
X0081103D01*
X008634Y0299783D01*
Y02881D02*
Y0299783D01*
Y0283583D02*
Y02881D01*
X0080215Y026988D02*
X0080315Y026998D01*
X009232D02*
X009242Y026988D01*
X0095705Y0288518D02*
X0095746D01*
X0071998Y030492D02*
X0072098Y030502D01*
X009242Y0270129D02*
X0092443Y0270152D01*
X008634Y02881D02*
X0086858Y0288618D01*
X0080315Y026998D02*
X009232D01*
X0086858Y0288618D02*
X0095605D01*
X0048389Y02324D02*
Y02424D01*
X0049207D01*
X0051727Y024492D02*
X0080021D01*
X0049207Y02424D02*
X0051727Y024492D01*
X03155Y0361951D02*
X031564Y0361811D01*
X0323809D01*
X0382782Y0291657D02*
X0385069Y028937D01*
X0397252D01*
X009208Y024492D02*
X0092226Y0244774D01*
X00923Y02447D01*
X0080021Y024492D02*
X009208D01*
X0092226Y0244774D02*
Y024492D01*
X01348Y0329D02*
X02102Y04044D01*
X02268D01*
X0115Y0329D02*
X01348D01*
X03155Y0361951D02*
Y03667D01*
X0313329Y0368871D02*
X03155Y03667D01*
X0308Y03689D02*
X0308029Y0368871D01*
X0313329D01*
X0375984Y0181684D02*
Y0193429D01*
X0092226Y02524D02*
X01148D01*
X0115Y02526D01*
X009252Y02623D02*
X0109D01*
X009242Y02624D02*
X009252Y02623D01*
X04366Y037286D02*
Y03729D01*
Y037286D02*
X04367Y037276D01*
X05403Y0334646D02*
X055148D01*
X0538154D02*
X05403D01*
X05381Y03347D02*
X0538154Y0334646D01*
X0375939Y0315841D02*
Y0326761D01*
Y0304921D02*
Y0315841D01*
X0375498Y03154D02*
X0375939Y0315841D01*
X0368Y02832D02*
Y0313643D01*
X0369757Y03154D01*
X0375498D01*
X02449Y02717D02*
Y03202D01*
X0375939Y0297189D02*
Y0297441D01*
X037592Y029138D02*
Y0297169D01*
Y029138D02*
X03815Y02858D01*
X037592Y0297169D02*
X0375939Y0297189D01*
X0323809Y0361811D02*
X0344528D01*
X0361029Y0321929D02*
X0361229D01*
X0361Y03219D02*
X0361029Y0321929D01*
X0361229D02*
X03671Y03278D01*
X03758Y03269D02*
X0375939Y0326761D01*
X03657Y03537D02*
X0368102Y0356102D01*
X0375939D01*
X03657Y03461D02*
Y03537D01*
X0375939Y0304921D02*
X0382782D01*
Y0310582D01*
X0385192Y0312992D02*
X0397252D01*
X0382782Y0310582D02*
X0385192Y0312992D01*
X0375939Y0356102D02*
X0382782D01*
X03828Y035612D02*
Y03624D01*
X0382782Y0356102D02*
X03828Y035612D01*
X0384573Y0364173D02*
X0397252D01*
X03828Y03624D02*
X0384573Y0364173D01*
X0315984Y0301772D02*
Y0311811D01*
X0382782Y0291657D02*
Y0297441D01*
X0375939D02*
X0382782D01*
X0375971Y0341029D02*
X0376Y0341D01*
X0375939Y0348622D02*
X0375971Y034859D01*
Y0341029D02*
Y034859D01*
X055148Y034252D02*
X0552Y0343039D01*
Y035D01*
X0375939Y0348622D02*
X0382782D01*
Y0343218D02*
X0385449Y0340551D01*
X0382782Y0343218D02*
Y0348622D01*
X0385449Y0340551D02*
X0397252D01*
X0071998Y03124D02*
X0115D01*
D80*
X03792Y01588D02*
Y01673D01*
X04116Y01598D02*
X04201D01*
X03301Y03208D02*
Y03293D01*
X03746Y01588D02*
X03792D01*
Y01673D02*
X0379211Y0167311D01*
X0384634D02*
X0384646Y0167323D01*
X0404331D02*
X0404508Y01675D01*
X0411541Y0159859D02*
X04116Y01598D01*
X04201D02*
Y01799D01*
X04194Y01806D02*
X04201Y01799D01*
D81*
X0345276Y0256083D02*
X03453Y0256107D01*
Y02671D01*
X01366Y03443D02*
X0163552Y0371252D01*
X01207Y03443D02*
X01366D01*
X0163552Y0371252D02*
Y04025D01*
X03311Y02356D02*
X03317Y02362D01*
X0306262Y02356D02*
X03311D01*
X02991D02*
X0306262D01*
X0299Y02355D02*
X02991Y02356D01*
X03077Y03259D02*
X0320623D01*
X0323993Y032253D01*
Y0318366D02*
X0324052Y0318307D01*
X0323993Y0318366D02*
Y032253D01*
X0324646Y0298031D02*
X0344528D01*
X0327375Y03057D02*
X0344322D01*
X0324111Y0308964D02*
Y0311555D01*
X0324052Y0311614D02*
X0324111Y0311555D01*
X0344322Y03057D02*
X0344528Y0305906D01*
X0324111Y0308964D02*
X0327375Y03057D01*
D82*
X02239Y01796D02*
X02548Y02105D01*
Y02792D01*
X01778Y01796D02*
X02239D01*
X01013Y0319411D02*
Y03372D01*
X01084Y03443D01*
X01207D01*
X0115Y0329D02*
Y03366D01*
X01793Y04025D02*
Y0416D01*
X0299279Y04035D02*
X03682D01*
X0287D02*
X0299279D01*
X01793Y0416D02*
X01858Y04225D01*
X02921D01*
X0299279Y0415321D01*
Y04035D02*
Y0415321D01*
X0348744Y02008D02*
X0349894Y020195D01*
X0342Y02008D02*
X0348744D01*
X0349894Y020195D02*
Y0202807D01*
X01305Y019D02*
X02202D01*
X0115Y02055D02*
X01305Y019D01*
X02202D02*
X02386Y02084D01*
X0115Y02526D02*
Y03124D01*
Y02055D02*
Y02526D01*
X04367Y03571D02*
Y037276D01*
X02386Y02084D02*
Y03142D01*
X0308809Y0294291D02*
X0315984D01*
X02385Y03143D02*
X02386Y03142D01*
X03657Y03308D02*
X03696Y03269D01*
X04003D02*
X04158Y03114D01*
X03758Y03269D02*
X04003D01*
X03696D02*
X03758D01*
X03657Y03308D02*
Y03461D01*
X0115Y03124D02*
Y0329D01*
D83*
X04194Y01806D02*
X042729D01*
X04054D02*
X04194D01*
X03356Y02564D02*
X0344958D01*
X0345276Y0256083D01*
X042729Y01806D02*
X0432925Y0186235D01*
Y0192114D01*
X0433551Y019274D01*
X0392571Y0193429D02*
X04054Y01806D01*
X0349894Y0202807D02*
X0359272Y0193429D01*
X0375984D01*
X0392571D01*
X0375984Y0256083D02*
X0392383D01*
X0345276D02*
X0375984D01*
X043087Y0256256D02*
Y0262914D01*
X0426184Y02676D02*
X043087Y0262914D01*
X04039Y02676D02*
X0426184D01*
X0392383Y0256083D02*
X04039Y02676D01*
X043087Y0256256D02*
X0431496Y025563D01*
D84*
X03072Y02564D02*
X03356D01*
X03071Y02565D02*
X03072Y02564D01*
X0429559Y0156059D02*
X0430488Y0156988D01*
Y0161486D01*
X0430813Y0161811D01*
X0430913D01*
X0429559Y0146228D02*
Y0156059D01*
X0430813Y0172835D02*
Y01806D01*
X0430863Y0161861D02*
Y0172785D01*
X0430813Y0172835D02*
X0430863Y0172785D01*
Y0161861D02*
X0430913Y0161811D01*
D85*
X0163552Y04025D02*
X01793D01*
D86*
X0445571Y019274D02*
X0449213Y0196382D01*
X0433551Y019274D02*
X0445571D01*
X0445571Y025563D02*
X0449213Y0251988D01*
X0431496Y025563D02*
X0445571D01*
D87*
X0493408Y0319562D02*
D03*
D88*
X05799Y03653D02*
D03*
D89*
X03303Y01789D02*
D03*
X0353653Y01788D02*
D03*
X0363653Y01678D02*
D03*
X02559Y01325D02*
D03*
X02659Y01215D02*
D03*
X02794Y01325D02*
D03*
X02894Y01215D02*
D03*
X03403Y01679D02*
D03*
D90*
X03403Y01789D02*
D03*
X0363653Y01788D02*
D03*
X0353653Y01678D02*
D03*
X02659Y01325D02*
D03*
X02559Y01215D02*
D03*
X02894Y01325D02*
D03*
X02794Y01215D02*
D03*
X03303Y01679D02*
D03*
D91*
X0140687Y0291874D02*
D03*
D92*
Y0281874D02*
D03*
Y0271874D02*
D03*
Y0261874D02*
D03*
Y0251874D02*
D03*
Y0241874D02*
D03*
Y0231874D02*
D03*
Y0221874D02*
D03*
Y0211874D02*
D03*
X0150687D02*
D03*
X0160687D02*
D03*
X0170687D02*
D03*
X0180687D02*
D03*
X0190687D02*
D03*
X0200687D02*
D03*
Y0221874D02*
D03*
Y0231874D02*
D03*
Y0241874D02*
D03*
Y0251874D02*
D03*
Y0261874D02*
D03*
Y0271874D02*
D03*
Y0281874D02*
D03*
Y0291874D02*
D03*
D93*
X0449213Y0211382D02*
D03*
Y0251988D02*
D03*
D94*
Y0196382D02*
D03*
Y0236988D02*
D03*
D95*
X0038389Y03324D02*
D03*
X0278389D02*
D03*
D96*
X0038389Y01524D02*
D03*
X0048389Y03324D02*
D03*
X0038389Y03224D02*
D03*
X0048389D02*
D03*
X0038389Y03124D02*
D03*
X0048389D02*
D03*
X0038389Y03024D02*
D03*
X0048389D02*
D03*
X0038389Y02924D02*
D03*
X0048389D02*
D03*
X0038389Y02824D02*
D03*
X0048389D02*
D03*
X0038389Y02724D02*
D03*
X0048389D02*
D03*
X0038389Y02624D02*
D03*
X0048389D02*
D03*
X0038389Y02524D02*
D03*
X0048389D02*
D03*
X0038389Y02424D02*
D03*
X0048389D02*
D03*
X0038389Y02324D02*
D03*
X0048389D02*
D03*
X0038389Y02224D02*
D03*
X0048389D02*
D03*
X0038389Y02124D02*
D03*
X0048389D02*
D03*
X0038389Y02024D02*
D03*
X0048389D02*
D03*
X0038389Y01924D02*
D03*
X0048389D02*
D03*
X0038389Y01824D02*
D03*
X0048389D02*
D03*
X0038389Y01724D02*
D03*
X0048389D02*
D03*
X0038389Y01624D02*
D03*
X0048389D02*
D03*
Y01524D02*
D03*
X0278389D02*
D03*
X0288389Y03324D02*
D03*
X0278389Y03224D02*
D03*
X0288389D02*
D03*
X0278389Y03124D02*
D03*
X0288389D02*
D03*
X0278389Y03024D02*
D03*
X0288389D02*
D03*
X0278389Y02924D02*
D03*
X0288389D02*
D03*
X0278389Y02824D02*
D03*
X0288389D02*
D03*
X0278389Y02724D02*
D03*
X0288389D02*
D03*
X0278389Y02624D02*
D03*
X0288389D02*
D03*
X0278389Y02524D02*
D03*
X0288389D02*
D03*
X0278389Y02424D02*
D03*
X0288389D02*
D03*
X0278389Y02324D02*
D03*
X0288389D02*
D03*
X0278389Y02224D02*
D03*
X0288389D02*
D03*
X0278389Y02124D02*
D03*
X0288389D02*
D03*
X0278389Y02024D02*
D03*
X0288389D02*
D03*
X0278389Y01924D02*
D03*
X0288389D02*
D03*
X0278389Y01824D02*
D03*
Y01724D02*
D03*
X0288389D02*
D03*
X0278389Y01624D02*
D03*
X0288389D02*
D03*
Y01524D02*
D03*
Y01824D02*
D03*
D97*
X0354669Y0426008D02*
D03*
Y0144512D02*
D03*
D98*
X0197244Y0144488D02*
D03*
D99*
X067191Y0336515D02*
D03*
D100*
X0160984Y0475768D02*
D03*
Y0118D02*
D03*
D101*
X0295Y044D02*
D03*
X0305D02*
D03*
X0335Y042D02*
D03*
X0325Y043D02*
D03*
X0335D02*
D03*
Y044D02*
D03*
X0325D02*
D03*
X0315D02*
D03*
X0305Y019D02*
D03*
Y023D02*
D03*
Y022D02*
D03*
Y021D02*
D03*
Y02D02*
D03*
X03Y0195D02*
D03*
Y0205D02*
D03*
Y0215D02*
D03*
Y0225D02*
D03*
X0595Y0325D02*
D03*
Y0335D02*
D03*
Y0345D02*
D03*
X0605D02*
D03*
Y0335D02*
D03*
Y0325D02*
D03*
X0615D02*
D03*
Y0335D02*
D03*
Y0345D02*
D03*
X03453Y02671D02*
D03*
X01778Y01796D02*
D03*
X0095746Y0288518D02*
D03*
X01013Y0319411D02*
D03*
X0115Y03366D02*
D03*
X03682Y04035D02*
D03*
X02548Y02792D02*
D03*
X0308Y03689D02*
D03*
X0375984Y0181684D02*
D03*
X0342Y02008D02*
D03*
X0299Y02355D02*
D03*
X03071Y02565D02*
D03*
X0109Y02623D02*
D03*
X03077Y03259D02*
D03*
X04366Y03729D02*
D03*
X04367Y03571D02*
D03*
X0308809Y0294291D02*
D03*
X02385Y03143D02*
D03*
X02449Y02717D02*
D03*
Y03202D02*
D03*
X03815Y02858D02*
D03*
X0361Y03219D02*
D03*
X04158Y03114D02*
D03*
X0376Y0341D02*
D03*
X0552Y035D02*
D03*
X02268Y04044D02*
D03*
D102*
X03348Y03294D02*
D03*
X0287Y04035D02*
D03*
X05381Y03347D02*
D03*
X0368Y02832D02*
D03*
D103*
X03301Y03159D02*
D03*
X03298Y03499D02*
D03*
X03329Y01481D02*
D03*
X03746Y01588D02*
D03*
X02599Y01638D02*
D03*
X02777Y01427D02*
D03*
X02821Y01428D02*
D03*
X02145Y01679D02*
D03*
X02106Y01717D02*
D03*
X03027Y01483D02*
D03*
X06593Y0358D02*
D03*
X06925Y03515D02*
D03*
X07154Y03584D02*
D03*
X06326Y03501D02*
D03*
X07026Y03635D02*
D03*
X03752Y04038D02*
D03*
X03078Y0413D02*
D03*
X03352Y02822D02*
D03*
X03077Y03787D02*
D03*
X03725Y03761D02*
D03*
X02178Y02525D02*
D03*
X0329642Y0286857D02*
D03*
X0325Y0215D02*
D03*
Y022D02*
D03*
X032D02*
D03*
X03754Y03786D02*
D03*
X03016Y03734D02*
D03*
X01829Y02332D02*
D03*
X01788Y02239D02*
D03*
X046Y017D02*
D03*
X0455D02*
D03*
Y0175D02*
D03*
X046D02*
D03*
X0335Y022D02*
D03*
Y0215D02*
D03*
Y021D02*
D03*
Y0205D02*
D03*
X033D02*
D03*
Y021D02*
D03*
Y0215D02*
D03*
Y022D02*
D03*
X0325Y021D02*
D03*
Y0205D02*
D03*
X032D02*
D03*
Y021D02*
D03*
Y0215D02*
D03*
D104*
X0359Y0415575D02*
D03*
X0344236Y0421677D02*
D03*
X0350339Y0436441D02*
D03*
X0365102Y0430339D02*
D03*
X0344236D02*
D03*
X0359Y0436441D02*
D03*
X0365102Y0421677D02*
D03*
X0350339Y0415575D02*
D03*
X0359Y0134079D02*
D03*
X0344236Y0140181D02*
D03*
X0350339Y0154945D02*
D03*
X0365102Y0148843D02*
D03*
X0344236D02*
D03*
X0359Y0154945D02*
D03*
X0365102Y0140181D02*
D03*
X0350339Y0134079D02*
D03*
M02*
