G04*
G04 #@! TF.GenerationSoftware,Altium Limited,Altium Designer,21.3.2 (30)*
G04*
G04 Layer_Color=8421504*
%FSTAX25Y25*%
%MOIN*%
G70*
G04*
G04 #@! TF.SameCoordinates,48149F28-A3BA-4D36-B73A-A2ABBD85C276*
G04*
G04*
G04 #@! TF.FilePolarity,Positive*
G04*
G01*
G75*
%ADD18R,0.04724X0.04331*%
%ADD19R,0.05118X0.04331*%
%ADD20R,0.05512X0.12205*%
%ADD21R,0.05906X0.13386*%
%ADD22R,0.03150X0.03150*%
%ADD23R,0.03937X0.03937*%
%ADD24R,0.03937X0.03937*%
%ADD25R,0.07150X0.05350*%
%ADD26R,0.06299X0.10236*%
%ADD27R,0.06299X0.13780*%
%ADD28R,0.16693X0.15000*%
%ADD29R,0.09252X0.06102*%
%ADD30R,0.05512X0.03937*%
%ADD31R,0.11811X0.06299*%
%ADD32R,0.21654X0.03937*%
%ADD33R,0.05118X0.03543*%
%ADD34R,0.12205X0.05512*%
%ADD35R,0.13386X0.05906*%
%ADD36C,0.05906*%
%ADD37R,0.04331X0.04724*%
%ADD38R,0.04331X0.05118*%
%ADD39R,0.09843X0.09843*%
D18*
X03117Y0136968D02*
D03*
Y01287D02*
D03*
X03219Y0136968D02*
D03*
Y01287D02*
D03*
D19*
X03117Y0152793D02*
D03*
Y01461D02*
D03*
X03219Y0152793D02*
D03*
Y01461D02*
D03*
X0324052Y0318307D02*
D03*
Y0311614D02*
D03*
X0315984Y0311811D02*
D03*
Y0318504D02*
D03*
D20*
X0381496Y0123984D02*
D03*
X040748D02*
D03*
X0420504D02*
D03*
X0454362D02*
D03*
D21*
X0390551Y0146228D02*
D03*
X0398425D02*
D03*
X0445307D02*
D03*
X0437433D02*
D03*
X0429559D02*
D03*
D22*
X0384646Y0167323D02*
D03*
X0390551D02*
D03*
X0384646Y0159917D02*
D03*
X0390551D02*
D03*
X0398425Y0167323D02*
D03*
X0404331D02*
D03*
X0398425Y0159917D02*
D03*
X0404331D02*
D03*
D23*
X03792Y01588D02*
D03*
Y01673D02*
D03*
X03301Y03293D02*
D03*
Y03208D02*
D03*
D24*
X04116Y01598D02*
D03*
X04201D02*
D03*
D25*
X0430913Y0161811D02*
D03*
X0443813D02*
D03*
X0430813Y0172835D02*
D03*
X0443713D02*
D03*
D26*
X0349894Y0203075D02*
D03*
Y0217248D02*
D03*
D27*
X0375984Y0215476D02*
D03*
Y0193429D02*
D03*
X0375984Y0234035D02*
D03*
Y0256083D02*
D03*
X0345276D02*
D03*
Y0234035D02*
D03*
D28*
X0406362Y0235827D02*
D03*
X0432236D02*
D03*
X0406362Y0211382D02*
D03*
X0432236D02*
D03*
D29*
X0420953Y019274D02*
D03*
X0433551D02*
D03*
X0418898Y025563D02*
D03*
X0431496D02*
D03*
D30*
X0324646Y0298031D02*
D03*
X0315984Y0294291D02*
D03*
Y0301772D02*
D03*
D31*
X0353386Y0288583D02*
D03*
Y0315354D02*
D03*
Y032874D02*
D03*
Y037126D02*
D03*
D32*
X0344528Y0305906D02*
D03*
Y0298031D02*
D03*
Y0353937D02*
D03*
Y0361811D02*
D03*
Y0346063D02*
D03*
Y0338189D02*
D03*
D33*
X031536D02*
D03*
Y0345669D02*
D03*
X0323809Y0338189D02*
D03*
Y0345669D02*
D03*
X031536Y0361811D02*
D03*
Y0354331D02*
D03*
X0323809Y0361811D02*
D03*
Y0354331D02*
D03*
X0375939Y0304921D02*
D03*
Y0297441D02*
D03*
X0382782Y0304921D02*
D03*
Y0297441D02*
D03*
X0375939Y0356102D02*
D03*
Y0348622D02*
D03*
X0382782Y0356102D02*
D03*
Y0348622D02*
D03*
X0080215Y026988D02*
D03*
Y02624D02*
D03*
X009242Y026988D02*
D03*
Y02624D02*
D03*
X0080021Y024492D02*
D03*
Y02524D02*
D03*
X0092226Y024492D02*
D03*
Y02524D02*
D03*
X006058Y030492D02*
D03*
Y03124D02*
D03*
X0071998Y030492D02*
D03*
Y03124D02*
D03*
D34*
X0419496Y0322047D02*
D03*
Y0280315D02*
D03*
Y0373228D02*
D03*
Y0331496D02*
D03*
X0573724Y0351575D02*
D03*
Y0286221D02*
D03*
D35*
X0397252Y0297244D02*
D03*
Y028937D02*
D03*
Y0305118D02*
D03*
Y0312992D02*
D03*
Y0348425D02*
D03*
Y0340551D02*
D03*
Y0356299D02*
D03*
Y0364173D02*
D03*
X055148Y034252D02*
D03*
Y0334646D02*
D03*
Y0318898D02*
D03*
Y030315D02*
D03*
Y0295276D02*
D03*
Y0311024D02*
D03*
Y0326772D02*
D03*
D36*
X0614658Y0315191D02*
D03*
X0637624D02*
D03*
X066059D02*
D03*
X0683556D02*
D03*
D37*
X0608321Y03637D02*
D03*
X0600053D02*
D03*
X0634878D02*
D03*
X0643146D02*
D03*
X0677972D02*
D03*
X0669704D02*
D03*
D38*
X0624342D02*
D03*
X0617649D02*
D03*
X0652474D02*
D03*
X0659167D02*
D03*
X0693993D02*
D03*
X06873D02*
D03*
D39*
X01793Y04025D02*
D03*
X0163552D02*
D03*
M02*
