G04*
G04 #@! TF.GenerationSoftware,Altium Limited,Altium Designer,21.3.2 (30)*
G04*
G04 Layer_Color=32768*
%FSTAX25Y25*%
%MOIN*%
G70*
G04*
G04 #@! TF.SameCoordinates,48149F28-A3BA-4D36-B73A-A2ABBD85C276*
G04*
G04*
G04 #@! TF.FilePolarity,Positive*
G04*
G01*
G75*
%ADD12C,0.00394*%
%ADD117C,0.00197*%
%ADD118C,0.00200*%
D12*
X03117Y0147478D02*
Y0151415D01*
X0309732Y0149446D02*
X0313668D01*
X03219Y0147478D02*
Y0151415D01*
X0319932Y0149446D02*
X0323868D01*
X0419287Y0233791D02*
Y0237728D01*
X0441711Y0227127D02*
Y0244427D01*
X0396711Y0227127D02*
Y0244427D01*
Y0227127D02*
X0441711D01*
X0396711Y0244427D02*
X0441711D01*
X0417318Y023576D02*
X0421255D01*
X0419287Y0209347D02*
Y0213283D01*
X0441711Y0202682D02*
Y0219982D01*
X0396711Y0202682D02*
Y0219982D01*
Y0202682D02*
X0441711D01*
X0396711Y0219982D02*
X0441711D01*
X0417318Y0211315D02*
X0421255D01*
X0427252Y0190771D02*
Y0194708D01*
X0425283Y019274D02*
X042922D01*
X0415244Y019963D02*
X043926D01*
X0415244Y018585D02*
X043926D01*
X0415244D02*
Y019963D01*
X043926Y018585D02*
Y019963D01*
X0425197Y0253661D02*
Y0257598D01*
X0423228Y025563D02*
X0427165D01*
X0413189Y026252D02*
X0437205D01*
X0413189Y024874D02*
X0437205D01*
X0413189D02*
Y026252D01*
X0437205Y024874D02*
Y026252D01*
X0322083Y0314961D02*
X0326021D01*
X0324052Y0312992D02*
Y0316929D01*
X0314016Y0315158D02*
X0317953D01*
X0315984Y0313189D02*
Y0317126D01*
X0619027Y03637D02*
X0622964D01*
X0620996Y0361732D02*
Y0365669D01*
X0655821Y0361732D02*
Y0365669D01*
X0653853Y03637D02*
X065779D01*
X0688678D02*
X0692615D01*
X0690646Y0361732D02*
Y0365669D01*
D117*
X002461Y0146337D02*
G03*
X0031499Y0139447I000689J0D01*
G01*
Y0458345D02*
G03*
X002461Y0451455I0J-000689D01*
G01*
X0302168D02*
G03*
X0295279Y0458345I-000689J0D01*
G01*
Y0139447D02*
G03*
X0302168Y0146337I0J000689D01*
G01*
X0333331Y01789D02*
X0337268D01*
X03353Y0176932D02*
Y0180868D01*
X0323922Y0172817D02*
Y0184983D01*
Y0172817D02*
X0346678D01*
Y0184983D01*
X0323922D02*
X0346678D01*
X0356684Y01788D02*
X0360621D01*
X0358653Y0176831D02*
Y0180769D01*
X0347275Y0172717D02*
Y0184883D01*
Y0172717D02*
X0370031D01*
Y0184883D01*
X0347275D02*
X0370031D01*
X0356684Y01678D02*
X0360621D01*
X0358653Y0165831D02*
Y0169769D01*
X0370031Y0161717D02*
Y0173883D01*
X0347275D02*
X0370031D01*
X0347275Y0161717D02*
Y0173883D01*
Y0161717D02*
X0370031D01*
X0258931Y01325D02*
X0262868D01*
X02609Y0130532D02*
Y0134468D01*
X0249522Y0126417D02*
Y0138583D01*
Y0126417D02*
X0272278D01*
Y0138583D01*
X0249522D02*
X0272278D01*
X0258931Y01215D02*
X0262868D01*
X02609Y0119532D02*
Y0123468D01*
X0272278Y0115417D02*
Y0127583D01*
X0249522D02*
X0272278D01*
X0249522Y0115417D02*
Y0127583D01*
Y0115417D02*
X0272278D01*
X0282432Y01325D02*
X0286368D01*
X02844Y0130532D02*
Y0134468D01*
X0273022Y0126417D02*
Y0138583D01*
Y0126417D02*
X0295778D01*
Y0138583D01*
X0273022D02*
X0295778D01*
X0282432Y01215D02*
X0286368D01*
X02844Y0119532D02*
Y0123468D01*
X0295778Y0115417D02*
Y0127583D01*
X0273022D02*
X0295778D01*
X0273022Y0115417D02*
Y0127583D01*
Y0115417D02*
X0295778D01*
X0333331Y01679D02*
X0337268D01*
X03353Y0165931D02*
Y0169869D01*
X0346678Y0161817D02*
Y0173983D01*
X0323922D02*
X0346678D01*
X0323922Y0161817D02*
Y0173983D01*
Y0161817D02*
X0346678D01*
X0308255Y0125747D02*
X0315145D01*
Y013992D01*
X0308255D02*
X0315145D01*
X0308255Y0125747D02*
Y013992D01*
X0309732Y0132834D02*
X0313668D01*
X03117Y0130865D02*
Y0134802D01*
X0318455Y0125747D02*
X0325345D01*
Y013992D01*
X0318455D02*
X0325345D01*
X0318455Y0125747D02*
Y013992D01*
X0319932Y0132834D02*
X0323868D01*
X03219Y0130865D02*
Y0134802D01*
X0308157Y0155942D02*
X0315243D01*
X0308157Y014295D02*
X0315243D01*
Y0155942D01*
X0308157Y014295D02*
Y0155942D01*
X0318357D02*
X0325443D01*
X0318357Y014295D02*
X0325443D01*
Y0155942D01*
X0318357Y014295D02*
Y0155942D01*
X039252Y013363D02*
X0396457D01*
X0394488Y0131661D02*
Y0135598D01*
X0377362Y0153709D02*
X0411614D01*
Y0117095D02*
Y0153709D01*
X0377362Y0117095D02*
X0411614D01*
X0377362D02*
Y0153709D01*
X0382283Y0164764D02*
Y0169882D01*
Y0164764D02*
X0392913D01*
Y0169882D01*
X0382283D02*
X0392913D01*
X0387598Y0165354D02*
Y0169291D01*
X038563Y0167323D02*
X0389567D01*
X0382283Y0157358D02*
Y0162476D01*
Y0157358D02*
X0392913D01*
Y0162476D01*
X0382283D02*
X0392913D01*
X0387598Y0157949D02*
Y0161886D01*
X038563Y0159917D02*
X0389567D01*
X0396063Y0164764D02*
Y0169882D01*
Y0164764D02*
X0406693D01*
Y0169882D01*
X0396063D02*
X0406693D01*
X0401378Y0165354D02*
Y0169291D01*
X039941Y0167323D02*
X0403346D01*
X0396063Y0157358D02*
Y0162476D01*
Y0157358D02*
X0406693D01*
Y0162476D01*
X0396063D02*
X0406693D01*
X0401378Y0157949D02*
Y0161886D01*
X039941Y0159917D02*
X0403346D01*
X0435465Y013363D02*
X0439402D01*
X0437433Y0131661D02*
Y0135598D01*
X041637Y0117095D02*
Y0153709D01*
Y0117095D02*
X0458496D01*
Y0153709D01*
X041637D02*
X0458496D01*
X0340248Y0197169D02*
Y0223153D01*
X0359539D01*
Y0197169D02*
Y0223153D01*
X0340248Y0197169D02*
X0359539D01*
X0349894Y0208193D02*
Y021213D01*
X0347925Y0210161D02*
X0351862D01*
X0361811Y0185752D02*
Y0223153D01*
X0390158D01*
Y0185752D02*
Y0223153D01*
X0361811Y0185752D02*
X0390158D01*
X0375984Y0202484D02*
Y0206421D01*
X0374016Y0204452D02*
X0377953D01*
X0443701Y0185752D02*
X0481496D01*
Y0222012D01*
X0443701D02*
X0481496D01*
X0443701Y0185752D02*
Y0222012D01*
Y0226358D02*
X0481496D01*
Y0262618D01*
X0443701D02*
X0481496D01*
X0443701Y0226358D02*
Y0262618D01*
X0390158Y0226358D02*
Y026376D01*
X0361811Y0226358D02*
X0390158D01*
X0361811D02*
Y026376D01*
X0390158D01*
X0375984Y0243091D02*
Y0247028D01*
X0374016Y0245059D02*
X0377953D01*
X0343307D02*
X0347244D01*
X0345276Y0243091D02*
Y0247028D01*
X0331102Y026376D02*
X0359449D01*
X0331102Y0226358D02*
Y026376D01*
Y0226358D02*
X0359449D01*
Y026376D01*
X0353386Y03D02*
Y0303937D01*
X0351417Y0301969D02*
X0355354D01*
X0332913Y0284646D02*
Y0319291D01*
X0364409D01*
Y0284646D02*
Y0319291D01*
X0332913Y0284646D02*
X0364409D01*
X0327595Y0308465D02*
Y0321457D01*
X0320509Y0308465D02*
Y0321457D01*
X0327595D01*
X0320509Y0308465D02*
X0327595D01*
X0312441Y0308661D02*
Y0321654D01*
X0319528Y0308661D02*
Y0321654D01*
X0312441Y0308661D02*
X0319528D01*
X0312441Y0321654D02*
X0319528D01*
X0313391Y0341929D02*
X0317328D01*
X031536Y0339961D02*
Y0343898D01*
X0311915Y0348228D02*
X0318805D01*
X0311915Y033563D02*
Y0348228D01*
Y033563D02*
X0318805D01*
Y0348228D01*
X032184Y0341929D02*
X0325777D01*
X0323809Y0339961D02*
Y0343898D01*
X0320364Y0348228D02*
X0327254D01*
X0320364Y033563D02*
Y0348228D01*
Y033563D02*
X0327254D01*
Y0348228D01*
X0311915Y0351772D02*
Y036437D01*
X0318805D01*
Y0351772D02*
Y036437D01*
X0311915Y0351772D02*
X0318805D01*
X031536Y0356102D02*
Y0360039D01*
X0313391Y0358071D02*
X0317328D01*
X0320364Y0351772D02*
Y036437D01*
X0327254D01*
Y0351772D02*
Y036437D01*
X0320364Y0351772D02*
X0327254D01*
X0323809Y0356102D02*
Y0360039D01*
X032184Y0358071D02*
X0325777D01*
X0332913Y0324803D02*
X0364409D01*
Y0375197D01*
X0332913D02*
X0364409D01*
X0332913Y0324803D02*
Y0375197D01*
X0351417Y035D02*
X0355354D01*
X0353386Y0348031D02*
Y0351969D01*
X0379384Y0294882D02*
Y030748D01*
X0372495Y0294882D02*
X0379384D01*
X0372495D02*
Y030748D01*
X0379384D01*
X0375939Y0299213D02*
Y030315D01*
X0373971Y0301181D02*
X0377908D01*
X0386227Y0294882D02*
Y030748D01*
X0379337Y0294882D02*
X0386227D01*
X0379337D02*
Y030748D01*
X0386227D01*
X0382782Y0299213D02*
Y030315D01*
X0380813Y0301181D02*
X038475D01*
X0389772Y0276181D02*
X0426386D01*
Y0326181D01*
X0389772D02*
X0426386D01*
X0389772Y0276181D02*
Y0326181D01*
X0407882Y0301181D02*
X0411819D01*
X040985Y0299213D02*
Y030315D01*
X0379384Y0346063D02*
Y0358661D01*
X0372495Y0346063D02*
X0379384D01*
X0372495D02*
Y0358661D01*
X0379384D01*
X0375939Y0350394D02*
Y0354331D01*
X0373971Y0352362D02*
X0377908D01*
X0386227Y0346063D02*
Y0358661D01*
X0379337Y0346063D02*
X0386227D01*
X0379337D02*
Y0358661D01*
X0386227D01*
X0382782Y0350394D02*
Y0354331D01*
X0380813Y0352362D02*
X038475D01*
X0389772Y0327362D02*
X0426386D01*
Y0377362D01*
X0389772D02*
X0426386D01*
X0389772Y0327362D02*
Y0377362D01*
X0407882Y0352362D02*
X0411819D01*
X040985Y0350394D02*
Y0354331D01*
X0544Y0282087D02*
X0580614D01*
Y0355709D01*
X0544D02*
X0580614D01*
X0544Y0282087D02*
Y0355709D01*
X056211Y0318898D02*
X0566047D01*
X0564079Y0316929D02*
Y0320866D01*
X05971Y0360255D02*
Y0367145D01*
Y0360255D02*
X0611273D01*
Y0367145D01*
X05971D02*
X0611273D01*
X0604187Y0361732D02*
Y0365669D01*
X0602218Y03637D02*
X0606155D01*
X0627492Y0360157D02*
Y0367243D01*
X06145Y0360157D02*
Y0367243D01*
Y0360157D02*
X0627492D01*
X06145Y0367243D02*
X0627492D01*
X0637044Y03637D02*
X0640981D01*
X0639012Y0361732D02*
Y0365669D01*
X0631926Y0367145D02*
X0646099D01*
Y0360255D02*
Y0367145D01*
X0631926Y0360255D02*
X0646099D01*
X0631926D02*
Y0367145D01*
X0649325Y0367243D02*
X0662317D01*
X0649325Y0360157D02*
X0662317D01*
X0649325D02*
Y0367243D01*
X0662317Y0360157D02*
Y0367243D01*
X0666751Y0360255D02*
Y0367145D01*
Y0360255D02*
X0680924D01*
Y0367145D01*
X0666751D02*
X0680924D01*
X0673838Y0361732D02*
Y0365669D01*
X0671869Y03637D02*
X0675806D01*
X0697143Y0360157D02*
Y0367243D01*
X068415Y0360157D02*
Y0367243D01*
Y0360157D02*
X0697143D01*
X068415Y0367243D02*
X0697143D01*
X0031499Y0139447D02*
X0068409D01*
X0024609Y0146337D02*
Y0451455D01*
X0031499Y0458345D02*
X0295279D01*
X0302168Y0146337D02*
Y0451455D01*
X0215062Y0139447D02*
X0295279D01*
X0207188Y0131573D02*
X0215062Y0139447D01*
X0076283Y0131573D02*
X0207188D01*
X0068409Y0139447D02*
X0076283Y0131573D01*
X008366Y0259841D02*
Y0272439D01*
X007677Y0259841D02*
X008366D01*
X007677D02*
Y0272439D01*
X008366D01*
X0080215Y0264172D02*
Y0268109D01*
X0078246Y026614D02*
X0082183D01*
X0095865Y0259841D02*
Y0272439D01*
X0088975Y0259841D02*
X0095865D01*
X0088975D02*
Y0272439D01*
X0095865D01*
X009242Y0264172D02*
Y0268109D01*
X0090451Y026614D02*
X0094388D01*
X0076576Y0242361D02*
Y0254959D01*
X0083466D01*
Y0242361D02*
Y0254959D01*
X0076576Y0242361D02*
X0083466D01*
X0080021Y0246691D02*
Y0250628D01*
X0078053Y024866D02*
X008199D01*
X0088781Y0242361D02*
Y0254959D01*
X0095671D01*
Y0242361D02*
Y0254959D01*
X0088781Y0242361D02*
X0095671D01*
X0092226Y0246691D02*
Y0250628D01*
X0090258Y024866D02*
X0094195D01*
X0057135Y0302361D02*
Y0314959D01*
X0064025D01*
Y0302361D02*
Y0314959D01*
X0057135Y0302361D02*
X0064025D01*
X006058Y0306691D02*
Y0310628D01*
X0058612Y030866D02*
X0062549D01*
X0068553Y0302361D02*
Y0314959D01*
X0075442D01*
Y0302361D02*
Y0314959D01*
X0068553Y0302361D02*
X0075442D01*
X0071998Y0306691D02*
Y0310628D01*
X0070029Y030866D02*
X0073966D01*
D118*
X0328909Y0290067D02*
Y0305996D01*
X031172Y0290067D02*
Y0305996D01*
X0328909D01*
X031172Y0290067D02*
X0328909D01*
M02*
