G04*
G04 #@! TF.GenerationSoftware,Altium Limited,Altium Designer,21.3.2 (30)*
G04*
G04 Layer_Color=32768*
%FSTAX25Y25*%
%MOIN*%
G70*
G04*
G04 #@! TF.SameCoordinates,48149F28-A3BA-4D36-B73A-A2ABBD85C276*
G04*
G04*
G04 #@! TF.FilePolarity,Positive*
G04*
G01*
G75*
%ADD12C,0.00394*%
D12*
X0344579Y0218626D02*
X0355209D01*
X0341429Y0215476D02*
X0344579Y0218626D01*
X0355209D02*
X0358358Y0215476D01*
X0341429Y0201697D02*
Y0215476D01*
X0358358Y0201697D02*
Y0215476D01*
X0341429Y0201697D02*
X0358358D01*
X0362992Y019146D02*
X0388976D01*
X0362992D02*
Y0211342D01*
X0369094Y0217444D02*
X0382874D01*
X0362992Y0211342D02*
X0369094Y0217444D01*
X0382874D02*
X0388976Y0211342D01*
Y019146D02*
Y0211342D01*
X0444488Y0186539D02*
X0480709D01*
Y0221224D01*
X0444488D02*
X0480709D01*
X0444488Y0186539D02*
Y0221224D01*
Y0227146D02*
X0480709D01*
Y0261831D01*
X0444488D02*
X0480709D01*
X0444488Y0227146D02*
Y0261831D01*
X0362992Y0258052D02*
X0388976D01*
Y023817D02*
Y0258052D01*
X0369094Y0232068D02*
X0382874D01*
X0388976Y023817D01*
X0362992D02*
X0369094Y0232068D01*
X0362992Y023817D02*
Y0258052D01*
X0332283Y023817D02*
Y0258052D01*
Y023817D02*
X0338386Y0232068D01*
X0352165D02*
X0358268Y023817D01*
X0338386Y0232068D02*
X0352165D01*
X0358268Y023817D02*
Y0258052D01*
X0332283D02*
X0358268D01*
M02*
