G04*
G04 #@! TF.GenerationSoftware,Altium Limited,Altium Designer,21.3.2 (30)*
G04*
G04 Layer_Color=32768*
%FSTAX25Y25*%
%MOIN*%
G70*
G04*
G04 #@! TF.SameCoordinates,48149F28-A3BA-4D36-B73A-A2ABBD85C276*
G04*
G04*
G04 #@! TF.FilePolarity,Positive*
G04*
G01*
G75*
%ADD114C,0.00472*%
%ADD115C,0.00591*%
D114*
X0348319Y0209374D02*
X0347532Y0208587D01*
Y0207013D01*
X0348319Y0206225D01*
X0351468D01*
X0352255Y0207013D01*
Y0208587D01*
X0351468Y0209374D01*
X0352255Y021331D02*
X0347532D01*
X0349894Y0210948D01*
Y0214097D01*
D115*
X0374016Y0203469D02*
X0373032Y0202485D01*
Y0200517D01*
X0374016Y0199533D01*
X0377952D01*
X0378936Y0200517D01*
Y0202485D01*
X0377952Y0203469D01*
X0374016Y0205436D02*
X0373032Y020642D01*
Y0208388D01*
X0374016Y0209372D01*
X0375D01*
X0375984Y0208388D01*
Y0207404D01*
Y0208388D01*
X0376968Y0209372D01*
X0377952D01*
X0378936Y0208388D01*
Y020642D01*
X0377952Y0205436D01*
X046555Y0198962D02*
X0459647D01*
Y0201914D01*
X0460631Y0202898D01*
X0462598D01*
X0463582Y0201914D01*
Y0198962D01*
X046555Y0208801D02*
Y0204866D01*
X0461615Y0208801D01*
X0460631D01*
X0459647Y0207817D01*
Y020585D01*
X0460631Y0204866D01*
X046555Y0240552D02*
X0459647D01*
Y0243504D01*
X0460631Y0244488D01*
X0462598D01*
X0463582Y0243504D01*
Y0240552D01*
X046555Y0246456D02*
Y0248424D01*
Y024744D01*
X0459647D01*
X0460631Y0246456D01*
X0377952Y0245059D02*
X0378936Y0246043D01*
Y0248011D01*
X0377952Y0248995D01*
X0374016D01*
X0373032Y0248011D01*
Y0246043D01*
X0374016Y0245059D01*
X0373032Y0243091D02*
Y0241123D01*
Y0242107D01*
X0378936D01*
X0377952Y0243091D01*
X0347243Y0246043D02*
X0348227Y0247027D01*
Y0248995D01*
X0347243Y0249979D01*
X0343308D01*
X0342324Y0248995D01*
Y0247027D01*
X0343308Y0246043D01*
X0342324Y0240139D02*
Y0244075D01*
X0346259Y0240139D01*
X0347243D01*
X0348227Y0241123D01*
Y0243091D01*
X0347243Y0244075D01*
M02*
