G04*
G04 #@! TF.GenerationSoftware,Altium Limited,Altium Designer,21.3.2 (30)*
G04*
G04 Layer_Color=128*
%FSTAX25Y25*%
%MOIN*%
G70*
G04*
G04 #@! TF.SameCoordinates,6DE20C06-5D1D-465E-9787-E79606FCF872*
G04*
G04*
G04 #@! TF.FilePolarity,Positive*
G04*
G01*
G75*
%ADD118C,0.00200*%
D118*
X0575569Y03653D02*
X0584231D01*
X05799Y0360969D02*
Y0369631D01*
X0454037Y0319561D02*
X0532777D01*
X0493407Y0280191D02*
Y0358931D01*
X0328135Y01789D02*
X0332465D01*
X03303Y0176735D02*
Y0181065D01*
X0338135Y01789D02*
X0342465D01*
X03403Y0176735D02*
Y0181065D01*
X0351487Y01788D02*
X0355818D01*
X0353653Y0176635D02*
Y0180965D01*
X0361487Y01788D02*
X0365818D01*
X0363653Y0176635D02*
Y0180965D01*
X0361487Y01678D02*
X0365818D01*
X0363653Y0165635D02*
Y0169965D01*
X0351487Y01678D02*
X0355818D01*
X0353653Y0165635D02*
Y0169965D01*
X0253735Y01325D02*
X0258065D01*
X02559Y0130335D02*
Y0134665D01*
X0263735Y01325D02*
X0268065D01*
X02659Y0130335D02*
Y0134665D01*
X0263735Y01215D02*
X0268065D01*
X02659Y0119335D02*
Y0123665D01*
X0253735Y01215D02*
X0258065D01*
X02559Y0119335D02*
Y0123665D01*
X0277235Y01325D02*
X0281565D01*
X02794Y0130335D02*
Y0134665D01*
X0287235Y01325D02*
X0291565D01*
X02894Y0130335D02*
Y0134665D01*
X0287235Y01215D02*
X0291565D01*
X02894Y0119335D02*
Y0123665D01*
X0277235Y01215D02*
X0281565D01*
X02794Y0119335D02*
Y0123665D01*
X0338135Y01679D02*
X0342465D01*
X03403Y0165735D02*
Y0170065D01*
X0328135Y01679D02*
X0332465D01*
X03303Y0165735D02*
Y0170065D01*
X0138718Y0291874D02*
X0142655D01*
X0140687Y0289906D02*
Y0293843D01*
X0138718Y0281874D02*
X0142655D01*
X0140687Y0279906D02*
Y0283842D01*
X0138718Y0271874D02*
X0142655D01*
X0140687Y0269905D02*
Y0273843D01*
X0138718Y0261874D02*
X0142655D01*
X0140687Y0259906D02*
Y0263843D01*
X0138718Y0251874D02*
X0142655D01*
X0140687Y0249905D02*
Y0253842D01*
X0138718Y0241874D02*
X0142655D01*
X0140687Y0239906D02*
Y0243843D01*
X0138718Y0231874D02*
X0142655D01*
X0140687Y0229906D02*
Y0233842D01*
X0138718Y0221874D02*
X0142655D01*
X0140687Y0219905D02*
Y0223843D01*
X0138718Y0211874D02*
X0142655D01*
X0140687Y0209906D02*
Y0213843D01*
X0148718Y0211874D02*
X0152655D01*
X0150687Y0209906D02*
Y0213843D01*
X0158718Y0211874D02*
X0162655D01*
X0160687Y0209906D02*
Y0213843D01*
X0168718Y0211874D02*
X0172655D01*
X0170687Y0209906D02*
Y0213843D01*
X0178718Y0211874D02*
X0182655D01*
X0180687Y0209906D02*
Y0213843D01*
X0188718Y0211874D02*
X0192655D01*
X0190687Y0209906D02*
Y0213843D01*
X0198718Y0211874D02*
X0202655D01*
X0200687Y0209906D02*
Y0213843D01*
X0198718Y0221874D02*
X0202655D01*
X0200687Y0219905D02*
Y0223843D01*
X0198718Y0231874D02*
X0202655D01*
X0200687Y0229906D02*
Y0233842D01*
X0198718Y0241874D02*
X0202655D01*
X0200687Y0239906D02*
Y0243843D01*
X0198718Y0251874D02*
X0202655D01*
X0200687Y0249905D02*
Y0253842D01*
X0198718Y0261874D02*
X0202655D01*
X0200687Y0259906D02*
Y0263843D01*
X0198718Y0271874D02*
X0202655D01*
X0200687Y0269905D02*
Y0273843D01*
X0198718Y0281874D02*
X0202655D01*
X0200687Y0279906D02*
Y0283842D01*
X0198718Y0291874D02*
X0202655D01*
X0200687Y0289906D02*
Y0293843D01*
X0446457Y0211382D02*
X0451969D01*
X0449213Y0208626D02*
Y0214138D01*
X0446457Y0196382D02*
X0451969D01*
X0449213Y0193626D02*
Y0199138D01*
X0446457Y0251988D02*
X0451969D01*
X0449213Y0249233D02*
Y0254744D01*
X0446457Y0236988D02*
X0451969D01*
X0449213Y0234232D02*
Y0239744D01*
X0036381Y03324D02*
X0040397D01*
X0038389Y0330392D02*
Y0334408D01*
X0036381Y01524D02*
X0040397D01*
X0038389Y0150392D02*
Y0154408D01*
X0046381Y03324D02*
X0050397D01*
X0048389Y0330392D02*
Y0334408D01*
X0036381Y03224D02*
X0040397D01*
X0038389Y0320392D02*
Y0324408D01*
X0046381Y03224D02*
X0050397D01*
X0048389Y0320392D02*
Y0324408D01*
X0036381Y03124D02*
X0040397D01*
X0038389Y0310392D02*
Y0314408D01*
X0046381Y03124D02*
X0050397D01*
X0048389Y0310392D02*
Y0314408D01*
X0036381Y03024D02*
X0040397D01*
X0038389Y0300392D02*
Y0304408D01*
X0046381Y03024D02*
X0050397D01*
X0048389Y0300392D02*
Y0304408D01*
X0036381Y02924D02*
X0040397D01*
X0038389Y0290392D02*
Y0294408D01*
X0046381Y02924D02*
X0050397D01*
X0048389Y0290392D02*
Y0294408D01*
X0036381Y02824D02*
X0040397D01*
X0038389Y0280392D02*
Y0284408D01*
X0046381Y02824D02*
X0050397D01*
X0048389Y0280392D02*
Y0284408D01*
X0036381Y02724D02*
X0040397D01*
X0038389Y0270392D02*
Y0274408D01*
X0046381Y02724D02*
X0050397D01*
X0048389Y0270392D02*
Y0274408D01*
X0036381Y02624D02*
X0040397D01*
X0038389Y0260392D02*
Y0264408D01*
X0046381Y02624D02*
X0050397D01*
X0048389Y0260392D02*
Y0264408D01*
X0036381Y02524D02*
X0040397D01*
X0038389Y0250392D02*
Y0254408D01*
X0046381Y02524D02*
X0050397D01*
X0048389Y0250392D02*
Y0254408D01*
X0036381Y02424D02*
X0040397D01*
X0038389Y0240392D02*
Y0244408D01*
X0046381Y02424D02*
X0050397D01*
X0048389Y0240392D02*
Y0244408D01*
X0036381Y02324D02*
X0040397D01*
X0038389Y0230392D02*
Y0234408D01*
X0046381Y02324D02*
X0050397D01*
X0048389Y0230392D02*
Y0234408D01*
X0036381Y02224D02*
X0040397D01*
X0038389Y0220392D02*
Y0224408D01*
X0046381Y02224D02*
X0050397D01*
X0048389Y0220392D02*
Y0224408D01*
X0036381Y02124D02*
X0040397D01*
X0038389Y0210392D02*
Y0214408D01*
X0046381Y02124D02*
X0050397D01*
X0048389Y0210392D02*
Y0214408D01*
X0036381Y02024D02*
X0040397D01*
X0038389Y0200392D02*
Y0204408D01*
X0046381Y02024D02*
X0050397D01*
X0048389Y0200392D02*
Y0204408D01*
X0036381Y01924D02*
X0040397D01*
X0038389Y0190392D02*
Y0194408D01*
X0046381Y01924D02*
X0050397D01*
X0048389Y0190392D02*
Y0194408D01*
X0036381Y01824D02*
X0040397D01*
X0038389Y0180392D02*
Y0184408D01*
X0046381Y01824D02*
X0050397D01*
X0048389Y0180392D02*
Y0184408D01*
X0036381Y01724D02*
X0040397D01*
X0038389Y0170392D02*
Y0174408D01*
X0046381Y01724D02*
X0050397D01*
X0048389Y0170392D02*
Y0174408D01*
X0036381Y01624D02*
X0040397D01*
X0038389Y0160392D02*
Y0164408D01*
X0046381Y01624D02*
X0050397D01*
X0048389Y0160392D02*
Y0164408D01*
X0046381Y01524D02*
X0050397D01*
X0048389Y0150392D02*
Y0154408D01*
X0276381Y03324D02*
X0280397D01*
X0278389Y0330392D02*
Y0334408D01*
X0276381Y01524D02*
X0280397D01*
X0278389Y0150392D02*
Y0154408D01*
X0286381Y03324D02*
X0290397D01*
X0288389Y0330392D02*
Y0334408D01*
X0276381Y03224D02*
X0280397D01*
X0278389Y0320392D02*
Y0324408D01*
X0286381Y03224D02*
X0290397D01*
X0288389Y0320392D02*
Y0324408D01*
X0276381Y03124D02*
X0280397D01*
X0278389Y0310392D02*
Y0314408D01*
X0286381Y03124D02*
X0290397D01*
X0288389Y0310392D02*
Y0314408D01*
X0276381Y03024D02*
X0280397D01*
X0278389Y0300392D02*
Y0304408D01*
X0286381Y03024D02*
X0290397D01*
X0288389Y0300392D02*
Y0304408D01*
X0276381Y02924D02*
X0280397D01*
X0278389Y0290392D02*
Y0294408D01*
X0286381Y02924D02*
X0290397D01*
X0288389Y0290392D02*
Y0294408D01*
X0276381Y02824D02*
X0280397D01*
X0278389Y0280392D02*
Y0284408D01*
X0286381Y02824D02*
X0290397D01*
X0288389Y0280392D02*
Y0284408D01*
X0276381Y02724D02*
X0280397D01*
X0278389Y0270392D02*
Y0274408D01*
X0286381Y02724D02*
X0290397D01*
X0288389Y0270392D02*
Y0274408D01*
X0276381Y02624D02*
X0280397D01*
X0278389Y0260392D02*
Y0264408D01*
X0286381Y02624D02*
X0290397D01*
X0288389Y0260392D02*
Y0264408D01*
X0276381Y02524D02*
X0280397D01*
X0278389Y0250392D02*
Y0254408D01*
X0286381Y02524D02*
X0290397D01*
X0288389Y0250392D02*
Y0254408D01*
X0276381Y02424D02*
X0280397D01*
X0278389Y0240392D02*
Y0244408D01*
X0286381Y02424D02*
X0290397D01*
X0288389Y0240392D02*
Y0244408D01*
X0276381Y02324D02*
X0280397D01*
X0278389Y0230392D02*
Y0234408D01*
X0286381Y02324D02*
X0290397D01*
X0288389Y0230392D02*
Y0234408D01*
X0276381Y02224D02*
X0280397D01*
X0278389Y0220392D02*
Y0224408D01*
X0286381Y02224D02*
X0290397D01*
X0288389Y0220392D02*
Y0224408D01*
X0276381Y02124D02*
X0280397D01*
X0278389Y0210392D02*
Y0214408D01*
X0286381Y02124D02*
X0290397D01*
X0288389Y0210392D02*
Y0214408D01*
X0276381Y02024D02*
X0280397D01*
X0278389Y0200392D02*
Y0204408D01*
X0286381Y02024D02*
X0290397D01*
X0288389Y0200392D02*
Y0204408D01*
X0276381Y01924D02*
X0280397D01*
X0278389Y0190392D02*
Y0194408D01*
X0286381Y01924D02*
X0290397D01*
X0288389Y0190392D02*
Y0194408D01*
X0276381Y01824D02*
X0280397D01*
X0278389Y0180392D02*
Y0184408D01*
X0276381Y01724D02*
X0280397D01*
X0278389Y0170392D02*
Y0174408D01*
X0286381Y01724D02*
X0290397D01*
X0288389Y0170392D02*
Y0174408D01*
X0276381Y01624D02*
X0280397D01*
X0278389Y0160392D02*
Y0164408D01*
X0286381Y01624D02*
X0290397D01*
X0288389Y0160392D02*
Y0164408D01*
X0286381Y01524D02*
X0290397D01*
X0288389Y0150392D02*
Y0154408D01*
X0286381Y01824D02*
X0290397D01*
X0288389Y0180392D02*
Y0184408D01*
X034837Y0426008D02*
X0360968D01*
X0354669Y0419709D02*
Y0432307D01*
X0190945Y0144488D02*
X0203543D01*
X0197244Y0138189D02*
Y0150787D01*
X034837Y0144512D02*
X0360968D01*
X0354669Y0138213D02*
Y0150811D01*
X066561Y0336515D02*
X0678209D01*
X067191Y0330216D02*
Y0342814D01*
X0147598Y0475768D02*
X017437D01*
X0160984Y0462382D02*
Y0489153D01*
X0147598Y0118D02*
X017437D01*
X0160984Y0104614D02*
Y0131386D01*
X0294213Y044D02*
X0295787D01*
X0295Y0439213D02*
Y0440787D01*
X0304213Y044D02*
X0305787D01*
X0305Y0439213D02*
Y0440787D01*
X0334213Y042D02*
X0335787D01*
X0335Y0419213D02*
Y0420787D01*
X0324213Y043D02*
X0325787D01*
X0325Y0429213D02*
Y0430787D01*
X0334213Y043D02*
X0335787D01*
X0335Y0429213D02*
Y0430787D01*
X0334213Y044D02*
X0335787D01*
X0335Y0439213D02*
Y0440787D01*
X0324213Y044D02*
X0325787D01*
X0325Y0439213D02*
Y0440787D01*
X0314213Y044D02*
X0315787D01*
X0315Y0439213D02*
Y0440787D01*
X0304213Y019D02*
X0305787D01*
X0305Y0189213D02*
Y0190787D01*
X0304213Y023D02*
X0305787D01*
X0305Y0229213D02*
Y0230787D01*
X0304213Y022D02*
X0305787D01*
X0305Y0219213D02*
Y0220787D01*
X0304213Y021D02*
X0305787D01*
X0305Y0209213D02*
Y0210787D01*
X0304213Y02D02*
X0305787D01*
X0305Y0199213D02*
Y0200787D01*
X0299213Y0195D02*
X0300787D01*
X03Y0194213D02*
Y0195787D01*
X0299213Y0205D02*
X0300787D01*
X03Y0204213D02*
Y0205787D01*
X0299213Y0215D02*
X0300787D01*
X03Y0214213D02*
Y0215787D01*
X0299213Y0225D02*
X0300787D01*
X03Y0224213D02*
Y0225787D01*
X0594213Y0325D02*
X0595787D01*
X0595Y0324213D02*
Y0325787D01*
X0594213Y0335D02*
X0595787D01*
X0595Y0334213D02*
Y0335787D01*
X0594213Y0345D02*
X0595787D01*
X0595Y0344213D02*
Y0345787D01*
X0604213Y0345D02*
X0605787D01*
X0605Y0344213D02*
Y0345787D01*
X0604213Y0335D02*
X0605787D01*
X0605Y0334213D02*
Y0335787D01*
X0604213Y0325D02*
X0605787D01*
X0605Y0324213D02*
Y0325787D01*
X0614213Y0325D02*
X0615787D01*
X0615Y0324213D02*
Y0325787D01*
X0614213Y0335D02*
X0615787D01*
X0615Y0334213D02*
Y0335787D01*
X0614213Y0345D02*
X0615787D01*
X0615Y0344213D02*
Y0345787D01*
X0334209Y03294D02*
X033539D01*
X03348Y0328809D02*
Y0329991D01*
X0329509Y03159D02*
X0330691D01*
X03301Y031531D02*
Y0316491D01*
X0344513Y02671D02*
X0346087D01*
X03453Y0266313D02*
Y0267887D01*
X0329209Y03499D02*
X0330391D01*
X03298Y0349309D02*
Y035049D01*
X0177013Y01796D02*
X0178587D01*
X01778Y0178813D02*
Y0180387D01*
X0094958Y0288518D02*
X0096533D01*
X0095746Y0287731D02*
Y0289306D01*
X0100513Y0319411D02*
X0102087D01*
X01013Y0318623D02*
Y0320198D01*
X0114213Y03366D02*
X0115787D01*
X0115Y0335813D02*
Y0337387D01*
X0286409Y04035D02*
X0287591D01*
X0287Y040291D02*
Y040409D01*
X0367413Y04035D02*
X0368987D01*
X03682Y0402713D02*
Y0404287D01*
X0254013Y02792D02*
X0255587D01*
X02548Y0278413D02*
Y0279987D01*
X033231Y01481D02*
X033349D01*
X03329Y0147509D02*
Y0148691D01*
X0374009Y01588D02*
X037519D01*
X03746Y0158209D02*
Y0159391D01*
X0307213Y03689D02*
X0308787D01*
X0308Y0368113D02*
Y0369687D01*
X0375197Y0181684D02*
X0376772D01*
X0375984Y0180897D02*
Y0182472D01*
X0341213Y02008D02*
X0342787D01*
X0342Y0200013D02*
Y0201587D01*
X025931Y01638D02*
X026049D01*
X02599Y0163209D02*
Y0164391D01*
X027711Y01427D02*
X0278291D01*
X02777Y0142109D02*
Y0143291D01*
X0281509Y01428D02*
X0282691D01*
X02821Y0142209D02*
Y0143391D01*
X021391Y01679D02*
X021509D01*
X02145Y0167309D02*
Y0168491D01*
X021001Y01717D02*
X0211191D01*
X02106Y0171109D02*
Y0172291D01*
X030211Y01483D02*
X0303291D01*
X03027Y0147709D02*
Y0148891D01*
X0658709Y0358D02*
X0659891D01*
X06593Y035741D02*
Y0358591D01*
X069191Y03515D02*
X069309D01*
X06925Y0350909D02*
Y0352091D01*
X071481Y03584D02*
X071599D01*
X07154Y0357809D02*
Y0358991D01*
X063201Y03501D02*
X063319D01*
X06326Y034951D02*
Y0350691D01*
X0702009Y03635D02*
X0703191D01*
X07026Y036291D02*
Y036409D01*
X0374609Y04038D02*
X0375791D01*
X03752Y0403209D02*
Y040439D01*
X0307209Y0413D02*
X030839D01*
X03078Y0412409D02*
Y041359D01*
X0298213Y02355D02*
X0299787D01*
X0299Y0234713D02*
Y0236287D01*
X0306313Y02565D02*
X0307887D01*
X03071Y0255713D02*
Y0257287D01*
X0108213Y02623D02*
X0109787D01*
X0109Y0261513D02*
Y0263087D01*
X0306913Y03259D02*
X0308487D01*
X03077Y0325113D02*
Y0326687D01*
X033461Y02822D02*
X033579D01*
X03352Y028161D02*
Y028279D01*
X0307109Y03787D02*
X0308291D01*
X03077Y037811D02*
Y0379291D01*
X0371909Y03761D02*
X0373091D01*
X03725Y037551D02*
Y0376691D01*
X0435813Y03729D02*
X0437387D01*
X04366Y0372113D02*
Y0373687D01*
X0435913Y03571D02*
X0437487D01*
X04367Y0356313D02*
Y0357887D01*
X0537509Y03347D02*
X0538691D01*
X05381Y0334109D02*
Y0335291D01*
X0367409Y02832D02*
X036859D01*
X0368Y028261D02*
Y028379D01*
X021721Y02525D02*
X021839D01*
X02178Y0251909D02*
Y0253091D01*
X0308021Y0294291D02*
X0309596D01*
X0308809Y0293504D02*
Y0295079D01*
X0329052Y0286857D02*
X0330233D01*
X0329642Y0286267D02*
Y0287448D01*
X0237713Y03143D02*
X0239287D01*
X02385Y0313513D02*
Y0315087D01*
X0244113Y02717D02*
X0245687D01*
X02449Y0270913D02*
Y0272487D01*
X0244113Y03202D02*
X0245687D01*
X02449Y0319413D02*
Y0320987D01*
X0380713Y02858D02*
X0382287D01*
X03815Y0285013D02*
Y0286587D01*
X0360213Y03219D02*
X0361787D01*
X0361Y0321113D02*
Y0322687D01*
X0415013Y03114D02*
X0416587D01*
X04158Y0310613D02*
Y0312187D01*
X032441Y0215D02*
X032559D01*
X0325Y0214409D02*
Y0215591D01*
X032441Y022D02*
X032559D01*
X0325Y0219409D02*
Y022059D01*
X0319409Y022D02*
X032059D01*
X032Y0219409D02*
Y022059D01*
X0375213Y0341D02*
X0376787D01*
X0376Y0340213D02*
Y0341787D01*
X0551213Y035D02*
X0552787D01*
X0552Y0349213D02*
Y0350787D01*
X037481Y03786D02*
X0375991D01*
X03754Y037801D02*
Y037919D01*
X0226013Y04044D02*
X0227587D01*
X02268Y0403613D02*
Y0405187D01*
X0301009Y03734D02*
X030219D01*
X03016Y037281D02*
Y0373991D01*
X0182309Y02332D02*
X0183491D01*
X01829Y023261D02*
Y023379D01*
X0178209Y02239D02*
X0179391D01*
X01788Y0223309D02*
Y022449D01*
X045941Y017D02*
X0460591D01*
X046Y0169409D02*
Y0170591D01*
X045441Y017D02*
X045559D01*
X0455Y0169409D02*
Y0170591D01*
X045441Y0175D02*
X045559D01*
X0455Y0174409D02*
Y0175591D01*
X045941Y0175D02*
X0460591D01*
X046Y0174409D02*
Y0175591D01*
X0334409Y022D02*
X0335591D01*
X0335Y0219409D02*
Y022059D01*
X0334409Y0215D02*
X0335591D01*
X0335Y0214409D02*
Y0215591D01*
X0334409Y021D02*
X0335591D01*
X0335Y0209409D02*
Y0210591D01*
X0334409Y0205D02*
X0335591D01*
X0335Y0204409D02*
Y0205591D01*
X032941Y0205D02*
X0330591D01*
X033Y0204409D02*
Y0205591D01*
X032941Y021D02*
X0330591D01*
X033Y0209409D02*
Y0210591D01*
X032941Y0215D02*
X0330591D01*
X033Y0214409D02*
Y0215591D01*
X032941Y022D02*
X0330591D01*
X033Y0219409D02*
Y022059D01*
X032441Y021D02*
X032559D01*
X0325Y0209409D02*
Y0210591D01*
X032441Y0205D02*
X032559D01*
X0325Y0204409D02*
Y0205591D01*
X0319409Y0205D02*
X032059D01*
X032Y0204409D02*
Y0205591D01*
X0319409Y021D02*
X032059D01*
X032Y0209409D02*
Y0210591D01*
X0319409Y0215D02*
X032059D01*
X032Y0214409D02*
Y0215591D01*
X035835Y0415575D02*
X035965D01*
X0359Y0414925D02*
Y0416224D01*
X0343587Y0421677D02*
X0344886D01*
X0344236Y0421028D02*
Y0422327D01*
X0349689Y0436441D02*
X0350988D01*
X0350339Y0435791D02*
Y043709D01*
X0364453Y0430339D02*
X0365752D01*
X0365102Y0429689D02*
Y0430988D01*
X0343587Y0430339D02*
X0344886D01*
X0344236Y0429689D02*
Y0430988D01*
X035835Y0436441D02*
X035965D01*
X0359Y0435791D02*
Y043709D01*
X0364453Y0421677D02*
X0365752D01*
X0365102Y0421028D02*
Y0422327D01*
X0349689Y0415575D02*
X0350988D01*
X0350339Y0414925D02*
Y0416224D01*
X035835Y0134079D02*
X035965D01*
X0359Y0133429D02*
Y0134728D01*
X0343587Y0140181D02*
X0344886D01*
X0344236Y0139532D02*
Y0140831D01*
X0349689Y0154945D02*
X0350988D01*
X0350339Y0154295D02*
Y0155595D01*
X0364453Y0148843D02*
X0365752D01*
X0365102Y0148193D02*
Y0149492D01*
X0343587Y0148843D02*
X0344886D01*
X0344236Y0148193D02*
Y0149492D01*
X035835Y0154945D02*
X035965D01*
X0359Y0154295D02*
Y0155595D01*
X0364453Y0140181D02*
X0365752D01*
X0365102Y0139532D02*
Y0140831D01*
X0349689Y0134079D02*
X0350988D01*
X0350339Y0133429D02*
Y0134728D01*
M02*
