G04*
G04 #@! TF.GenerationSoftware,Altium Limited,Altium Designer,21.3.2 (30)*
G04*
G04 Layer_Color=16711935*
%FSTAX25Y25*%
%MOIN*%
G70*
G04*
G04 #@! TF.SameCoordinates,6DE20C06-5D1D-465E-9787-E79606FCF872*
G04*
G04*
G04 #@! TF.FilePolarity,Positive*
G04*
G01*
G75*
%ADD12C,0.00394*%
%ADD13C,0.00787*%
%ADD14C,0.00500*%
%ADD116R,0.02436X0.11417*%
G36*
X0675019Y0362322D02*
X067292Y03637D01*
X0675019Y0365078D01*
Y0362322D01*
D02*
G37*
G36*
X0640193D02*
X0638095Y03637D01*
X0640193Y0365078D01*
Y0362322D01*
D02*
G37*
G36*
X0605368D02*
X0603269Y03637D01*
X0605368Y0365078D01*
Y0362322D01*
D02*
G37*
G36*
X0317515Y0300832D02*
X0315205D01*
Y030264D01*
X0317515D01*
Y0300832D01*
D02*
G37*
G36*
X0325415Y0297131D02*
X0323115D01*
Y0298932D01*
X0325415D01*
Y0297131D01*
D02*
G37*
G36*
X0317515Y0293431D02*
X0315213D01*
Y029523D01*
X0317515D01*
Y0293431D01*
D02*
G37*
G36*
X03219Y0131916D02*
X0320522Y0134015D01*
X0323278D01*
X03219Y0131916D01*
D02*
G37*
G36*
X03117D02*
X0310322Y0134015D01*
X0313078D01*
X03117Y0131916D01*
D02*
G37*
D12*
X03253Y01739D02*
Y01839D01*
Y01739D02*
X03453D01*
Y01839D01*
X03253D02*
X03453D01*
X0348653Y01738D02*
Y01838D01*
Y01738D02*
X0368653D01*
Y01838D01*
X0348653D02*
X0368653D01*
X0368653Y01628D02*
Y01728D01*
X0348653D02*
X0368653D01*
X0348653Y01628D02*
Y01728D01*
Y01628D02*
X0368653D01*
X02509Y01275D02*
Y01375D01*
Y01275D02*
X02709D01*
Y01375D01*
X02509D02*
X02709D01*
X02709Y01165D02*
Y01265D01*
X02509D02*
X02709D01*
X02509Y01165D02*
Y01265D01*
Y01165D02*
X02709D01*
X02744Y01275D02*
Y01375D01*
Y01275D02*
X02944D01*
Y01375D01*
X02744D02*
X02944D01*
X02944Y01165D02*
Y01265D01*
X02744D02*
X02944D01*
X02744Y01165D02*
Y01265D01*
Y01165D02*
X02944D01*
X03453Y01629D02*
Y01729D01*
X03253D02*
X03453D01*
X03253Y01629D02*
Y01729D01*
Y01629D02*
X03453D01*
X0309239Y0128897D02*
Y0136771D01*
Y0128897D02*
X0314161D01*
Y0136771D01*
X0309239D02*
X0314161D01*
X0319439Y0128897D02*
Y0136771D01*
Y0128897D02*
X0324361D01*
Y0136771D01*
X0319439D02*
X0324361D01*
X0309141Y0153384D02*
X0314259D01*
X0309141Y0145509D02*
X0314259D01*
Y0153384D01*
X0309141Y0145509D02*
Y0153384D01*
X0319341D02*
X0324459D01*
X0319341Y0145509D02*
X0324459D01*
Y0153384D01*
X0319341Y0145509D02*
Y0153384D01*
X037874Y0118669D02*
X0410236D01*
X037874Y0148591D02*
X0382677D01*
Y0142291D02*
Y0148591D01*
X037874Y0118669D02*
Y0148591D01*
X0382677Y0142291D02*
X0406299D01*
X0410236Y0118669D02*
Y0148591D01*
X0406299Y0142291D02*
Y0148591D01*
X0410236D01*
X0384449Y0165748D02*
Y0168898D01*
X0390748Y0165748D02*
Y0168898D01*
X0384449D02*
X0390748D01*
X0384449Y0165748D02*
X0390748D01*
X0384449Y0158343D02*
Y0161492D01*
X0390748Y0158343D02*
Y0161492D01*
X0384449D02*
X0390748D01*
X0384449Y0158343D02*
X0390748D01*
X0398228Y0165748D02*
Y0168898D01*
X0404528Y0165748D02*
Y0168898D01*
X0398228D02*
X0404528D01*
X0398228Y0165748D02*
X0404528D01*
X0398228Y0158343D02*
Y0161492D01*
X0404528Y0158343D02*
Y0161492D01*
X0398228D02*
X0404528D01*
X0398228Y0158343D02*
X0404528D01*
X0453181Y0148591D02*
X0457118D01*
X0453181Y0142291D02*
Y0148591D01*
X0457118Y0118669D02*
Y0148591D01*
X0421685Y0142291D02*
X0453181D01*
X0417748Y0118669D02*
Y0148591D01*
X0421685Y0142291D02*
Y0148591D01*
X0417748D02*
X0421685D01*
X0417748Y0118669D02*
X0457118D01*
X0344579Y0218626D02*
X0355209D01*
X0341429Y0215476D02*
X0344579Y0218626D01*
X0355209D02*
X0358358Y0215476D01*
X0341429Y0201697D02*
Y0215476D01*
X0358358Y0201697D02*
Y0215476D01*
X0341429Y0201697D02*
X0358358D01*
X0362992Y019146D02*
X0388976D01*
X0362992D02*
Y0211342D01*
X0369094Y0217444D02*
X0382874D01*
X0362992Y0211342D02*
X0369094Y0217444D01*
X0382874D02*
X0388976Y0211342D01*
Y019146D02*
Y0211342D01*
X0440611Y0228127D02*
Y0243527D01*
X0398011Y0228127D02*
Y0243527D01*
Y0228127D02*
X0440611D01*
X0398011Y0243527D02*
X0440611D01*
Y0203682D02*
Y0219082D01*
X0398011Y0203682D02*
Y0219082D01*
Y0203682D02*
X0440611D01*
X0398011Y0219082D02*
X0440611D01*
X0418197Y0198449D02*
X0436307D01*
X0418197Y0187031D02*
X0436307D01*
X0418197D02*
Y0198449D01*
X0436307Y0187031D02*
Y0198449D01*
X0444488Y0186539D02*
Y0221224D01*
X0480709D01*
Y0186539D02*
Y0221224D01*
X0444488Y0186539D02*
X0480709D01*
X0444488Y0227146D02*
Y0261831D01*
X0480709D01*
Y0227146D02*
Y0261831D01*
X0444488Y0227146D02*
X0480709D01*
X0416142Y0261339D02*
X0434252D01*
X0416142Y0249921D02*
X0434252D01*
X0416142D02*
Y0261339D01*
X0434252Y0249921D02*
Y0261339D01*
X0362992Y0258052D02*
X0388976D01*
Y023817D02*
Y0258052D01*
X0369094Y0232068D02*
X0382874D01*
X0388976Y023817D01*
X0362992D02*
X0369094Y0232068D01*
X0362992Y023817D02*
Y0258052D01*
X0332283Y023817D02*
Y0258052D01*
Y023817D02*
X0338386Y0232068D01*
X0352165D02*
X0358268Y023817D01*
X0338386Y0232068D02*
X0352165D01*
X0358268Y023817D02*
Y0258052D01*
X0332283D02*
X0358268D01*
X0343543Y0317716D02*
X0363228D01*
X0343543Y0286221D02*
X0363228D01*
X0343543Y0286221D02*
Y0317716D01*
X0363228Y0286221D02*
Y0317717D01*
X0326611Y0311024D02*
Y0318898D01*
X0321493Y0311024D02*
Y0318898D01*
X0326611D01*
X0321493Y0311024D02*
X0326611D01*
X0313425Y0311221D02*
Y0319094D01*
X0318543Y0311221D02*
Y0319094D01*
X0313425Y0311221D02*
X0318543D01*
X0313425Y0319094D02*
X0318543D01*
X0312899Y0337992D02*
Y0345866D01*
X0317821Y0337992D02*
Y0345866D01*
X0312899Y0337992D02*
X0317821D01*
X0312899Y0345866D02*
X0317821D01*
X0321348Y0337992D02*
Y0345866D01*
X0326269Y0337992D02*
Y0345866D01*
X0321348Y0337992D02*
X0326269D01*
X0321348Y0345866D02*
X0326269D01*
X0312899Y0354134D02*
X0317821D01*
X0312899Y0362008D02*
X0317821D01*
X0312899Y0354134D02*
Y0362008D01*
X0317821Y0354134D02*
Y0362008D01*
X0321348Y0354134D02*
X0326269D01*
X0321348Y0362008D02*
X0326269D01*
X0321348Y0354134D02*
Y0362008D01*
X0326269Y0354134D02*
Y0362008D01*
X0363228Y0326378D02*
Y0373623D01*
X0343543Y0326378D02*
Y0373622D01*
Y0326378D02*
X0363228D01*
X0343543Y0373622D02*
X0363228D01*
X0373479Y0305118D02*
X03784D01*
X0373479Y0297244D02*
X03784D01*
Y0305118D01*
X0373479Y0297244D02*
Y0305118D01*
X0380321D02*
X0385243D01*
X0380321Y0297244D02*
X0385243D01*
Y0305118D01*
X0380321Y0297244D02*
Y0305118D01*
X039489Y0320866D02*
Y0324803D01*
Y0320866D02*
X0401189D01*
X039489Y0324803D02*
X0424811D01*
X0401189Y0281496D02*
Y0320866D01*
X039489Y0277559D02*
X0424811D01*
X039489Y0281496D02*
X0401189D01*
X039489Y0277559D02*
Y0281496D01*
X0424811Y0277559D02*
Y0324803D01*
X0373479Y0356299D02*
X03784D01*
X0373479Y0348425D02*
X03784D01*
Y0356299D01*
X0373479Y0348425D02*
Y0356299D01*
X0380321D02*
X0385243D01*
X0380321Y0348425D02*
X0385243D01*
Y0356299D01*
X0380321Y0348425D02*
Y0356299D01*
X039489Y0372047D02*
Y0375984D01*
Y0372047D02*
X0401189D01*
X039489Y0375984D02*
X0424811D01*
X0401189Y0332677D02*
Y0372047D01*
X039489Y032874D02*
X0424811D01*
X039489Y0332677D02*
X0401189D01*
X039489Y032874D02*
Y0332677D01*
X0424811Y032874D02*
Y0375984D01*
X0549118Y0350394D02*
Y0354331D01*
Y0350394D02*
X0555417D01*
X0549118Y0354331D02*
X0579039D01*
X0555417Y0287402D02*
Y0350394D01*
X0549118Y0283465D02*
X0579039D01*
X0549118Y0287402D02*
X0555417D01*
X0549118Y0283465D02*
Y0287402D01*
X0579039Y0283465D02*
Y0354331D01*
X060025Y0366161D02*
X0608124D01*
X060025Y0361239D02*
Y0366161D01*
Y0361239D02*
X0608124D01*
Y0366161D01*
X0624933Y0361141D02*
Y0366259D01*
X0617059Y0361141D02*
Y0366259D01*
Y0361141D02*
X0624933D01*
X0617059Y0366259D02*
X0624933D01*
X0642949Y0361239D02*
Y0366161D01*
X0635075Y0361239D02*
X0642949D01*
X0635075D02*
Y0366161D01*
X0642949D01*
X0651884Y0366259D02*
X0659758D01*
X0651884Y0361141D02*
X0659758D01*
X0651884D02*
Y0366259D01*
X0659758Y0361141D02*
Y0366259D01*
X0669901Y0366161D02*
X0677775D01*
X0669901Y0361239D02*
Y0366161D01*
Y0361239D02*
X0677775D01*
Y0366161D01*
X0694583Y0361141D02*
Y0366259D01*
X0686709Y0361141D02*
Y0366259D01*
Y0361141D02*
X0694583D01*
X0686709Y0366259D02*
X0694583D01*
X0077754Y0270077D02*
X0082676D01*
X0077754Y0262203D02*
X0082676D01*
Y0270077D01*
X0077754Y0262203D02*
Y0270077D01*
X0089959D02*
X009488D01*
X0089959Y0262203D02*
X009488D01*
Y0270077D01*
X0089959Y0262203D02*
Y0270077D01*
X0077561Y0244723D02*
X0082482D01*
X0077561Y0252597D02*
X0082482D01*
X0077561Y0244723D02*
Y0252597D01*
X0082482Y0244723D02*
Y0252597D01*
X0089765Y0244723D02*
X0094687D01*
X0089765Y0252597D02*
X0094687D01*
X0089765Y0244723D02*
Y0252597D01*
X0094687Y0244723D02*
Y0252597D01*
X005812Y0304723D02*
X0063041D01*
X005812Y0312597D02*
X0063041D01*
X005812Y0304723D02*
Y0312597D01*
X0063041Y0304723D02*
Y0312597D01*
X0069537Y0304723D02*
X0074458D01*
X0069537Y0312597D02*
X0074458D01*
X0069537Y0304723D02*
Y0312597D01*
X0074458Y0304723D02*
Y0312597D01*
D13*
X0061893Y02924D02*
G03*
X0061893Y02924I-0000394J0D01*
G01*
X0265672Y01524D02*
G03*
X0265672Y01524I-0000394J0D01*
G01*
X0061893Y02024D02*
G03*
X0061893Y02024I-0000394J0D01*
G01*
X0265672Y0238384D02*
G03*
X0265672Y0238384I-0000394J0D01*
G01*
X0031893Y03324D02*
G03*
X0031893Y03324I-0000394J0D01*
G01*
X0271893D02*
G03*
X0271893Y03324I-0000394J0D01*
G01*
D14*
X0031499Y0457361D02*
G03*
X0025594Y0451455I0J-0005906D01*
G01*
X0301184D02*
G03*
X0295279Y0457361I-0005906J0D01*
G01*
Y0140431D02*
G03*
X0301184Y0146337I0J0005906D01*
G01*
X0025594D02*
G03*
X0031499Y0140431I0005906J0D01*
G01*
X0322874Y0295079D02*
Y0300984D01*
X0317756Y030374D02*
X0319724D01*
X0317756Y0299016D02*
Y030374D01*
Y0292323D02*
Y0297047D01*
Y0292323D02*
X0319724D01*
X0063468Y0216416D02*
Y0298384D01*
Y0216416D02*
X007331D01*
Y0298384D01*
X0063468D02*
X007331D01*
X026331Y0146416D02*
Y0228384D01*
X0253468D02*
X026331D01*
X0253468Y0146416D02*
Y0228384D01*
Y0146416D02*
X026331D01*
X0063468D02*
Y0208384D01*
Y0146416D02*
X007331D01*
Y0208384D01*
X0063468D02*
X007331D01*
X026331Y02324D02*
Y0334368D01*
X0253468D02*
X026331D01*
X0253468Y02324D02*
Y0334368D01*
Y02324D02*
X026331D01*
X0273547Y01474D02*
Y03374D01*
Y01474D02*
X0293232D01*
Y03374D01*
X0273547D02*
X0293232D01*
X0033546Y01474D02*
Y03374D01*
Y01474D02*
X0053232D01*
Y03374D01*
X0033546D02*
X0053232D01*
X0025594Y0146337D02*
Y0451455D01*
X0031499Y0457361D02*
X0295279D01*
X0301184Y0146337D02*
Y0451455D01*
X021457Y0140431D02*
X0295279D01*
X0206696Y0132557D02*
X021457Y0140431D01*
X0076775Y0132557D02*
X0206696D01*
X0068901Y0140431D02*
X0076775Y0132557D01*
X0031499Y0140431D02*
X0068901D01*
D116*
X0419589Y019274D02*
D03*
X0417534Y0255629D02*
D03*
M02*
