G04*
G04 #@! TF.GenerationSoftware,Altium Limited,Altium Designer,21.3.2 (30)*
G04*
G04 Layer_Color=128*
%FSTAX25Y25*%
%MOIN*%
G70*
G04*
G04 #@! TF.SameCoordinates,6DE20C06-5D1D-465E-9787-E79606FCF872*
G04*
G04*
G04 #@! TF.FilePolarity,Positive*
G04*
G01*
G75*
%ADD20R,0.05512X0.12205*%
%ADD21R,0.05906X0.13386*%
%ADD33R,0.05118X0.03543*%
%ADD34R,0.12205X0.05512*%
%ADD35R,0.13386X0.05906*%
%ADD105R,0.03543X0.05118*%
%ADD106R,0.06496X0.03740*%
%ADD107R,0.06496X0.12992*%
D20*
X0327559Y0126181D02*
D03*
X0301575D02*
D03*
X0383858Y0123819D02*
D03*
X0425591D02*
D03*
X026811Y0426087D02*
D03*
X0226378D02*
D03*
D21*
X0318504Y0148425D02*
D03*
X031063D02*
D03*
X0408662Y0146063D02*
D03*
X0416536D02*
D03*
X0400787D02*
D03*
X0392913D02*
D03*
X0243307Y0403842D02*
D03*
X0235433D02*
D03*
X0251181D02*
D03*
X0259055D02*
D03*
D33*
X05799Y0335039D02*
D03*
Y034252D02*
D03*
X05699Y0335039D02*
D03*
Y034252D02*
D03*
X03569Y02117D02*
D03*
Y021918D02*
D03*
Y020078D02*
D03*
Y01933D02*
D03*
X0345821Y0297047D02*
D03*
Y0304527D02*
D03*
X0338766Y0297047D02*
D03*
Y0304527D02*
D03*
X02196Y0279354D02*
D03*
Y0271874D02*
D03*
X02126Y0279354D02*
D03*
Y0271874D02*
D03*
X02196Y029166D02*
D03*
Y029914D02*
D03*
X02126Y0291674D02*
D03*
Y0299154D02*
D03*
X02414Y029914D02*
D03*
Y029166D02*
D03*
X02484D02*
D03*
Y029914D02*
D03*
X0338766Y034941D02*
D03*
Y035689D02*
D03*
X0345821Y034941D02*
D03*
Y035689D02*
D03*
D34*
X0384307Y0332283D02*
D03*
Y0374016D02*
D03*
X0384307Y0279921D02*
D03*
Y0321654D02*
D03*
D35*
X0362063Y0357087D02*
D03*
Y0364961D02*
D03*
Y0349213D02*
D03*
Y0341339D02*
D03*
X0362063Y0304724D02*
D03*
Y0312598D02*
D03*
Y029685D02*
D03*
Y0288976D02*
D03*
D105*
X0400394Y0161417D02*
D03*
X0407874D02*
D03*
X0400691Y0170966D02*
D03*
X0408171D02*
D03*
X0250984Y03822D02*
D03*
X0243504D02*
D03*
X0250984Y0389D02*
D03*
X0243504D02*
D03*
D106*
X03662Y020109D02*
D03*
Y0210145D02*
D03*
Y02192D02*
D03*
D107*
X0391987Y0210145D02*
D03*
M02*
